<svg width="473" height="414" viewBox="0 0 473 414" fill="none" xmlns="http://www.w3.org/2000/svg">
<path d="M69.2529 368.954C161.615 428.222 311.363 428.222 403.725 368.954C496.087 309.686 496.097 213.589 403.725 154.32C311.353 95.0521 161.615 95.0422 69.2529 154.32C-23.1092 213.599 -23.0594 309.686 69.2529 368.954Z" fill="#F5F5F5"/>
<path d="M425.527 309.603L420.919 306.976C420.919 306.976 418.71 294.797 420.362 284.329C422.681 269.603 432.711 264.518 436.353 265.991C439.995 267.463 440.851 271.812 434.273 280.319C430.392 285.324 425.407 295.941 425.527 309.603Z" fill="#37474F"/>
<path d="M423.855 303.753H423.904C423.99 303.74 424.067 303.695 424.119 303.626C424.171 303.557 424.194 303.47 424.183 303.385C422.282 289.594 427.825 274.529 434.054 268.409C434.116 268.347 434.151 268.263 434.151 268.176C434.151 268.088 434.116 268.004 434.054 267.942C433.992 267.88 433.908 267.845 433.82 267.845C433.732 267.845 433.648 267.88 433.586 267.942C427.248 274.141 421.596 289.484 423.536 303.474C423.546 303.551 423.584 303.623 423.642 303.674C423.701 303.725 423.777 303.753 423.855 303.753Z" fill="white"/>
<path d="M438.313 316.983C439.039 317.401 440.542 316.485 441.119 316.107C442.103 315.434 442.898 314.519 443.428 313.451C444.024 312.24 444.226 310.872 444.005 309.541C443.892 308.837 443.729 308.142 443.517 307.461L442.93 305.471C442.703 304.834 442.605 304.157 442.641 303.482C442.811 302.109 444.044 301.134 445.159 300.298C446.273 299.462 447.667 298.159 447.667 296.497C447.572 295.209 447.055 293.988 446.194 293.025C445.408 292.03 444.462 291.125 443.746 290.04C443.179 289.303 442.884 288.393 442.91 287.463C442.985 286.891 443.175 286.339 443.467 285.841C444.144 284.813 444.737 283.732 445.239 282.608C445.479 282.039 445.554 281.414 445.454 280.805C445.353 280.195 445.082 279.627 444.671 279.165C444.266 278.864 443.805 278.647 443.314 278.526C442.824 278.404 442.315 278.382 441.816 278.459C440.869 278.571 439.958 278.89 439.149 279.394C436.512 280.857 435.009 283.981 432.183 285.115C431.074 285.462 429.944 285.737 428.8 285.941C428.226 286.048 427.68 286.274 427.198 286.605C426.717 286.935 426.31 287.363 426.004 287.861C425.009 289.911 426.88 292.438 426.163 294.617C425.516 296.547 423.646 297.283 422.591 299.024C422.161 299.792 421.99 300.679 422.103 301.551C422.191 303.028 422.552 304.475 423.168 305.82C423.85 307.157 424.631 308.441 425.506 309.66C425.506 309.66 438.203 316.923 438.313 316.983Z" fill="#455A64"/>
<path d="M430.83 313.01C430.874 313.009 430.917 312.999 430.957 312.98C430.997 312.962 431.033 312.936 431.063 312.903C431.093 312.871 431.116 312.833 431.13 312.791C431.145 312.75 431.151 312.706 431.148 312.662C430.611 299.616 436.761 285.218 441.228 281.029C441.259 280.998 441.284 280.962 441.301 280.921C441.318 280.881 441.326 280.838 441.326 280.795C441.326 280.751 441.318 280.708 441.301 280.668C441.284 280.628 441.259 280.591 441.228 280.561C441.199 280.53 441.163 280.506 441.124 280.489C441.084 280.472 441.042 280.464 440.999 280.464C440.957 280.464 440.914 280.472 440.875 280.489C440.836 280.506 440.8 280.53 440.771 280.561C436.203 284.83 429.934 299.467 430.482 312.701C430.489 312.788 430.53 312.868 430.594 312.925C430.659 312.982 430.744 313.013 430.83 313.01Z" fill="white"/>
<path d="M432.791 297.609H432.89C435.98 296.753 439.153 296.24 442.353 296.077C442.441 296.072 442.524 296.032 442.583 295.967C442.642 295.902 442.674 295.815 442.671 295.727C442.67 295.683 442.66 295.64 442.642 295.6C442.623 295.56 442.597 295.524 442.564 295.495C442.532 295.466 442.493 295.444 442.452 295.431C442.41 295.417 442.367 295.412 442.323 295.416C439.065 295.58 435.835 296.104 432.691 296.979C432.608 297.004 432.539 297.061 432.498 297.138C432.456 297.215 432.447 297.305 432.472 297.389C432.497 297.454 432.54 297.51 432.597 297.55C432.654 297.589 432.722 297.61 432.791 297.609Z" fill="white"/>
<path d="M117.643 165.925L95.5723 178.672L356.757 342.216L400.909 316.731L117.643 165.925Z" fill="#407BFF"/>
<path d="M84.5372 159.544L80.8555 187.158L132.36 157.425L84.5372 159.544Z" fill="#407BFF"/>
<path d="M371.475 333.716L338.369 352.832L303.422 332.661C267.6 312.012 222.583 297.912 173.068 291.861C136.401 287.454 99.3312 287.581 62.6954 292.239L56.6255 277.213L79.2135 273.71C120.232 267.469 161.907 266.82 203.099 271.78C253.758 277.949 299.889 292.379 336.498 313.515L371.475 333.716Z" fill="#407BFF"/>
<path d="M50.3666 263.631L70.5963 307.215L29.7886 290.229L50.3666 263.631Z" fill="#407BFF"/>
<path d="M419.298 306.111L386.192 325.226L351.245 305.046C314.637 283.911 289.64 257.283 278.953 228.028C270.356 204.485 271.51 179.747 282.307 156.502L288.357 143.467L316.995 140.8C306.457 163.508 305.323 187.678 313.731 210.674C324.169 239.252 348.558 265.273 384.381 285.921L419.298 306.111Z" fill="#407BFF"/>
<path d="M262.027 142.67L337.513 154.353L308.099 130.788L262.027 142.67Z" fill="#407BFF"/>
<path d="M327.333 346.463L364.121 367.71L445.05 320.977L408.262 299.73L327.333 346.463Z" fill="#407BFF"/>
<path opacity="0.1" d="M372.499 346.157C393.916 346.157 411.277 336.131 411.277 323.764C411.277 311.397 393.916 301.372 372.499 301.372C351.083 301.372 333.722 311.397 333.722 323.764C333.722 336.131 351.083 346.157 372.499 346.157Z" fill="black"/>
<path opacity="0.1" d="M193.397 229.27C199.151 229.27 203.816 226.58 203.816 223.261C203.816 219.943 199.151 217.253 193.397 217.253C187.643 217.253 182.979 219.943 182.979 223.261C182.979 226.58 187.643 229.27 193.397 229.27Z" fill="black"/>
<path d="M206.701 131.841L197.427 126.487C195.218 125.214 192.064 125.492 188.004 127.841C179.108 132.986 174.581 142.679 174.581 151.834C174.581 156.69 175.854 160.273 178.382 161.786L187.646 167.159C189.875 168.503 193.079 168.234 197.228 165.836C206.184 160.701 210.502 150.909 210.502 141.733C210.502 136.867 209.219 133.314 206.701 131.841Z" fill="#37474F"/>
<path d="M228.414 7.64908L218.98 2.22606C212.304 -1.59493 202.602 -0.679484 190.342 6.39532C168.172 19.1917 152.878 43.64 148.191 69.4516L157.416 74.7851L182.083 69.2825C184.909 58.5061 189.109 50.8641 198.84 45.2719C200.105 44.5323 201.438 43.9159 202.821 43.4311C203.004 44.5326 203.094 45.6478 203.089 46.7645C203.089 55.0931 197.467 64.5858 174.989 86.9347V122.319L184.213 127.642L210.602 112.418V92.8453C223.617 78.825 238.643 57.8892 238.643 32.2766C238.643 20.2365 235.061 11.5596 228.414 7.64908Z" fill="#37474F"/>
<path d="M184.113 92.2571C206.602 69.9076 212.224 60.4145 212.224 52.0956C212.224 44.8017 208.94 39.4084 198.79 45.2694C189.108 50.8618 184.859 58.504 182.083 69.2807L157.416 74.7835C162.102 48.9711 177.406 24.522 199.577 11.7253C224.244 -2.49442 238.643 8.13304 238.643 32.2737C238.643 57.887 223.657 78.8235 210.542 92.8442V112.417L184.153 127.642L184.113 92.2571Z" fill="#455A64"/>
<path d="M183.805 157.169C183.805 148.005 188.332 138.313 197.228 133.179C205.975 128.134 210.502 132.592 210.502 141.756C210.502 150.921 206.134 160.722 197.228 165.856C188.322 170.99 183.805 166.324 183.805 157.169Z" fill="#455A64"/>
<path d="M212.224 52.0968C212.224 60.4247 206.602 69.9068 184.113 92.2539L174.889 86.9308C197.378 64.5738 202.99 55.0917 202.99 46.7637C203 45.6502 202.91 44.538 202.721 43.4405C209.786 40.9929 212.224 45.8484 212.224 52.0968Z" fill="#263238"/>
<path d="M387.665 168.562C391.575 167.637 395.874 170.413 398.391 176.523C400.909 182.632 405.934 198.304 406.979 202.394C407.446 204.225 393.516 220.474 394.043 220.235C394.192 220.165 389.505 212.274 389.505 212.274L396.262 201.866L392.033 190.573L387.665 168.562Z" fill="#FFA8A7"/>
<path d="M396.68 313.942C397.207 314.141 397.336 315.146 397.416 317.156C397.476 318.669 397.804 321.326 396.033 321.853C394.262 322.38 391.645 322.112 390.51 320.679C389.087 318.898 388.122 317.325 386.092 315.146C384.331 313.255 382.43 311.494 381.724 308.837C381.077 306.449 381.614 305.404 383.246 304.707C385.495 303.712 389.028 306.877 390.789 307.374C392.301 307.842 396.142 313.783 396.68 313.942Z" fill="#263238"/>
<path d="M396.679 312.141V314.625C395.754 315.218 394.685 315.547 393.588 315.577C392.491 315.607 391.407 315.337 390.45 314.795C390.351 314.555 389.804 309.788 389.804 309.788L396.679 312.141Z" fill="#FFA8A7"/>
<path d="M378.351 327.067C378.351 327.067 379.057 329.206 379.445 331.047C379.744 332.54 380.182 335.028 379.654 336.142C379.127 337.257 377.097 337.983 373.953 337.963C371.913 337.963 368.728 339.337 366.549 340.551C364.359 341.635 361.878 341.984 359.474 341.546C356.668 341.208 353.763 339.556 353.315 338.421C352.867 337.287 353.444 336.7 360.052 333.883C360.111 333.883 367.017 330.739 370.221 327.206L378.351 327.067Z" fill="#263238"/>
<path d="M378.351 324.402C378.351 324.402 378.351 326.245 378.351 327.296C378.351 328.348 377.127 329.91 373.942 329.8C371.694 329.72 370.131 329.109 370.221 327.246V324.572L378.351 324.402Z" fill="#FFA8A7"/>
<path d="M399.098 277.995C398.58 273.674 397.579 269.425 396.113 265.328C396.113 265.328 397.506 254.442 398.312 243.975C399.755 225.218 398.59 219.099 394.909 210.671C394.909 210.671 363.435 207.487 362.47 220.562C361.275 236.85 362.868 268.323 363.295 274.084C363.723 279.846 364.29 282.433 366.281 294.453C367.833 303.597 370.261 324.572 370.261 324.572C371.525 325.216 372.929 325.537 374.347 325.507C375.765 325.478 377.154 325.098 378.391 324.403C378.391 324.403 380.968 298.214 380.699 291.567C380.477 286.664 379.617 281.811 378.142 277.129C378.142 277.129 380.132 250.582 380.659 246.353C380.659 246.353 381.654 254.781 382.072 260.532C382.49 266.283 384.212 271.786 385.883 282.473C387.326 291.736 390.003 312.463 390.003 312.463C394.182 314.722 396.849 312.214 396.849 312.214C396.849 312.214 400.232 286.085 399.098 277.995Z" fill="#37474F"/>
<path d="M371.544 164.322L373.027 176.481L383.724 175.515L382.5 162.024L371.544 164.322Z" fill="#FFA8A7"/>
<path d="M395.456 174.632C394.281 171.438 390.281 167.875 386.172 168.661C385.097 168.86 384.182 169.019 383.187 169.218C383.097 172.025 377.813 173.478 372.559 171.776C370.977 172.224 369.524 172.691 368.211 173.159C364.449 174.502 362.937 180.752 362.847 191.211C362.758 201.669 361.653 227.761 361.653 227.761L366.052 229.144L368.111 221.512L368.937 230.647C373.937 231.818 379.143 231.794 384.132 230.577C395.446 228.11 398.958 222 398.958 222C397.589 214.948 394.851 208.234 390.898 202.236C396.52 187.15 397.197 179.398 395.456 174.632Z" fill="#407BFF"/>
<path opacity="0.2" d="M362.718 196.416L369.375 188.85L362.559 202.468L362.718 196.416Z" fill="black"/>
<path d="M370.261 172.396C370.261 172.396 363.723 172.914 360.927 177.154C358.131 181.394 347.165 197.06 347.165 197.06C347.165 197.06 329.722 188.331 328.866 187.296C328.01 186.261 328.498 184.171 328.727 183.016C328.956 181.861 329.354 179.304 329.612 178.587C330.06 177.333 328.199 177.671 327.115 178.846C326.03 180.02 325.532 182.309 324.985 182.707C324.438 183.106 320.288 178.328 318.278 176.019C316.268 173.71 315.293 172.108 313.97 173.033C312.975 173.72 313.622 175.093 315.064 177.064C315.742 177.895 316.363 178.769 316.925 179.682C317.104 180.03 316.567 180.309 316.358 180.498C315.97 180.856 315.273 181.424 315.224 181.971C315.249 182.269 315.249 182.569 315.224 182.867C315.035 183.524 314.229 183.862 313.99 184.479C313.821 184.937 313.99 185.474 313.91 185.942C313.85 186.261 313.681 186.539 313.622 186.858C313.601 187.171 313.648 187.486 313.76 187.779C313.871 188.073 314.045 188.339 314.268 188.56C315.681 190.242 317.622 190.889 319.473 191.914C321.015 192.77 322.607 193.138 324.378 193.905C326.149 194.671 347.115 210.765 350.379 208.973C353.643 207.182 369.992 188.182 369.992 188.182C375.505 179.323 370.261 172.396 370.261 172.396Z" fill="#FFA8A7"/>
<path d="M365.544 149.327C365.544 149.327 361.365 144.619 364.41 139.833C368.002 134.2 374.918 133.234 383.117 135.434C385.978 136.313 388.497 138.052 390.333 140.415C392.169 142.779 393.232 145.651 393.376 148.64C393.764 154.611 376.997 159.09 377.385 163.21L365.544 149.327Z" fill="#263238"/>
<path d="M363.245 151.156C363.245 151.156 360.967 154.831 361.255 155.162C361.822 155.514 362.444 155.765 363.096 155.903L363.245 151.156Z" fill="#F28F8F"/>
<path d="M370.181 139.605C367.912 140.859 363.982 143.168 363.215 151.686C362.399 160.433 364.429 163.409 365.643 164.523C366.469 165.27 370.619 165.439 372.758 164.712C375.435 163.797 381.216 160.732 383.833 156.174C386.918 150.79 387.395 143.715 383.594 141.048C378.221 137.296 372.111 138.54 370.181 139.605Z" fill="#FFA8A7"/>
<path d="M369.515 139.984C369.515 139.984 367.723 147.944 370.261 152.919C370.261 152.919 371.584 149.775 374.241 150.591C376.898 151.407 376.799 154.999 374.739 156.89C374.214 157.43 373.546 157.811 372.813 157.987C372.08 158.163 371.313 158.128 370.599 157.885C371.5 160.149 372.854 162.204 374.58 163.925C374.58 163.925 382.54 167.477 389.446 159.686C395.705 152.621 394.541 140.292 384.958 137.386C375.376 134.481 369.515 139.984 369.515 139.984Z" fill="#263238"/>
<path d="M370.639 157.925V168.87L383.505 167.109C386.239 166.734 388.746 165.381 390.56 163.302C392.375 161.222 393.375 158.556 393.376 155.796V148.612L383.167 155.149L378.341 159.418L373.455 159.02L370.639 157.925Z" fill="#263238"/>
<path d="M363.295 136.572C359.852 140.274 359.932 150.672 370.261 152.961L376.48 134.363C372.5 131.925 366.37 133.278 363.295 136.572Z" fill="#263238"/>
<path d="M369.305 155.859C369.052 155.775 368.818 155.641 368.617 155.466C368.415 155.291 368.25 155.077 368.13 154.838C368.011 154.599 367.939 154.338 367.92 154.07C367.9 153.803 367.933 153.535 368.017 153.28C368.1 153.026 368.233 152.79 368.407 152.587C368.581 152.385 368.793 152.218 369.031 152.098C369.269 151.977 369.528 151.905 369.794 151.886C370.059 151.866 370.326 151.899 370.579 151.983L369.305 155.859Z" fill="#263238"/>
<path d="M380.659 246.278L381.256 239.92C384.688 239.429 387.974 238.204 390.888 236.327C390.888 236.327 388.849 239.601 383.236 241.094L382.649 249.194L382.301 262.458L380.659 246.278Z" fill="#263238"/>
</svg>
