<svg width="151" height="84" viewBox="0 0 151 84" fill="none" xmlns="http://www.w3.org/2000/svg">
<g clip-path="url(#clip0_447_4923)">
<path fill-rule="evenodd" clip-rule="evenodd" d="M42.8182 30.193C42.8182 31.9038 43.0168 33.291 43.3647 34.3083C43.7624 35.3255 44.2597 36.4353 44.9555 37.6373C45.2039 38.0073 45.3034 38.3772 45.3034 38.7009C45.3034 39.1634 45.0053 39.6255 44.3592 40.088L41.2274 42.0299C40.7799 42.3073 40.3329 42.4462 39.9352 42.4462C39.438 42.4462 38.9412 42.2151 38.444 41.7989C37.7481 41.1053 37.1518 40.3654 36.6546 39.6255C36.1573 38.8393 35.6606 37.961 35.1136 36.8974C31.2362 41.1516 26.3652 43.2782 20.4997 43.2782C16.3246 43.2782 12.9942 42.1684 10.5587 39.9492C8.12322 37.7295 6.88037 34.7704 6.88037 31.0714C6.88037 27.1409 8.37161 23.9507 11.4039 21.5462C14.4361 19.1418 18.4624 17.9398 23.5818 17.9398C25.2716 17.9398 27.0117 18.0783 28.8509 18.3098C30.6901 18.5408 32.579 18.9108 34.567 19.327V15.9516C34.567 12.4374 33.7716 9.98708 32.2306 8.5536C30.6398 7.12012 27.956 6.42653 24.1283 6.42653C22.3887 6.42653 20.5993 6.61129 18.7601 7.02753C16.9209 7.44377 15.1315 7.95218 13.3919 8.59948C12.5965 8.92313 12.0002 9.10789 11.6523 9.20048C11.3043 9.29307 11.0559 9.33895 10.8569 9.33895C10.161 9.33895 9.81309 8.87641 9.81309 7.90547V5.63993C9.81309 4.90004 9.91263 4.34534 10.161 4.02169C10.4094 3.69804 10.8569 3.37439 11.5527 3.05074C13.2924 2.21827 15.3804 1.52468 17.8159 0.969969C20.2518 0.368967 22.8361 0.0916136 25.5702 0.0916136C31.4854 0.0916136 35.8099 1.33991 38.5933 3.83693C41.3274 6.33394 42.7191 10.1251 42.7191 15.2113V30.1926H42.8186L42.8182 30.193ZM22.6371 37.2211C24.2776 37.2211 25.9675 36.9437 27.7569 36.389C29.5463 35.8343 31.1371 34.8171 32.479 33.4299C33.2744 32.5515 33.8707 31.5802 34.1693 30.4708C34.4675 29.3609 34.6661 28.0201 34.6661 26.4481V24.5062C33.2246 24.1826 31.6836 23.9052 30.0933 23.72C28.5025 23.5353 26.9619 23.4427 25.4209 23.4427C22.0905 23.4427 19.655 24.0437 18.0145 25.2924C16.3739 26.5407 15.579 28.2978 15.579 30.6097C15.579 32.783 16.1753 34.4013 17.4182 35.5107C18.6112 36.6668 20.3509 37.2215 22.6375 37.2215L22.6371 37.2211ZM62.5514 42.2147C61.6564 42.2147 61.0601 42.0762 60.6624 41.7522C60.2647 41.4748 59.9168 40.8275 59.6187 39.9487L47.9375 4.20687C47.6394 3.28222 47.4901 2.68122 47.4901 2.35757C47.4901 1.61768 47.8878 1.20144 48.6832 1.20144H53.5546C54.4988 1.20144 55.1454 1.34033 55.4933 1.66398C55.891 1.94133 56.1892 2.58863 56.4873 3.4674L64.838 34.0768L72.5924 3.4674C72.8408 2.54275 73.1389 1.94133 73.5366 1.66398C73.9343 1.38662 74.6302 1.20144 75.5251 1.20144H79.5016C80.4458 1.20144 81.0924 1.34033 81.4901 1.66398C81.8878 1.94133 82.2357 2.58863 82.4343 3.4674L90.2878 34.4467L98.8873 3.4674C99.1855 2.54275 99.5334 1.94133 99.8813 1.66398C100.279 1.38662 100.925 1.20144 101.82 1.20144H106.443C107.238 1.20144 107.685 1.57139 107.685 2.35757C107.685 2.58863 107.636 2.8201 107.586 3.09746C107.536 3.37481 107.437 3.74475 107.238 4.25358L95.2588 39.9955C94.9606 40.9201 94.6127 41.5211 94.215 41.7989C93.8173 42.0762 93.1712 42.2614 92.326 42.2614H88.0514C87.1067 42.2614 86.4606 42.1225 86.0629 41.7989C85.6652 41.4752 85.3173 40.8742 85.1187 39.9492L77.414 10.1255L69.7592 39.9029C69.5108 40.8275 69.2122 41.4285 68.8145 41.7522C68.4168 42.0758 67.721 42.2147 66.8265 42.2147H62.5518H62.5514ZM126.424 43.463C123.839 43.463 121.255 43.1856 118.769 42.6309C116.284 42.0762 114.345 41.4748 113.053 40.7812C112.258 40.365 111.711 39.9029 111.512 39.4866C111.314 39.0704 111.214 38.6083 111.214 38.192V35.8339C111.214 34.863 111.612 34.4004 112.357 34.4004C112.656 34.4004 112.954 34.4467 113.252 34.5393C113.55 34.6319 113.997 34.8167 114.495 35.0018C116.185 35.6954 118.024 36.2501 119.962 36.6201C121.951 36.99 123.889 37.1748 125.878 37.1748C129.009 37.1748 131.445 36.666 133.135 35.6487C134.825 34.6315 135.72 33.1517 135.72 31.2561C135.72 29.9615 135.272 28.898 134.378 28.0196C133.483 27.1409 131.793 26.3551 129.357 25.6152L122.15 23.5344C118.521 22.4709 115.837 20.899 114.197 18.8182C112.557 16.7837 111.712 14.5182 111.712 12.1137C111.712 10.1718 112.159 8.46101 113.054 6.98124C113.948 5.50146 115.141 4.20687 116.632 3.18963C118.124 2.12609 119.814 1.34033 121.802 0.785205C123.791 0.230082 125.878 -0.000976562 128.065 -0.000976562C129.159 -0.000976562 130.302 0.0453185 131.396 0.183787C132.539 0.322672 133.583 0.507435 134.627 0.692198C135.621 0.923256 136.565 1.15473 137.46 1.43209C138.354 1.70944 139.05 1.98679 139.547 2.26456C140.243 2.63451 140.74 3.00445 141.038 3.42027C141.337 3.79021 141.486 4.29904 141.486 4.94634V7.1197C141.486 8.09065 141.088 8.59948 140.343 8.59948C139.945 8.59948 139.299 8.4143 138.454 8.04435C135.621 6.84235 132.439 6.24093 128.91 6.24093C126.077 6.24093 123.84 6.65717 122.299 7.53553C120.758 8.41388 119.962 9.75477 119.962 11.6508C119.962 12.9454 120.46 14.0552 121.454 14.9336C122.448 15.8119 124.287 16.6907 126.921 17.4765L133.98 19.5572C137.559 20.6208 140.144 22.1005 141.685 23.9961C143.226 25.8917 143.971 28.0651 143.971 30.4695C143.971 32.4577 143.524 34.2611 142.679 35.8331C141.784 37.4054 140.591 38.7922 139.05 39.902C137.509 41.0577 135.67 41.8902 133.533 42.4912C131.296 43.1385 128.96 43.4622 126.425 43.4622L126.424 43.463Z" fill="#252F3E"/>
<path fill-rule="evenodd" clip-rule="evenodd" d="M135.811 65.9287C119.459 77.1689 95.7007 83.1357 75.273 83.1357C46.6436 83.1357 20.8481 73.2832 1.36419 56.909C-0.176714 55.6139 1.21535 53.8561 3.05439 54.8737C24.1285 66.2525 50.1236 73.1447 77.0125 73.1447C95.1542 73.1447 115.085 69.6291 133.426 62.4131C136.159 61.2565 138.495 64.0783 135.811 65.9287Z" fill="#FF9900"/>
<path fill-rule="evenodd" clip-rule="evenodd" d="M142.646 58.7192C140.556 56.2232 128.811 57.5173 123.486 58.1184C121.893 58.3031 121.644 57.0091 123.088 56.0385C132.444 49.9377 147.822 51.6941 149.614 53.7277C151.406 55.8076 149.116 70.0892 140.357 76.9292C139.014 77.9923 137.72 77.4378 138.317 76.0512C140.308 71.4754 144.737 61.1689 142.647 58.7192H142.646Z" fill="#FF9900"/>
</g>
<defs>
<clipPath id="clip0_447_4923">
<rect width="149.452" height="83.1359" fill="white" transform="translate(0.702148)"/>
</clipPath>
</defs>
</svg>
