<svg width="89" height="88" viewBox="0 0 89 88" fill="none" xmlns="http://www.w3.org/2000/svg">
<path d="M88 0H1V87H88V0Z" fill="white"/>
<g opacity="0.1">
<path opacity="0.1" d="M87.9998 84.9402V86.9932H85.9468" stroke="#20263C" stroke-width="0.684339" stroke-miterlimit="10"/>
<path opacity="0.1" d="M81.9984 86.9931H5.03076" stroke="#20263C" stroke-width="0.684339" stroke-miterlimit="10" stroke-dasharray="3.95 3.95"/>
<path opacity="0.1" d="M3.05302 86.9932H1V84.9402" stroke="#20263C" stroke-width="0.684339" stroke-miterlimit="10"/>
<path opacity="0.1" d="M1 80.9915V4.02393" stroke="#20263C" stroke-width="0.684339" stroke-miterlimit="10" stroke-dasharray="3.95 3.95"/>
<path opacity="0.1" d="M1 2.05302V0H3.05302" stroke="#20263C" stroke-width="0.684339" stroke-miterlimit="10"/>
<path opacity="0.1" d="M7.00146 0H83.969" stroke="#20263C" stroke-width="0.684339" stroke-miterlimit="10" stroke-dasharray="3.95 3.95"/>
<path opacity="0.1" d="M85.9468 0H87.9998V2.05302" stroke="#20263C" stroke-width="0.684339" stroke-miterlimit="10"/>
<path opacity="0.1" d="M88 5.99481V82.9692" stroke="#20263C" stroke-width="0.684339" stroke-miterlimit="10" stroke-dasharray="3.95 3.95"/>
</g>
<path d="M45.1467 33.2865C46.4896 33.2878 47.8171 33.5794 49.0427 34.1422C50.2683 34.705 51.3645 35.5265 52.2597 36.553L55.0624 33.9616C53.2684 31.9155 50.9148 30.4715 48.3085 29.8181C45.7024 29.1646 42.9647 29.3321 40.4526 30.2986C37.9406 31.2651 35.7709 32.9857 34.2268 35.2359C32.6826 37.4863 31.8356 40.1616 31.7964 42.9131C31.7571 45.6644 32.5274 48.3642 34.0066 50.6598C35.486 52.9555 37.6056 54.7405 40.089 55.782C42.5723 56.8234 45.3041 57.073 47.9279 56.4981C50.5515 55.9232 52.9454 54.5504 54.797 52.5591L52.058 49.8914C50.9669 51.0617 49.61 51.9364 48.1088 52.4374C46.6076 52.9384 45.0086 53.0501 43.455 52.7624C41.9014 52.4748 40.4415 51.7968 39.2058 50.789C37.9701 49.7813 36.9971 48.4752 36.3739 46.9875C35.7506 45.4999 35.4964 43.877 35.6341 42.264C35.7719 40.6509 36.2971 39.098 37.1629 37.7441C38.0288 36.3901 39.2083 35.2773 40.596 34.5052C41.9836 33.733 43.5362 33.3255 45.1149 33.3192L45.1467 33.2865Z" fill="#0E1059"/>
<path d="M32.4797 30.0489L29.7145 27.3736C27.5544 29.437 25.8404 31.8897 24.6707 34.5908C23.5011 37.2919 22.8989 40.1882 22.8989 43.1134C22.8989 46.0385 23.5011 48.9348 24.6707 51.6359C25.8404 54.3371 27.5544 56.7898 29.7145 58.8532L32.4797 56.1779C30.6787 54.4696 29.2488 52.4352 28.2729 50.1925C27.297 47.9499 26.7945 45.5437 26.7945 43.1134C26.7945 40.683 27.297 38.2768 28.2729 36.0342C29.2488 33.7916 30.6787 31.7572 32.4797 30.0489Z" fill="#0E1059"/>
<path d="M58.4844 24.9615C54.7141 22.0769 50.1584 20.5243 45.4819 20.5302V24.4144C49.3406 24.4107 53.1004 25.6867 56.2176 28.0579L58.4844 24.9615Z" fill="#0E1059"/>
<path d="M45.4819 61.8646V65.6965C49.8564 65.7014 54.1372 64.426 57.8 62.0265L55.6484 58.8531C52.6216 60.8233 49.0899 61.8695 45.4819 61.8646Z" fill="#0E1059"/>
<path d="M45.4815 57.132C42.5182 57.13 39.627 56.2438 37.1994 54.5932C34.7717 52.9427 32.9248 50.6074 31.9085 47.9037L28.373 49.4985C29.7044 52.8561 32.0517 55.7433 35.1057 57.7796C38.1597 59.816 41.7771 60.906 45.4815 60.9062V57.132Z" fill="#0E1059"/>
<path d="M31.4645 42.429C31.694 38.829 33.2703 35.4521 35.8734 32.9833C38.4766 30.5147 41.9117 29.139 45.4818 29.1355V25.3205C40.9099 25.3204 36.513 27.0964 33.201 30.281C29.889 33.4656 27.9155 37.815 27.689 42.429H31.4645Z" fill="#0E1059"/>
</svg>
