<svg width="473" height="373" viewBox="0 0 473 373" fill="none" xmlns="http://www.w3.org/2000/svg">
<path d="M440.979 211.362C440.082 197.261 435.573 183.627 427.884 171.772C420.196 159.917 409.586 150.239 397.077 143.669C405.281 125.773 406.801 105.53 401.363 86.6094C395.925 67.6888 383.887 51.3428 367.433 40.5345C350.979 29.7262 331.196 25.171 311.672 27.6947C292.148 30.2184 274.174 39.6539 261.008 54.2908C253.032 35.102 238.097 19.6376 219.198 10.9977C200.298 2.35778 178.831 1.18113 159.101 7.7036C139.371 14.2261 122.835 27.9656 112.809 46.1676C102.783 64.3696 100.008 85.6887 105.04 105.851C102.561 105.615 99.9469 105.479 97.3572 105.479C84.5307 105.479 71.8815 108.475 60.4177 114.228C48.9539 119.981 38.9924 128.333 31.3272 138.617C23.662 148.901 18.5049 160.833 16.267 173.463C14.0292 186.093 14.7723 199.071 18.4373 211.362H440.979Z" fill="#407BFF" stroke="#263238" stroke-linecap="round" stroke-linejoin="round"/>
<path d="M18.4371 211.362H440.979C440.805 208.674 440.508 206.009 440.087 203.407H16.4917C17.0069 206.09 17.6562 208.745 18.4371 211.362Z" fill="#263238" stroke="#263238" stroke-width="0.75" stroke-linecap="round" stroke-linejoin="round"/>
<path d="M153.378 77.45L156.365 76.0869L155.733 72.5058L152.437 72.2456C152.02 71.1374 151.462 70.0878 150.776 69.123L152.486 66.2483L149.909 63.6709L147.009 65.3933C145.347 64.2588 143.464 63.4901 141.483 63.1381L140.652 59.8296H137.009L136.167 63.1504C135.035 63.3676 133.933 63.7169 132.883 64.1913L130.281 61.9361L127.295 64.0426L128.534 67.2643C127.737 68.0881 127.034 68.9983 126.44 69.978L123.02 69.6311L121.781 73.0511L124.618 74.9841C124.485 75.8035 124.419 76.6323 124.42 77.4623C124.42 77.8093 124.42 78.1439 124.42 78.4908L121.434 80.1512L122.375 83.6704H125.758C126.252 84.7273 126.876 85.7181 127.617 86.6195L126.155 89.6553L128.943 91.9973L131.656 90.0642C132.688 90.6087 133.783 91.0248 134.915 91.3034L135.448 94.5623L139.079 94.8844L140.182 91.799C141.372 91.6885 142.546 91.4347 143.676 91.0431L145.968 93.3603L149.116 91.5388L148.248 88.4038C149.182 87.6316 150.015 86.7449 150.727 85.7645L153.936 86.3469L155.472 83.0508L152.994 80.9691C153.266 79.8162 153.395 78.6343 153.378 77.45ZM147.988 77.45C147.99 79.2518 147.458 81.0138 146.459 82.5132C145.46 84.0126 144.038 85.1819 142.374 85.8731C140.71 86.5643 138.879 86.7464 137.111 86.3964C135.344 86.0464 133.72 85.18 132.445 83.9068C131.17 82.6335 130.301 81.0107 129.949 79.2437C129.596 77.4767 129.776 75.6448 130.465 73.9799C131.154 72.315 132.321 70.8918 133.819 69.8905C135.317 68.8892 137.079 68.3548 138.88 68.3548C141.284 68.3514 143.591 69.2997 145.298 70.9924C147.005 72.685 147.972 74.9844 147.988 77.388V77.45Z" fill="#263238"/>
<path d="M17.0371 173.557H83.1072L93.7637 184.213H434.263" stroke="#263238" stroke-linecap="round" stroke-linejoin="round"/>
<path d="M260.017 203.94V73.9185H337.289V29.1489" stroke="#263238" stroke-linecap="round" stroke-linejoin="round"/>
<path d="M217.689 46.0878L219.523 45.2576L219.138 43.0644L217.119 42.9033C216.861 42.2294 216.524 41.5888 216.115 40.995L217.143 39.2355L215.57 37.6618L213.81 38.715C212.791 38.026 211.639 37.5575 210.427 37.3396L209.919 35.3198H207.689L207.169 37.352C206.482 37.4855 205.812 37.6975 205.174 37.9839L203.575 36.6085L201.754 37.8476L202.509 39.8178C202.029 40.3181 201.613 40.8758 201.27 41.4783L199.176 41.2676L198.42 43.3617L200.155 44.6009C200.069 45.0876 200.028 45.5812 200.031 46.0754C200.019 46.2818 200.019 46.4887 200.031 46.695L198.197 47.7235L198.78 49.8671H200.849C201.145 50.5166 201.524 51.1248 201.977 51.6763L201.084 53.535L202.794 54.96L204.442 53.7828C205.07 54.1443 205.74 54.4273 206.437 54.6254L206.784 56.608L209.002 56.7939L209.672 54.9104C210.399 54.8487 211.115 54.6947 211.803 54.4519L213.203 55.8645L215.136 54.7617L214.603 52.8411C215.165 52.3644 215.664 51.819 216.09 51.2178L218.048 51.5771L218.99 49.5574L217.453 48.3182C217.625 47.5876 217.704 46.8382 217.689 46.0878ZM214.393 46.0878C214.393 47.1887 214.066 48.2649 213.454 49.1801C212.842 50.0953 211.973 50.8084 210.955 51.2292C209.938 51.6499 208.819 51.7593 207.739 51.5437C206.659 51.328 205.668 50.7969 204.89 50.0175C204.113 49.2382 203.584 48.2457 203.371 47.1656C203.157 46.0856 203.269 44.9665 203.692 43.9501C204.115 42.9337 204.83 42.0656 205.747 41.4558C206.664 40.8459 207.74 40.5217 208.841 40.5241C210.309 40.5241 211.718 41.1056 212.758 42.1413C213.798 43.177 214.386 44.5827 214.393 46.0507V46.0878Z" fill="#263238"/>
<path d="M245.904 71.2172L247.737 70.387L247.353 68.1937L245.334 68.0327C245.08 67.3549 244.738 66.7134 244.317 66.1244L245.358 64.3648L243.785 62.8035L242.013 63.8568C241 63.1607 239.851 62.6876 238.642 62.469L238.134 60.4492H235.904L235.383 62.4814C234.696 62.6191 234.027 62.8353 233.388 63.1257L231.79 61.7503L229.968 62.9894L230.724 64.9596C230.244 65.4599 229.828 66.0176 229.485 66.6201L227.391 66.397L226.635 68.4911L228.37 69.6683C228.285 70.1593 228.243 70.6569 228.246 71.1553C228.234 71.3616 228.234 71.5685 228.246 71.7748L226.412 72.8033L226.994 74.947H229.064C229.365 75.5933 229.744 76.2008 230.191 76.7561L229.299 78.6024L231.009 80.0398L232.657 78.8007C233.284 79.1638 233.955 79.4468 234.652 79.6433L234.987 81.6382L237.205 81.8365L237.874 79.953C238.601 79.8813 239.316 79.7232 240.005 79.4822L241.406 80.9072L243.339 79.792L242.806 77.8713C243.368 77.3994 243.867 76.8581 244.293 76.2604L246.251 76.6198L247.192 74.6L245.656 73.3609C245.824 72.6589 245.908 71.9391 245.904 71.2172ZM242.607 71.2172C242.607 72.3176 242.281 73.3933 241.67 74.3082C241.058 75.2232 240.19 75.9363 239.173 76.3574C238.156 76.7785 237.038 76.8886 235.958 76.674C234.879 76.4593 233.888 75.9294 233.11 75.1513C232.332 74.3732 231.802 73.3819 231.587 72.3026C231.372 71.2234 231.483 70.1047 231.904 69.0881C232.325 68.0714 233.038 67.2025 233.953 66.5912C234.868 65.9798 235.943 65.6535 237.044 65.6535C238.513 65.6535 239.923 66.2346 240.965 67.2699C242.007 68.3053 242.598 69.7109 242.607 71.18V71.2172Z" fill="#263238"/>
<path d="M56.9991 168.228C61.1189 168.228 64.4586 164.889 64.4586 160.769C64.4586 156.649 61.1189 153.309 56.9991 153.309C52.8793 153.309 49.5396 156.649 49.5396 160.769C49.5396 164.889 52.8793 168.228 56.9991 168.228Z" fill="#263238"/>
<path d="M56.9988 166.63C60.2357 166.63 62.8598 164.006 62.8598 160.769C62.8598 157.532 60.2357 154.908 56.9988 154.908C53.7618 154.908 51.1377 157.532 51.1377 160.769C51.1377 164.006 53.7618 166.63 56.9988 166.63Z" fill="#407BFF" stroke="#263238" stroke-linecap="round" stroke-linejoin="round"/>
<path d="M191.27 143.012H131.594V172.318H191.27V143.012Z" fill="white" stroke="#263238" stroke-width="0.75" stroke-linecap="round" stroke-linejoin="round"/>
<path d="M169.957 82.2703H110.281V203.766H169.957V82.2703Z" fill="white" stroke="#263238" stroke-width="0.75" stroke-linecap="round" stroke-linejoin="round"/>
<path d="M324.501 192.565H186.079L199.932 111.216H310.648L324.501 192.565Z" fill="white" stroke="#263238" stroke-width="0.75" stroke-linecap="round" stroke-linejoin="round"/>
<path d="M217.924 115.305H204.071V125.429H217.924V115.305Z" fill="#263238"/>
<path d="M236.04 115.305H222.187V125.429H236.04V115.305Z" fill="#263238"/>
<path d="M300.512 115.305H266.411V125.429H300.512V115.305Z" fill="#263238"/>
<path d="M335.678 122.418H174.889V203.767H335.678V122.418Z" fill="white" stroke="#263238" stroke-width="0.75" stroke-linecap="round" stroke-linejoin="round"/>
<path d="M237.106 129.692H234.975V151.537H237.106V129.692Z" fill="#263238"/>
<path d="M244.565 129.692H242.434V151.537H244.565V129.692Z" fill="#263238"/>
<path d="M252.025 129.692H249.894V151.537H252.025V129.692Z" fill="#263238"/>
<path d="M311.701 129.692H309.57V151.537H311.701V129.692Z" fill="#263238"/>
<path d="M319.173 129.692H317.042V151.537H319.173V129.692Z" fill="#263238"/>
<path d="M326.632 129.692H324.501V151.537H326.632V129.692Z" fill="#263238"/>
<path d="M335.678 148.34H174.889V166.989H335.678V148.34Z" fill="white" stroke="#263238" stroke-width="0.75" stroke-linecap="round" stroke-linejoin="round"/>
<path d="M241.901 151.537H237.105V156.333H241.901V151.537Z" fill="#263238"/>
<path d="M252.297 151.537H247.502V156.333H252.297V151.537Z" fill="#263238"/>
<path d="M262.681 151.537H257.886V156.333H262.681V151.537Z" fill="#263238"/>
<path d="M241.901 159.27H237.105V164.065H241.901V159.27Z" fill="#263238"/>
<path d="M252.297 159.27H247.502V164.065H252.297V159.27Z" fill="#263238"/>
<path d="M262.681 159.27H257.886V164.065H262.681V159.27Z" fill="#263238"/>
<path d="M143.589 168.86H138.793V173.656H143.589V168.86Z" fill="#263238"/>
<path d="M153.973 168.86H149.177V173.656H153.973V168.86Z" fill="#263238"/>
<path d="M164.369 168.86H159.574V173.656H164.369V168.86Z" fill="#263238"/>
<path d="M310.375 159.27H305.58V164.065H310.375V159.27Z" fill="#263238"/>
<path d="M320.759 159.27H315.963V164.065H320.759V159.27Z" fill="#263238"/>
<path d="M331.155 159.27H326.36V164.065H331.155V159.27Z" fill="#263238"/>
<path d="M335.678 166.989H174.889V174.449H335.678V166.989Z" fill="#263238" stroke="#263238" stroke-width="0.75" stroke-linecap="round" stroke-linejoin="round"/>
<path d="M165.707 119.568C165.707 120.095 165.551 120.61 165.258 121.048C164.965 121.486 164.549 121.828 164.063 122.029C163.576 122.231 163.04 122.284 162.523 122.181C162.007 122.078 161.532 121.824 161.159 121.452C160.787 121.079 160.533 120.604 160.43 120.088C160.327 119.571 160.38 119.035 160.582 118.548C160.783 118.062 161.125 117.646 161.563 117.353C162.001 117.06 162.516 116.904 163.043 116.904C163.75 116.904 164.427 117.184 164.927 117.684C165.426 118.184 165.707 118.861 165.707 119.568Z" fill="#263238"/>
<path d="M146.352 89.8289C146.352 90.3558 146.196 90.8709 145.903 91.309C145.61 91.7471 145.194 92.0886 144.708 92.2902C144.221 92.4919 143.685 92.5446 143.168 92.4418C142.652 92.339 142.177 92.0853 141.804 91.7127C141.432 91.3401 141.178 90.8654 141.075 90.3487C140.972 89.8319 141.025 89.2962 141.227 88.8094C141.428 88.3226 141.77 87.9065 142.208 87.6138C142.646 87.321 143.161 87.1648 143.688 87.1648C144.395 87.1648 145.072 87.4455 145.572 87.9451C146.071 88.4447 146.352 89.1223 146.352 89.8289Z" fill="#263238"/>
<path d="M165.707 89.8289C165.707 90.3558 165.551 90.8709 165.258 91.309C164.965 91.7471 164.549 92.0886 164.063 92.2902C163.576 92.4919 163.04 92.5446 162.523 92.4418C162.007 92.339 161.532 92.0853 161.159 91.7127C160.787 91.3401 160.533 90.8654 160.43 90.3487C160.327 89.8319 160.38 89.2962 160.582 88.8094C160.783 88.3226 161.125 87.9065 161.563 87.6138C162.001 87.321 162.516 87.1648 163.043 87.1648C163.749 87.1681 164.424 87.4498 164.923 87.9487C165.422 88.4476 165.704 89.1233 165.707 89.8289Z" fill="#263238"/>
<path d="M165.707 134.487C165.707 135.014 165.551 135.529 165.258 135.967C164.965 136.405 164.549 136.747 164.063 136.948C163.576 137.15 163.04 137.203 162.523 137.1C162.007 136.997 161.532 136.743 161.159 136.371C160.787 135.998 160.533 135.523 160.43 135.007C160.327 134.49 160.38 133.954 160.582 133.467C160.783 132.981 161.125 132.564 161.563 132.272C162.001 131.979 162.516 131.823 163.043 131.823C163.75 131.823 164.427 132.103 164.927 132.603C165.426 133.103 165.707 133.78 165.707 134.487Z" fill="#263238"/>
<path d="M165.707 149.406C165.707 149.933 165.551 150.448 165.258 150.886C164.965 151.324 164.549 151.666 164.063 151.867C163.576 152.069 163.04 152.122 162.523 152.019C162.007 151.916 161.532 151.662 161.159 151.29C160.787 150.917 160.533 150.443 160.43 149.926C160.327 149.409 160.38 148.873 160.582 148.387C160.783 147.9 161.125 147.484 161.563 147.191C162.001 146.898 162.516 146.742 163.043 146.742C163.75 146.742 164.427 147.023 164.927 147.522C165.426 148.022 165.707 148.699 165.707 149.406Z" fill="#263238"/>
<path d="M195.545 134.487C195.545 133.017 195.109 131.579 194.292 130.356C193.475 129.134 192.314 128.181 190.956 127.618C189.597 127.055 188.102 126.908 186.66 127.195C185.218 127.482 183.893 128.19 182.853 129.23C181.814 130.27 181.106 131.594 180.819 133.037C180.532 134.479 180.679 135.974 181.242 137.332C181.804 138.691 182.757 139.852 183.98 140.669C185.203 141.486 186.64 141.922 188.111 141.922C190.082 141.922 191.973 141.138 193.368 139.744C194.762 138.35 195.545 136.459 195.545 134.487Z" fill="#263238"/>
<path d="M193.947 134.487C193.947 133.328 193.603 132.195 192.959 131.231C192.315 130.267 191.4 129.516 190.329 129.072C189.258 128.629 188.079 128.512 186.942 128.739C185.805 128.965 184.761 129.523 183.941 130.343C183.122 131.162 182.563 132.207 182.337 133.344C182.111 134.481 182.227 135.659 182.671 136.73C183.114 137.801 183.866 138.716 184.829 139.36C185.793 140.004 186.926 140.348 188.086 140.348C189.64 140.348 191.131 139.731 192.23 138.631C193.329 137.532 193.947 136.041 193.947 134.487Z" fill="white" stroke="#263238" stroke-width="0.75" stroke-linecap="round" stroke-linejoin="round"/>
<path d="M153.973 147.275C153.973 145.804 153.536 144.367 152.72 143.144C151.903 141.922 150.741 140.969 149.383 140.406C148.024 139.843 146.53 139.696 145.087 139.983C143.645 140.27 142.32 140.978 141.281 142.018C140.241 143.057 139.533 144.382 139.246 145.824C138.959 147.267 139.106 148.761 139.669 150.12C140.232 151.479 141.185 152.64 142.407 153.457C143.63 154.274 145.067 154.71 146.538 154.71C148.51 154.71 150.401 153.926 151.795 152.532C153.189 151.138 153.973 149.247 153.973 147.275Z" fill="#263238"/>
<path d="M152.374 147.275C152.374 146.115 152.031 144.982 151.387 144.018C150.743 143.055 149.827 142.303 148.756 141.86C147.685 141.416 146.507 141.3 145.37 141.526C144.233 141.752 143.189 142.311 142.369 143.13C141.549 143.95 140.991 144.994 140.765 146.131C140.539 147.268 140.655 148.447 141.098 149.518C141.542 150.589 142.293 151.504 143.257 152.148C144.221 152.792 145.354 153.136 146.513 153.136C148.068 153.136 149.559 152.518 150.658 151.419C151.757 150.32 152.374 148.829 152.374 147.275Z" fill="white" stroke="#263238" stroke-width="0.75" stroke-linecap="round" stroke-linejoin="round"/>
<path d="M168.371 163.792H124.667V201.09" stroke="#263238" stroke-width="0.75" stroke-linecap="round" stroke-linejoin="round"/>
<path d="M166.773 97.1893H139.586L128.67 86.2603H112.945" stroke="#263238" stroke-width="0.75" stroke-linecap="round" stroke-linejoin="round"/>
<path d="M258.952 131.29H269.075" stroke="#263238" stroke-width="0.75" stroke-linecap="round" stroke-linejoin="round"/>
<path d="M258.952 135.553H269.075" stroke="#263238" stroke-width="0.75" stroke-linecap="round" stroke-linejoin="round"/>
<path d="M258.952 139.815H269.075" stroke="#263238" stroke-width="0.75" stroke-linecap="round" stroke-linejoin="round"/>
<path d="M363.744 95.2068C362.751 94.9507 361.701 95.0209 360.751 95.4069C359.8 95.7929 358.999 96.4743 358.466 97.3505C356.508 100.473 358.664 108.094 359.445 110.051C360.225 112.009 363.348 110.832 363.348 110.832L364.327 113.31L367.065 112.926V109.407C368.254 106.568 368.788 103.497 368.626 100.423C368.23 95.7892 364.909 95.2068 363.744 95.2068Z" fill="white" stroke="#263238" stroke-width="0.75" stroke-linecap="round" stroke-linejoin="round"/>
<path d="M363.372 129.692L349.37 130.076L365.095 131.996L363.372 129.692Z" fill="white" stroke="#263238" stroke-width="0.75" stroke-linecap="round" stroke-linejoin="round"/>
<path d="M358.664 161.996C358.664 161.996 358.032 176.369 357.635 182.032C357.239 187.695 357.053 200.78 357.053 200.78H358.614L361.737 176.568L363.546 161.797L358.664 161.996Z" fill="white" stroke="#263238" stroke-width="0.75" stroke-linecap="round" stroke-linejoin="round"/>
<path d="M365.107 161.797L367.994 183.209L376.185 200.78H377.758L371.303 182.231L370.77 161.996L365.107 161.797Z" fill="white" stroke="#263238" stroke-width="0.75" stroke-linecap="round" stroke-linejoin="round"/>
<path d="M357.053 200.78L352.951 205.278L358.614 203.135V200.78H357.053Z" fill="white" stroke="#263238" stroke-width="0.75" stroke-linecap="round" stroke-linejoin="round"/>
<path d="M376.185 200.78L372.083 205.278L377.759 203.135V200.78H376.185Z" fill="white" stroke="#263238" stroke-width="0.75" stroke-linecap="round" stroke-linejoin="round"/>
<path d="M364.327 113.36C364.327 113.36 359.828 122.344 359.828 123.521C359.828 124.698 363.149 131.141 363.149 131.141L357.276 171.549H373.285L371.947 150.273C372.48 146.429 372.278 142.519 371.352 138.75C369.791 133.682 368.428 130.162 368.428 130.162L370.373 121.563L367.065 112.976L364.327 113.36Z" fill="#263238" stroke="#263238" stroke-width="0.75" stroke-linecap="round" stroke-linejoin="round"/>
<path d="M368.626 100.473C368.23 95.7891 364.909 95.2068 363.744 95.2068C362.751 94.9507 361.701 95.0209 360.751 95.4069C359.8 95.7929 358.999 96.4743 358.465 97.3505C358.236 97.738 358.061 98.1548 357.945 98.5896C358.51 98.1564 359.215 97.9483 359.925 98.0055C360.635 98.0627 361.298 98.3813 361.786 98.8994C363.93 101.043 361.786 102.418 362.765 103.583C363.744 104.748 366.086 103.782 365.689 105.739C365.465 106.413 365.483 107.144 365.738 107.806C365.994 108.468 366.471 109.021 367.09 109.37C368.262 106.557 368.787 103.516 368.626 100.473Z" fill="#263238" stroke="#263238" stroke-width="0.75" stroke-linecap="round" stroke-linejoin="round"/>
<path d="M375.85 101.217C375.85 101.952 375.632 102.671 375.224 103.282C374.815 103.893 374.235 104.37 373.555 104.651C372.876 104.932 372.129 105.006 371.408 104.863C370.687 104.719 370.024 104.365 369.504 103.845C368.984 103.325 368.63 102.663 368.487 101.942C368.344 101.221 368.417 100.473 368.698 99.7941C368.98 99.1148 369.456 98.5342 370.068 98.1258C370.679 97.7173 371.398 97.4993 372.133 97.4993C373.119 97.4993 374.064 97.8909 374.761 98.5881C375.459 99.2852 375.85 100.231 375.85 101.217Z" fill="#263238" stroke="#263238" stroke-width="0.75" stroke-linecap="round" stroke-linejoin="round"/>
<path d="M343.422 125.095L351.861 139.282L353.211 138.514L344.773 124.14L343.422 125.095Z" fill="white" stroke="#263238" stroke-width="0.75" stroke-linecap="round" stroke-linejoin="round"/>
<path d="M367.449 118.056C367.18 117.943 366.888 117.896 366.598 117.918C366.307 117.94 366.026 118.032 365.778 118.184C365.529 118.337 365.321 118.547 365.17 118.796C365.019 119.045 364.929 119.327 364.909 119.618C364.525 121.959 362.963 132.504 362.963 132.504H347.14L348.701 133.867L365.491 135.825L368.428 122.195C368.65 121.863 368.802 121.489 368.873 121.097C368.944 120.704 368.934 120.3 368.842 119.912C368.75 119.523 368.579 119.158 368.339 118.839C368.099 118.519 367.796 118.253 367.449 118.056Z" fill="white" stroke="#263238" stroke-width="0.75" stroke-linecap="round" stroke-linejoin="round"/>
<path d="M294.44 139.518H290.115V146.915H294.44V139.518Z" fill="white" stroke="#263238" stroke-width="0.75" stroke-linecap="round" stroke-linejoin="round"/>
<path d="M288.542 136.147H286.794V139.642H288.542V136.147Z" fill="white" stroke="#263238" stroke-width="0.75" stroke-linecap="round" stroke-linejoin="round"/>
<path d="M297.538 136.147H295.791V139.642H297.538V136.147Z" fill="white" stroke="#263238" stroke-width="0.75" stroke-linecap="round" stroke-linejoin="round"/>
<path d="M292.16 130.497H292.148C290.005 130.497 288.269 132.234 288.269 134.376V140.274C288.269 142.416 290.005 144.152 292.148 144.152H292.16C294.302 144.152 296.038 142.416 296.038 140.274V134.376C296.038 132.234 294.302 130.497 292.16 130.497Z" fill="#263238" stroke="#263238" stroke-width="0.75" stroke-linecap="round" stroke-linejoin="round"/>
<path d="M281.132 175.552L274.527 176.382L276.584 202.813H278.443L279.063 182.776L283.61 182.417L281.132 175.552Z" fill="white" stroke="#263238" stroke-width="0.75" stroke-linecap="round" stroke-linejoin="round"/>
<path d="M302.197 175.552L308.802 176.382L306.745 202.813H304.886L304.266 182.776L299.719 182.417L302.197 175.552Z" fill="white" stroke="#263238" stroke-width="0.75" stroke-linecap="round" stroke-linejoin="round"/>
<path d="M278.034 145.243H305.914L299.409 182.416H283.61L278.034 145.243Z" fill="#407BFF" stroke="#263238" stroke-width="0.75" stroke-linecap="round" stroke-linejoin="round"/>
<path d="M278.034 145.243L270.451 158.873L267.663 153.607L265.953 154.078L269.521 164.759L279.273 155.317L278.034 145.243Z" fill="#407BFF" stroke="#263238" stroke-width="0.75" stroke-linecap="round" stroke-linejoin="round"/>
<path d="M305.914 145.243L313.993 145.441L316.93 138.626L318.628 139.097L315.072 149.778L304.056 155.465L305.914 145.243Z" fill="#407BFF" stroke="#263238" stroke-width="0.75" stroke-linecap="round" stroke-linejoin="round"/>
<path d="M267.663 153.607L268.741 152.839V151.129L268.406 151.054L267.873 151.723L266.572 149.431L264.974 150.67L265.953 154.078L267.663 153.607Z" fill="white" stroke="#263238" stroke-width="0.75" stroke-linecap="round" stroke-linejoin="round"/>
<path d="M316.93 138.626L315.84 137.858V136.148L316.174 136.086L316.707 136.742L318.008 134.45L319.619 135.689L318.628 139.097L316.93 138.626Z" fill="white" stroke="#263238" stroke-width="0.75" stroke-linecap="round" stroke-linejoin="round"/>
<path d="M293.263 183.817H289.905V197.658H293.263V183.817Z" fill="white" stroke="#263238" stroke-width="0.75" stroke-linecap="round" stroke-linejoin="round"/>
<path d="M310.487 204.262L294.068 200.855V189.802H289.112V200.855L272.693 204.262V206.319L290.351 203.581V206.542H292.829V203.593L310.487 206.331V204.262Z" fill="#263238" stroke="#263238" stroke-width="0.75" stroke-linecap="round" stroke-linejoin="round"/>
<path d="M302.011 184.634H281.107L278.654 152.838H304.465L302.011 184.634Z" fill="#263238" stroke="#263238" stroke-width="0.75" stroke-linecap="round" stroke-linejoin="round"/>
<path d="M296.41 143.545H287.947V145.193H296.41V143.545Z" fill="white" stroke="#263238" stroke-width="0.75" stroke-linecap="round" stroke-linejoin="round"/>
<path d="M207.491 139.518H203.166V146.915H207.491V139.518Z" fill="white" stroke="#263238" stroke-width="0.75" stroke-linecap="round" stroke-linejoin="round"/>
<path d="M201.592 136.147H199.845V139.642H201.592V136.147Z" fill="white" stroke="#263238" stroke-width="0.75" stroke-linecap="round" stroke-linejoin="round"/>
<path d="M210.588 136.147H208.841V139.642H210.588V136.147Z" fill="white" stroke="#263238" stroke-width="0.75" stroke-linecap="round" stroke-linejoin="round"/>
<path d="M205.198 144.152C204.169 144.152 203.183 143.744 202.455 143.016C201.728 142.289 201.319 141.302 201.319 140.274V134.388C201.319 133.358 201.728 132.37 202.455 131.641C203.182 130.912 204.168 130.5 205.198 130.497C206.229 130.5 207.216 130.911 207.945 131.64C208.674 132.369 209.085 133.357 209.089 134.388V140.274C209.085 141.304 208.674 142.29 207.945 143.017C207.215 143.744 206.228 144.152 205.198 144.152Z" fill="#263238" stroke="#263238" stroke-width="0.75" stroke-linecap="round" stroke-linejoin="round"/>
<path d="M194.182 175.552L187.578 176.382L189.647 202.813H191.506L192.125 182.776L196.66 182.417L194.182 175.552Z" fill="white" stroke="#263238" stroke-width="0.75" stroke-linecap="round" stroke-linejoin="round"/>
<path d="M215.247 175.552L221.864 176.382L219.795 202.813H217.936L217.317 182.776L212.769 182.417L215.247 175.552Z" fill="white" stroke="#263238" stroke-width="0.75" stroke-linecap="round" stroke-linejoin="round"/>
<path d="M191.084 145.243H218.965L212.459 182.416H196.661L191.084 145.243Z" fill="#407BFF" stroke="#263238" stroke-width="0.75" stroke-linecap="round" stroke-linejoin="round"/>
<path d="M191.084 145.243L183.501 158.873L180.713 153.607L179.003 154.078L182.572 164.759L192.324 155.317L191.084 145.243Z" fill="#407BFF" stroke="#263238" stroke-width="0.75" stroke-linecap="round" stroke-linejoin="round"/>
<path d="M218.965 145.243L226.56 158.873L229.348 153.607L231.046 154.078L227.49 164.759L217.106 155.465L218.965 145.243Z" fill="#407BFF" stroke="#263238" stroke-width="0.75" stroke-linecap="round" stroke-linejoin="round"/>
<path d="M180.713 153.607L181.791 152.839V151.129L181.456 151.054L180.936 151.723L179.622 149.431L178.024 150.67L179.003 154.078L180.713 153.607Z" fill="white" stroke="#263238" stroke-width="0.75" stroke-linecap="round" stroke-linejoin="round"/>
<path d="M229.348 153.607L228.258 152.839V151.129L228.592 151.054L229.125 151.723L230.426 149.431L232.025 150.67L231.046 154.078L229.348 153.607Z" fill="white" stroke="#263238" stroke-width="0.75" stroke-linecap="round" stroke-linejoin="round"/>
<path d="M206.325 183.817H202.967V197.658H206.325V183.817Z" fill="white" stroke="#263238" stroke-width="0.75" stroke-linecap="round" stroke-linejoin="round"/>
<path d="M223.537 204.262L207.118 200.855V189.802H202.162V200.855L185.719 204.262V206.319L203.376 203.581V206.542H205.855V203.593L223.512 206.331L223.537 204.262Z" fill="#263238" stroke="#263238" stroke-width="0.75" stroke-linecap="round" stroke-linejoin="round"/>
<path d="M215.074 184.634H194.158L191.704 152.838H217.527L215.074 184.634Z" fill="#263238" stroke="#263238" stroke-width="0.75" stroke-linecap="round" stroke-linejoin="round"/>
<path d="M209.46 143.545H200.997V145.193H209.46V143.545Z" fill="white" stroke="#263238" stroke-width="0.75" stroke-linecap="round" stroke-linejoin="round"/>
<path d="M118.038 102.456V96.1238C118.033 95.2219 118.325 94.3436 118.869 93.6245C119.414 92.9055 120.18 92.3859 121.049 92.1462C121.812 91.9519 122.593 91.8316 123.379 91.7868C124.56 91.6915 125.738 92.0103 126.711 92.6886C127.683 93.3668 128.389 94.3623 128.707 95.5042C129.327 97.1398 128.707 105.962 128.707 105.962C128.375 106.384 127.906 106.677 127.381 106.79C126.856 106.903 126.309 106.83 125.832 106.582V108.651H118.249L118.038 102.456Z" fill="white" stroke="#263238" stroke-width="0.75" stroke-linecap="round" stroke-linejoin="round"/>
<path d="M128.719 95.467C128.399 94.3264 127.692 93.3323 126.721 92.6544C125.749 91.9765 124.572 91.6567 123.391 91.7497C122.605 91.7945 121.825 91.9148 121.061 92.109C120.192 92.3487 119.426 92.8684 118.882 93.5874C118.337 94.3064 118.045 95.1848 118.05 96.0866V102.456L118.137 105.107C118.91 105.603 119.798 105.889 120.714 105.938C121.734 106.068 122.77 105.95 123.735 105.594C124.699 105.238 125.563 104.655 126.253 103.893L124.618 102.865L123.8 99.1472L125.646 98.7383L126.253 101.402H127.282L127.084 98.3294H128.323L128.719 95.467Z" fill="#263238" stroke="#263238" stroke-width="0.75" stroke-linecap="round" stroke-linejoin="round"/>
<path d="M127.468 108.18H115.981V111.055H127.468V108.18Z" fill="white" stroke="#263238" stroke-width="0.75" stroke-linecap="round" stroke-linejoin="round"/>
<path d="M106.142 129.518L112.09 121.315L115.163 137.734H130.962L133.217 122.554L143.068 125.417L150.664 106.136L148.607 105.516L141.433 118.032L133.428 110.436H111.062L101.421 128.291L110.033 144.09L111.88 143.471L106.142 129.518Z" fill="#407BFF" stroke="#263238" stroke-width="0.75" stroke-linecap="round" stroke-linejoin="round"/>
<path d="M115.163 137.734L114.544 145.937L108.596 202.775H110.863L122.759 150.459H124.196L137.319 201.957H139.995L131.78 144.301L130.962 137.734H115.163Z" fill="#263238" stroke="#263238" stroke-width="0.75" stroke-linecap="round" stroke-linejoin="round"/>
<path d="M148.607 105.516L151.482 97.7222L152.511 97.9204L152.102 99.9774L154.555 101.204L153.539 104.897H152.3L150.664 106.136L148.607 105.516Z" fill="white" stroke="#263238" stroke-width="0.75" stroke-linecap="round" stroke-linejoin="round"/>
<path d="M111.88 143.471L113.936 148.018L112.09 149.034L110.033 144.09L111.88 143.471Z" fill="white" stroke="#263238" stroke-width="0.75" stroke-linecap="round" stroke-linejoin="round"/>
<path d="M139.995 201.958L144.754 205.278H137.517L137.319 201.958H139.995Z" fill="white" stroke="#263238" stroke-width="0.75" stroke-linecap="round" stroke-linejoin="round"/>
<path d="M108.485 201.958L103.739 205.278H110.963L111.161 201.958H108.485Z" fill="white" stroke="#263238" stroke-width="0.75" stroke-linecap="round" stroke-linejoin="round"/>
<path d="M257.105 275.933H341.366V351.519H257.105C256.573 351.519 256.062 351.308 255.686 350.932C255.309 350.555 255.098 350.045 255.098 349.512V277.891C255.111 277.367 255.328 276.869 255.703 276.503C256.078 276.137 256.581 275.933 257.105 275.933Z" fill="white" stroke="#263238" stroke-linecap="round" stroke-linejoin="round"/>
<path d="M344.265 275.908H257.365V351.557H344.265V275.908Z" fill="#263238" stroke="#263238" stroke-linecap="round" stroke-linejoin="round"/>
<path d="M339.519 281.906H264.057V345.572H339.519V281.906Z" fill="white" stroke="#263238" stroke-linecap="round" stroke-linejoin="round"/>
<path d="M269.794 340.727H291.379V286.751H269.794V340.727Z" fill="white" stroke="#263238" stroke-linecap="round" stroke-linejoin="round"/>
<path d="M269.794 340.739H333.77V290.964H269.794V340.739Z" fill="white" stroke="#263238" stroke-linecap="round" stroke-linejoin="round"/>
<path d="M273.127 338.149H330.449V293.553H273.127V338.149Z" fill="#407BFF" stroke="#263238" stroke-linecap="round" stroke-linejoin="round"/>
<path d="M275.63 308.101H286.311" stroke="#263238" stroke-linecap="round" stroke-linejoin="round"/>
<path d="M275.63 311.347H286.311" stroke="#263238" stroke-linecap="round" stroke-linejoin="round"/>
<path d="M275.63 314.581H286.311" stroke="#263238" stroke-linecap="round" stroke-linejoin="round"/>
<path d="M275.63 320.083H322.556" stroke="#263238" stroke-linecap="round" stroke-linejoin="round"/>
<path d="M275.63 324.284H322.556" stroke="#263238" stroke-linecap="round" stroke-linejoin="round"/>
<path d="M275.63 328.497H322.556" stroke="#263238" stroke-linecap="round" stroke-linejoin="round"/>
<path d="M257.365 351.569L307.996 368.334H396.804L344.265 351.569H257.365Z" fill="white" stroke="#263238" stroke-linecap="round" stroke-linejoin="round"/>
<path d="M320.598 358.025L313.275 355.683L309.681 355.646L316.98 358L320.598 358.025Z" fill="white" stroke="#263238" stroke-width="0.25" stroke-linecap="round" stroke-linejoin="round"/>
<path d="M327.748 358.087L320.4 355.757L316.843 355.72L324.191 358.05L327.748 358.087Z" fill="white" stroke="#263238" stroke-width="0.25" stroke-linecap="round" stroke-linejoin="round"/>
<path d="M352.84 360.565L356.272 360.578L348.627 358.236L345.207 358.211L352.84 360.565Z" fill="white" stroke="#263238" stroke-width="0.25" stroke-linecap="round" stroke-linejoin="round"/>
<path d="M316.98 358L309.681 355.646L306.063 355.621L313.337 357.975L316.98 358Z" fill="white" stroke="#263238" stroke-width="0.25" stroke-linecap="round" stroke-linejoin="round"/>
<path d="M309.669 357.951L302.408 355.584L298.74 355.547L305.976 357.926L309.669 357.951Z" fill="white" stroke="#263238" stroke-width="0.25" stroke-linecap="round" stroke-linejoin="round"/>
<path d="M341.762 358.186L334.339 355.881L330.882 355.856L338.292 358.161L341.762 358.186Z" fill="white" stroke="#263238" stroke-width="0.25" stroke-linecap="round" stroke-linejoin="round"/>
<path d="M345.207 358.211L337.76 355.919L334.34 355.881L341.762 358.186L345.207 358.211Z" fill="white" stroke="#263238" stroke-width="0.25" stroke-linecap="round" stroke-linejoin="round"/>
<path d="M305.976 357.926L298.74 355.547L295.035 355.51L302.259 357.889L305.976 357.926Z" fill="white" stroke="#263238" stroke-width="0.25" stroke-linecap="round" stroke-linejoin="round"/>
<path d="M331.291 358.112L323.919 355.782L320.399 355.757L327.747 358.087L331.291 358.112Z" fill="white" stroke="#263238" stroke-width="0.25" stroke-linecap="round" stroke-linejoin="round"/>
<path d="M348.627 358.236L341.155 355.956L337.76 355.918L345.207 358.211L348.627 358.236Z" fill="white" stroke="#263238" stroke-width="0.25" stroke-linecap="round" stroke-linejoin="round"/>
<path d="M338.293 358.161L330.883 355.857L327.413 355.819L334.811 358.136L338.293 358.161Z" fill="white" stroke="#263238" stroke-width="0.25" stroke-linecap="round" stroke-linejoin="round"/>
<path d="M334.81 358.137L327.413 355.819L323.918 355.782L331.291 358.112L334.81 358.137Z" fill="white" stroke="#263238" stroke-width="0.25" stroke-linecap="round" stroke-linejoin="round"/>
<path d="M324.191 358.05L316.843 355.72L313.274 355.683L320.598 358.025L324.191 358.05Z" fill="white" stroke="#263238" stroke-width="0.25" stroke-linecap="round" stroke-linejoin="round"/>
<path d="M298.504 357.864L294.725 357.839L302.098 360.305L305.89 360.33L298.504 357.864Z" fill="white" stroke="#263238" stroke-width="0.25" stroke-linecap="round" stroke-linejoin="round"/>
<path d="M291.305 355.472L287.563 355.435L294.725 357.839L298.504 357.864L291.305 355.472Z" fill="white" stroke="#263238" stroke-width="0.25" stroke-linecap="round" stroke-linejoin="round"/>
<path d="M302.259 357.889L295.034 355.51L291.305 355.472L298.504 357.864L302.259 357.889Z" fill="white" stroke="#263238" stroke-width="0.25" stroke-linecap="round" stroke-linejoin="round"/>
<path d="M309.644 362.833L317.413 365.435H321.255L313.473 362.845L309.644 362.833Z" fill="white" stroke="#263238" stroke-width="0.25" stroke-linecap="round" stroke-linejoin="round"/>
<path d="M305.889 360.33L302.098 360.305L309.644 362.833L313.473 362.845L305.889 360.33Z" fill="white" stroke="#263238" stroke-width="0.25" stroke-linecap="round" stroke-linejoin="round"/>
<path d="M313.473 362.845L321.254 365.435H325.071L317.264 362.858L313.473 362.845Z" fill="white" stroke="#263238" stroke-width="0.25" stroke-linecap="round" stroke-linejoin="round"/>
<path d="M313.337 357.975L306.063 355.621L302.408 355.584L309.669 357.951L313.337 357.975Z" fill="white" stroke="#263238" stroke-width="0.25" stroke-linecap="round" stroke-linejoin="round"/>
<path d="M320.809 360.404L313.337 357.975L309.669 357.951L317.116 360.379L320.809 360.404Z" fill="white" stroke="#263238" stroke-width="0.25" stroke-linecap="round" stroke-linejoin="round"/>
<path d="M317.116 360.379L309.669 357.951L305.976 357.926L313.398 360.367L317.116 360.379Z" fill="white" stroke="#263238" stroke-width="0.25" stroke-linecap="round" stroke-linejoin="round"/>
<path d="M324.476 360.416L316.979 358L313.336 357.975L320.808 360.404L324.476 360.416Z" fill="white" stroke="#263238" stroke-width="0.25" stroke-linecap="round" stroke-linejoin="round"/>
<path d="M302.259 357.889L298.504 357.864L305.89 360.33L309.657 360.342L302.259 357.889Z" fill="white" stroke="#263238" stroke-width="0.25" stroke-linecap="round" stroke-linejoin="round"/>
<path d="M360.671 362.969L364.116 362.981L356.272 360.578L352.84 360.565L360.671 362.969Z" fill="white" stroke="#263238" stroke-width="0.25" stroke-linecap="round" stroke-linejoin="round"/>
<path d="M313.399 360.367L305.976 357.926L302.259 357.889L309.656 360.342L313.399 360.367Z" fill="white" stroke="#263238" stroke-width="0.25" stroke-linecap="round" stroke-linejoin="round"/>
<path d="M305.89 360.33L313.473 362.845L317.265 362.858L309.657 360.342L305.89 360.33Z" fill="white" stroke="#263238" stroke-width="0.25" stroke-linecap="round" stroke-linejoin="round"/>
<path d="M345.901 360.528L338.292 358.161L334.811 358.136L342.394 360.503L345.901 360.528Z" fill="white" stroke="#263238" stroke-width="0.25" stroke-linecap="round" stroke-linejoin="round"/>
<path d="M342.394 360.503L334.811 358.137L331.292 358.112L338.85 360.491L342.394 360.503Z" fill="white" stroke="#263238" stroke-width="0.25" stroke-linecap="round" stroke-linejoin="round"/>
<path d="M352.84 360.565L345.207 358.211L341.762 358.186L349.383 360.54L352.84 360.565Z" fill="white" stroke="#263238" stroke-width="0.25" stroke-linecap="round" stroke-linejoin="round"/>
<path d="M331.713 360.454L324.191 358.05L320.598 358.025L328.107 360.429L331.713 360.454Z" fill="white" stroke="#263238" stroke-width="0.25" stroke-linecap="round" stroke-linejoin="round"/>
<path d="M338.85 360.491L331.291 358.112L327.748 358.087L335.294 360.466L338.85 360.491Z" fill="white" stroke="#263238" stroke-width="0.25" stroke-linecap="round" stroke-linejoin="round"/>
<path d="M335.294 360.466L327.748 358.087L324.191 358.05L331.713 360.454L335.294 360.466Z" fill="white" stroke="#263238" stroke-width="0.25" stroke-linecap="round" stroke-linejoin="round"/>
<path d="M328.107 360.429L320.598 358.025L316.979 358L324.476 360.417L328.107 360.429Z" fill="white" stroke="#263238" stroke-width="0.25" stroke-linecap="round" stroke-linejoin="round"/>
<path d="M338.85 360.491L346.619 362.932L350.163 362.944L342.394 360.503L338.85 360.491Z" fill="white" stroke="#263238" stroke-width="0.25" stroke-linecap="round" stroke-linejoin="round"/>
<path d="M342.394 360.503L350.163 362.944L353.695 362.957L345.901 360.528L342.394 360.503Z" fill="white" stroke="#263238" stroke-width="0.25" stroke-linecap="round" stroke-linejoin="round"/>
<path d="M309.656 360.342L317.264 362.858L321.031 362.87L313.398 360.367L309.656 360.342Z" fill="white" stroke="#263238" stroke-width="0.25" stroke-linecap="round" stroke-linejoin="round"/>
<path d="M345.901 360.528L353.695 362.957H357.189L349.383 360.54L345.901 360.528Z" fill="white" stroke="#263238" stroke-width="0.25" stroke-linecap="round" stroke-linejoin="round"/>
<path d="M331.713 360.454L339.445 362.907L343.038 362.919L335.294 360.466L331.713 360.454Z" fill="white" stroke="#263238" stroke-width="0.25" stroke-linecap="round" stroke-linejoin="round"/>
<path d="M349.383 360.541L357.189 362.957L360.671 362.969L352.84 360.565L349.383 360.541Z" fill="white" stroke="#263238" stroke-width="0.25" stroke-linecap="round" stroke-linejoin="round"/>
<path d="M335.294 360.466L343.038 362.92L346.62 362.932L338.85 360.491L335.294 360.466Z" fill="white" stroke="#263238" stroke-width="0.25" stroke-linecap="round" stroke-linejoin="round"/>
<path d="M317.116 360.379L324.761 362.882H328.478L320.808 360.404L317.116 360.379Z" fill="white" stroke="#263238" stroke-width="0.25" stroke-linecap="round" stroke-linejoin="round"/>
<path d="M313.398 360.367L321.031 362.87L324.761 362.882L317.116 360.379L313.398 360.367Z" fill="white" stroke="#263238" stroke-width="0.25" stroke-linecap="round" stroke-linejoin="round"/>
<path d="M328.107 360.429L335.814 362.907H339.445L331.713 360.454L328.107 360.429Z" fill="white" stroke="#263238" stroke-width="0.25" stroke-linecap="round" stroke-linejoin="round"/>
<path d="M324.476 360.417L332.159 362.895L335.814 362.907L328.107 360.429L324.476 360.417Z" fill="white" stroke="#263238" stroke-width="0.25" stroke-linecap="round" stroke-linejoin="round"/>
<path d="M320.809 360.404L328.479 362.882L332.159 362.895L324.476 360.416L320.809 360.404Z" fill="white" stroke="#263238" stroke-width="0.25" stroke-linecap="round" stroke-linejoin="round"/>
<path d="M349.383 360.541L341.762 358.186L338.292 358.161L345.901 360.528L349.383 360.541Z" fill="white" stroke="#263238" stroke-width="0.25" stroke-linecap="round" stroke-linejoin="round"/>
<path d="M291.305 355.472L283.635 352.92L279.917 352.883L287.563 355.435L291.305 355.472Z" fill="white" stroke="#263238" stroke-width="0.25" stroke-linecap="round" stroke-linejoin="round"/>
<path d="M287.563 355.435L284.068 355.398L291.218 357.814L294.725 357.839L287.563 355.435Z" fill="white" stroke="#263238" stroke-width="0.25" stroke-linecap="round" stroke-linejoin="round"/>
<path d="M279.917 352.883L276.448 352.833L284.068 355.398L287.563 355.435L279.917 352.883Z" fill="white" stroke="#263238" stroke-width="0.25" stroke-linecap="round" stroke-linejoin="round"/>
<path d="M294.725 357.839L291.218 357.814L298.554 360.293L302.098 360.305L294.725 357.839Z" fill="white" stroke="#263238" stroke-width="0.25" stroke-linecap="round" stroke-linejoin="round"/>
<path d="M302.098 360.305L298.554 360.292L306.1 362.833H309.644L302.098 360.305Z" fill="white" stroke="#263238" stroke-width="0.25" stroke-linecap="round" stroke-linejoin="round"/>
<path d="M309.644 362.833H306.1L313.845 365.435H317.413L309.644 362.833Z" fill="white" stroke="#263238" stroke-width="0.25" stroke-linecap="round" stroke-linejoin="round"/>
<path d="M352.01 358.26L359.68 360.59L362.679 360.602L354.996 358.285L352.01 358.26Z" fill="white" stroke="#263238" stroke-width="0.25" stroke-linecap="round" stroke-linejoin="round"/>
<path d="M367.536 362.982L370.547 362.994L362.678 360.602L359.68 360.59L367.536 362.982Z" fill="white" stroke="#263238" stroke-width="0.25" stroke-linecap="round" stroke-linejoin="round"/>
<path d="M375.602 365.435H378.626L370.547 362.994L367.536 362.981L375.602 365.435Z" fill="white" stroke="#263238" stroke-width="0.25" stroke-linecap="round" stroke-linejoin="round"/>
<path d="M320.4 355.757L312.544 353.267L309.012 353.229L316.843 355.72L320.4 355.757Z" fill="white" stroke="#263238" stroke-width="0.25" stroke-linecap="round" stroke-linejoin="round"/>
<path d="M352.01 358.26L354.996 358.285L347.511 356.018L344.538 355.98L352.01 358.26Z" fill="white" stroke="#263238" stroke-width="0.25" stroke-linecap="round" stroke-linejoin="round"/>
<path d="M364.116 362.982H367.536L359.68 360.59L356.272 360.578L364.116 362.982Z" fill="white" stroke="#263238" stroke-width="0.25" stroke-linecap="round" stroke-linejoin="round"/>
<path d="M295.035 355.51L287.34 352.969L283.635 352.92L291.305 355.473L295.035 355.51Z" fill="white" stroke="#263238" stroke-width="0.25" stroke-linecap="round" stroke-linejoin="round"/>
<path d="M341.155 355.956L348.627 358.236L352.01 358.26L344.538 355.98L341.155 355.956Z" fill="white" stroke="#263238" stroke-width="0.25" stroke-linecap="round" stroke-linejoin="round"/>
<path d="M347.511 356.018L339.507 353.589L336.558 353.552L344.538 355.98L347.511 356.018Z" fill="white" stroke="#263238" stroke-width="0.25" stroke-linecap="round" stroke-linejoin="round"/>
<path d="M344.538 355.981L336.558 353.552L333.188 353.515L341.155 355.956L344.538 355.981Z" fill="white" stroke="#263238" stroke-width="0.25" stroke-linecap="round" stroke-linejoin="round"/>
<path d="M353.695 362.957L361.687 365.435H365.206L357.189 362.957H353.695Z" fill="white" stroke="#263238" stroke-width="0.25" stroke-linecap="round" stroke-linejoin="round"/>
<path d="M372.158 365.435H375.602L367.536 362.981H364.116L372.158 365.435Z" fill="white" stroke="#263238" stroke-width="0.25" stroke-linecap="round" stroke-linejoin="round"/>
<path d="M341.155 355.956L333.188 353.514L329.805 353.477L337.76 355.918L341.155 355.956Z" fill="white" stroke="#263238" stroke-width="0.25" stroke-linecap="round" stroke-linejoin="round"/>
<path d="M360.671 362.969L368.7 365.435H372.158L364.116 362.981L360.671 362.969Z" fill="white" stroke="#263238" stroke-width="0.25" stroke-linecap="round" stroke-linejoin="round"/>
<path d="M357.189 362.957L365.206 365.435H368.7L360.671 362.969L357.189 362.957Z" fill="white" stroke="#263238" stroke-width="0.25" stroke-linecap="round" stroke-linejoin="round"/>
<path d="M356.272 360.578L359.68 360.59L352.01 358.26L348.627 358.236L356.272 360.578Z" fill="white" stroke="#263238" stroke-width="0.25" stroke-linecap="round" stroke-linejoin="round"/>
<path d="M309.681 355.646L301.899 353.143L298.293 353.093L306.063 355.621L309.681 355.646Z" fill="white" stroke="#263238" stroke-width="0.25" stroke-linecap="round" stroke-linejoin="round"/>
<path d="M337.76 355.918L329.804 353.477L326.409 353.428L334.34 355.881L337.76 355.918Z" fill="white" stroke="#263238" stroke-width="0.25" stroke-linecap="round" stroke-linejoin="round"/>
<path d="M306.063 355.621L298.294 353.093L294.675 353.056L302.407 355.584L306.063 355.621Z" fill="white" stroke="#263238" stroke-width="0.25" stroke-linecap="round" stroke-linejoin="round"/>
<path d="M316.843 355.72L309.012 353.23L305.468 353.18L313.275 355.683L316.843 355.72Z" fill="white" stroke="#263238" stroke-width="0.25" stroke-linecap="round" stroke-linejoin="round"/>
<path d="M302.408 355.584L294.675 353.056L291.02 353.007L298.74 355.547L302.408 355.584Z" fill="white" stroke="#263238" stroke-width="0.25" stroke-linecap="round" stroke-linejoin="round"/>
<path d="M298.74 355.547L291.02 353.007L287.34 352.969L295.035 355.51L298.74 355.547Z" fill="white" stroke="#263238" stroke-width="0.25" stroke-linecap="round" stroke-linejoin="round"/>
<path d="M313.275 355.683L305.468 353.18L301.899 353.143L309.681 355.646L313.275 355.683Z" fill="white" stroke="#263238" stroke-width="0.25" stroke-linecap="round" stroke-linejoin="round"/>
<path d="M334.34 355.881L326.409 353.428L322.977 353.391L330.883 355.856L334.34 355.881Z" fill="white" stroke="#263238" stroke-width="0.25" stroke-linecap="round" stroke-linejoin="round"/>
<path d="M330.883 355.857L322.977 353.391L319.52 353.354L327.413 355.819L330.883 355.857Z" fill="white" stroke="#263238" stroke-width="0.25" stroke-linecap="round" stroke-linejoin="round"/>
<path d="M323.919 355.782L316.05 353.304L312.543 353.267L320.4 355.757L323.919 355.782Z" fill="white" stroke="#263238" stroke-width="0.25" stroke-linecap="round" stroke-linejoin="round"/>
<path d="M353.695 362.957L350.163 362.944L346.62 362.932L343.038 362.92L339.445 362.907H335.814L332.159 362.895L328.479 362.882H324.761L321.032 362.87L317.265 362.858L325.071 365.435H328.863H332.617H336.347H340.052H343.72H347.363H350.994H354.575H358.143H361.687L353.695 362.957Z" fill="white" stroke="#263238" stroke-width="0.25" stroke-linecap="round" stroke-linejoin="round"/>
<path d="M327.413 355.819L319.52 353.354L316.05 353.304L323.919 355.782L327.413 355.819Z" fill="white" stroke="#263238" stroke-width="0.25" stroke-linecap="round" stroke-linejoin="round"/>
<path d="M257.365 351.569V354.097L307.971 371.569L307.996 368.334L257.365 351.569Z" fill="white" stroke="#263238" stroke-linecap="round" stroke-linejoin="round"/>
<path d="M396.804 368.334H307.996V371.569H396.804V368.334Z" fill="#263238" stroke="#263238" stroke-linecap="round" stroke-linejoin="round"/>
<path d="M283.499 247.941L302.903 277.544L322.32 247.941H314.192V211.437H291.615V247.941H283.499Z" fill="#407BFF" stroke="#263238" stroke-linecap="round" stroke-linejoin="round"/>
<path d="M192.237 351.544H107.977L107.977 275.958H192.237C192.77 275.958 193.28 276.169 193.657 276.546C194.033 276.922 194.245 277.433 194.245 277.965V349.587C194.232 350.11 194.015 350.608 193.639 350.974C193.264 351.34 192.761 351.545 192.237 351.544Z" fill="white" stroke="#263238" stroke-linecap="round" stroke-linejoin="round"/>
<path d="M105.065 351.569H191.964V275.921H105.065L105.065 351.569Z" fill="#263238" stroke="#263238" stroke-linecap="round" stroke-linejoin="round"/>
<path d="M109.81 345.572H185.273V281.906H109.81L109.81 345.572Z" fill="white" stroke="#263238" stroke-linecap="round" stroke-linejoin="round"/>
<path d="M115.56 340.727H137.146V286.751H115.56V340.727Z" fill="white" stroke="#263238" stroke-linecap="round" stroke-linejoin="round"/>
<path d="M115.56 340.739H179.536V290.964H115.56V340.739Z" fill="white" stroke="#263238" stroke-linecap="round" stroke-linejoin="round"/>
<path d="M118.881 338.149H176.203V293.553H118.881V338.149Z" fill="#407BFF" stroke="#263238" stroke-linecap="round" stroke-linejoin="round"/>
<path d="M121.396 308.101H132.065" stroke="#263238" stroke-linecap="round" stroke-linejoin="round"/>
<path d="M121.396 311.347H132.065" stroke="#263238" stroke-linecap="round" stroke-linejoin="round"/>
<path d="M121.396 314.581H132.065" stroke="#263238" stroke-linecap="round" stroke-linejoin="round"/>
<path d="M121.396 320.083H168.31" stroke="#263238" stroke-linecap="round" stroke-linejoin="round"/>
<path d="M121.396 324.284H168.31" stroke="#263238" stroke-linecap="round" stroke-linejoin="round"/>
<path d="M121.396 328.497H168.31" stroke="#263238" stroke-linecap="round" stroke-linejoin="round"/>
<path d="M191.964 351.569L141.346 368.335H52.5381L105.077 351.569H191.964Z" fill="white" stroke="#263238" stroke-linecap="round" stroke-linejoin="round"/>
<path d="M128.744 358.025L136.055 355.683L139.661 355.646L132.362 358L128.744 358.025Z" fill="white" stroke="#263238" stroke-width="0.25" stroke-linecap="round" stroke-linejoin="round"/>
<path d="M121.582 358.087L128.942 355.757L132.486 355.72L125.151 358.05L121.582 358.087Z" fill="white" stroke="#263238" stroke-width="0.25" stroke-linecap="round" stroke-linejoin="round"/>
<path d="M96.5022 360.565L93.0698 360.578L100.715 358.236L104.135 358.211L96.5022 360.565Z" fill="white" stroke="#263238" stroke-width="0.25" stroke-linecap="round" stroke-linejoin="round"/>
<path d="M132.362 358L139.661 355.646L143.279 355.621L135.993 357.975L132.362 358Z" fill="white" stroke="#263238" stroke-width="0.25" stroke-linecap="round" stroke-linejoin="round"/>
<path d="M139.673 357.951L146.922 355.584L150.602 355.547L143.366 357.926L139.673 357.951Z" fill="white" stroke="#263238" stroke-width="0.25" stroke-linecap="round" stroke-linejoin="round"/>
<path d="M107.58 358.186L115.002 355.881L118.46 355.856L111.037 358.161L107.58 358.186Z" fill="white" stroke="#263238" stroke-width="0.25" stroke-linecap="round" stroke-linejoin="round"/>
<path d="M104.135 358.211L111.582 355.919L115.002 355.881L107.58 358.186L104.135 358.211Z" fill="white" stroke="#263238" stroke-width="0.25" stroke-linecap="round" stroke-linejoin="round"/>
<path d="M143.366 357.926L150.602 355.547L154.295 355.51L147.083 357.889L143.366 357.926Z" fill="white" stroke="#263238" stroke-width="0.25" stroke-linecap="round" stroke-linejoin="round"/>
<path d="M118.051 358.112L125.424 355.782L128.943 355.758L121.582 358.087L118.051 358.112Z" fill="white" stroke="#263238" stroke-width="0.25" stroke-linecap="round" stroke-linejoin="round"/>
<path d="M100.715 358.236L108.175 355.956L111.582 355.918L104.135 358.211L100.715 358.236Z" fill="white" stroke="#263238" stroke-width="0.25" stroke-linecap="round" stroke-linejoin="round"/>
<path d="M111.037 358.161L118.459 355.857L121.929 355.819L114.531 358.136L111.037 358.161Z" fill="white" stroke="#263238" stroke-width="0.25" stroke-linecap="round" stroke-linejoin="round"/>
<path d="M114.532 358.137L121.929 355.819L125.424 355.782L118.051 358.112L114.532 358.137Z" fill="white" stroke="#263238" stroke-width="0.25" stroke-linecap="round" stroke-linejoin="round"/>
<path d="M125.151 358.05L132.486 355.72L136.055 355.683L128.744 358.025L125.151 358.05Z" fill="white" stroke="#263238" stroke-width="0.25" stroke-linecap="round" stroke-linejoin="round"/>
<path d="M150.825 357.864L154.605 357.839L147.244 360.305L143.453 360.33L150.825 357.864Z" fill="white" stroke="#263238" stroke-width="0.25" stroke-linecap="round" stroke-linejoin="round"/>
<path d="M158.025 355.472L161.78 355.435L154.605 357.839L150.826 357.864L158.025 355.472Z" fill="white" stroke="#263238" stroke-width="0.25" stroke-linecap="round" stroke-linejoin="round"/>
<path d="M147.083 357.889L154.295 355.51L158.025 355.472L150.826 357.864L147.083 357.889Z" fill="white" stroke="#263238" stroke-width="0.25" stroke-linecap="round" stroke-linejoin="round"/>
<path d="M139.686 362.833L131.929 365.435H128.075L135.869 362.845L139.686 362.833Z" fill="white" stroke="#263238" stroke-width="0.25" stroke-linecap="round" stroke-linejoin="round"/>
<path d="M143.453 360.33L147.244 360.305L139.686 362.833L135.869 362.845L143.453 360.33Z" fill="white" stroke="#263238" stroke-width="0.25" stroke-linecap="round" stroke-linejoin="round"/>
<path d="M135.869 362.845L128.075 365.435H124.271L132.077 362.858L135.869 362.845Z" fill="white" stroke="#263238" stroke-width="0.25" stroke-linecap="round" stroke-linejoin="round"/>
<path d="M135.993 357.975L143.279 355.621L146.922 355.584L139.673 357.951L135.993 357.975Z" fill="white" stroke="#263238" stroke-width="0.25" stroke-linecap="round" stroke-linejoin="round"/>
<path d="M128.534 360.404L135.993 357.975L139.673 357.951L132.214 360.379L128.534 360.404Z" fill="white" stroke="#263238" stroke-width="0.25" stroke-linecap="round" stroke-linejoin="round"/>
<path d="M132.214 360.379L139.673 357.951L143.366 357.926L135.931 360.367L132.214 360.379Z" fill="white" stroke="#263238" stroke-width="0.25" stroke-linecap="round" stroke-linejoin="round"/>
<path d="M124.866 360.417L132.362 358L135.993 357.976L128.534 360.404L124.866 360.417Z" fill="white" stroke="#263238" stroke-width="0.25" stroke-linecap="round" stroke-linejoin="round"/>
<path d="M147.083 357.889L150.825 357.864L143.453 360.33L139.673 360.342L147.083 357.889Z" fill="white" stroke="#263238" stroke-width="0.25" stroke-linecap="round" stroke-linejoin="round"/>
<path d="M88.6708 362.969L85.2261 362.981L93.0697 360.578L96.5021 360.565L88.6708 362.969Z" fill="white" stroke="#263238" stroke-width="0.25" stroke-linecap="round" stroke-linejoin="round"/>
<path d="M135.931 360.367L143.366 357.926L147.083 357.889L139.673 360.342L135.931 360.367Z" fill="white" stroke="#263238" stroke-width="0.25" stroke-linecap="round" stroke-linejoin="round"/>
<path d="M143.453 360.33L135.869 362.845L132.078 362.858L139.673 360.342L143.453 360.33Z" fill="white" stroke="#263238" stroke-width="0.25" stroke-linecap="round" stroke-linejoin="round"/>
<path d="M103.441 360.528L111.037 358.161L114.532 358.136L106.948 360.503L103.441 360.528Z" fill="white" stroke="#263238" stroke-width="0.25" stroke-linecap="round" stroke-linejoin="round"/>
<path d="M106.948 360.503L114.532 358.137L118.051 358.112L110.48 360.491L106.948 360.503Z" fill="white" stroke="#263238" stroke-width="0.25" stroke-linecap="round" stroke-linejoin="round"/>
<path d="M96.5024 360.565L104.135 358.211L107.58 358.186L99.9596 360.54L96.5024 360.565Z" fill="white" stroke="#263238" stroke-width="0.25" stroke-linecap="round" stroke-linejoin="round"/>
<path d="M117.617 360.454L125.151 358.05L128.744 358.025L121.235 360.429L117.617 360.454Z" fill="white" stroke="#263238" stroke-width="0.25" stroke-linecap="round" stroke-linejoin="round"/>
<path d="M110.479 360.491L118.051 358.112L121.582 358.087L114.036 360.466L110.479 360.491Z" fill="white" stroke="#263238" stroke-width="0.25" stroke-linecap="round" stroke-linejoin="round"/>
<path d="M114.036 360.466L121.582 358.087L125.151 358.05L117.617 360.454L114.036 360.466Z" fill="white" stroke="#263238" stroke-width="0.25" stroke-linecap="round" stroke-linejoin="round"/>
<path d="M121.235 360.429L128.744 358.025L132.363 358L124.866 360.417L121.235 360.429Z" fill="white" stroke="#263238" stroke-width="0.25" stroke-linecap="round" stroke-linejoin="round"/>
<path d="M110.48 360.491L102.723 362.932L99.1665 362.944L106.948 360.503L110.48 360.491Z" fill="white" stroke="#263238" stroke-width="0.25" stroke-linecap="round" stroke-linejoin="round"/>
<path d="M106.948 360.503L99.1666 362.944L95.6475 362.957L103.442 360.528L106.948 360.503Z" fill="white" stroke="#263238" stroke-width="0.25" stroke-linecap="round" stroke-linejoin="round"/>
<path d="M139.673 360.342L132.077 362.858L128.311 362.87L135.931 360.367L139.673 360.342Z" fill="white" stroke="#263238" stroke-width="0.25" stroke-linecap="round" stroke-linejoin="round"/>
<path d="M103.441 360.528L95.6472 362.957H92.1528L99.9593 360.54L103.441 360.528Z" fill="white" stroke="#263238" stroke-width="0.25" stroke-linecap="round" stroke-linejoin="round"/>
<path d="M117.617 360.454L109.897 362.907L106.292 362.919L114.036 360.466L117.617 360.454Z" fill="white" stroke="#263238" stroke-width="0.25" stroke-linecap="round" stroke-linejoin="round"/>
<path d="M99.9593 360.541L92.1529 362.957L88.6709 362.969L96.5022 360.565L99.9593 360.541Z" fill="white" stroke="#263238" stroke-width="0.25" stroke-linecap="round" stroke-linejoin="round"/>
<path d="M114.036 360.466L106.291 362.92L102.723 362.932L110.48 360.491L114.036 360.466Z" fill="white" stroke="#263238" stroke-width="0.25" stroke-linecap="round" stroke-linejoin="round"/>
<path d="M132.214 360.379L124.568 362.882H120.863L128.533 360.404L132.214 360.379Z" fill="white" stroke="#263238" stroke-width="0.25" stroke-linecap="round" stroke-linejoin="round"/>
<path d="M135.931 360.367L128.311 362.87L124.568 362.882L132.214 360.379L135.931 360.367Z" fill="white" stroke="#263238" stroke-width="0.25" stroke-linecap="round" stroke-linejoin="round"/>
<path d="M121.235 360.429L113.528 362.907H109.897L117.617 360.454L121.235 360.429Z" fill="white" stroke="#263238" stroke-width="0.25" stroke-linecap="round" stroke-linejoin="round"/>
<path d="M124.866 360.417L117.183 362.895L113.528 362.907L121.235 360.429L124.866 360.417Z" fill="white" stroke="#263238" stroke-width="0.25" stroke-linecap="round" stroke-linejoin="round"/>
<path d="M128.533 360.404L120.863 362.883L117.183 362.895L124.866 360.417L128.533 360.404Z" fill="white" stroke="#263238" stroke-width="0.25" stroke-linecap="round" stroke-linejoin="round"/>
<path d="M99.9595 360.541L107.58 358.186L111.037 358.161L103.441 360.528L99.9595 360.541Z" fill="white" stroke="#263238" stroke-width="0.25" stroke-linecap="round" stroke-linejoin="round"/>
<path d="M158.025 355.472L165.695 352.92L169.425 352.883L161.779 355.435L158.025 355.472Z" fill="white" stroke="#263238" stroke-width="0.25" stroke-linecap="round" stroke-linejoin="round"/>
<path d="M161.78 355.435L165.274 355.398L158.124 357.814L154.605 357.839L161.78 355.435Z" fill="white" stroke="#263238" stroke-width="0.25" stroke-linecap="round" stroke-linejoin="round"/>
<path d="M169.425 352.883L172.894 352.833L165.274 355.398L161.779 355.435L169.425 352.883Z" fill="white" stroke="#263238" stroke-width="0.25" stroke-linecap="round" stroke-linejoin="round"/>
<path d="M154.605 357.839L158.124 357.814L150.776 360.293L147.245 360.305L154.605 357.839Z" fill="white" stroke="#263238" stroke-width="0.25" stroke-linecap="round" stroke-linejoin="round"/>
<path d="M147.244 360.305L150.776 360.293L143.242 362.833H139.686L147.244 360.305Z" fill="white" stroke="#263238" stroke-width="0.25" stroke-linecap="round" stroke-linejoin="round"/>
<path d="M139.686 362.833H143.242L135.497 365.435H131.929L139.686 362.833Z" fill="white" stroke="#263238" stroke-width="0.25" stroke-linecap="round" stroke-linejoin="round"/>
<path d="M97.3201 358.26L89.6623 360.59L86.6636 360.602L94.3338 358.285L97.3201 358.26Z" fill="white" stroke="#263238" stroke-width="0.25" stroke-linecap="round" stroke-linejoin="round"/>
<path d="M81.7936 362.982L78.7949 362.994L86.6634 360.602L89.662 360.59L81.7936 362.982Z" fill="white" stroke="#263238" stroke-width="0.25" stroke-linecap="round" stroke-linejoin="round"/>
<path d="M73.7393 365.435H70.7158L78.7949 362.994L81.7936 362.981L73.7393 365.435Z" fill="white" stroke="#263238" stroke-width="0.25" stroke-linecap="round" stroke-linejoin="round"/>
<path d="M128.942 355.758L136.798 353.267L140.318 353.23L132.486 355.72L128.942 355.758Z" fill="white" stroke="#263238" stroke-width="0.25" stroke-linecap="round" stroke-linejoin="round"/>
<path d="M97.3203 358.26L94.334 358.285L101.831 356.018L104.805 355.98L97.3203 358.26Z" fill="white" stroke="#263238" stroke-width="0.25" stroke-linecap="round" stroke-linejoin="round"/>
<path d="M85.2263 362.982H81.7939L89.6624 360.59L93.07 360.578L85.2263 362.982Z" fill="white" stroke="#263238" stroke-width="0.25" stroke-linecap="round" stroke-linejoin="round"/>
<path d="M154.295 355.51L161.99 352.969L165.695 352.92L158.025 355.473L154.295 355.51Z" fill="white" stroke="#263238" stroke-width="0.25" stroke-linecap="round" stroke-linejoin="round"/>
<path d="M108.175 355.956L100.715 358.236L97.3198 358.26L104.804 355.98L108.175 355.956Z" fill="white" stroke="#263238" stroke-width="0.25" stroke-linecap="round" stroke-linejoin="round"/>
<path d="M101.831 356.018L109.835 353.589L112.784 353.552L104.804 355.98L101.831 356.018Z" fill="white" stroke="#263238" stroke-width="0.25" stroke-linecap="round" stroke-linejoin="round"/>
<path d="M104.804 355.981L112.784 353.552L116.142 353.515L108.175 355.956L104.804 355.981Z" fill="white" stroke="#263238" stroke-width="0.25" stroke-linecap="round" stroke-linejoin="round"/>
<path d="M95.6472 362.957L87.6425 365.435H84.1357L92.1529 362.957H95.6472Z" fill="white" stroke="#263238" stroke-width="0.25" stroke-linecap="round" stroke-linejoin="round"/>
<path d="M77.1845 365.435H73.7397L81.7941 362.981H85.2264L77.1845 365.435Z" fill="white" stroke="#263238" stroke-width="0.25" stroke-linecap="round" stroke-linejoin="round"/>
<path d="M108.175 355.956L116.142 353.515L119.525 353.478L111.582 355.919L108.175 355.956Z" fill="white" stroke="#263238" stroke-width="0.25" stroke-linecap="round" stroke-linejoin="round"/>
<path d="M88.6708 362.969L80.6412 365.435H77.1841L85.226 362.982L88.6708 362.969Z" fill="white" stroke="#263238" stroke-width="0.25" stroke-linecap="round" stroke-linejoin="round"/>
<path d="M92.1531 362.957L84.1359 365.435H80.6416L88.6711 362.969L92.1531 362.957Z" fill="white" stroke="#263238" stroke-width="0.25" stroke-linecap="round" stroke-linejoin="round"/>
<path d="M93.0697 360.578L89.6621 360.59L97.3199 358.26L100.715 358.236L93.0697 360.578Z" fill="white" stroke="#263238" stroke-width="0.25" stroke-linecap="round" stroke-linejoin="round"/>
<path d="M139.661 355.646L147.443 353.143L151.049 353.093L143.279 355.621L139.661 355.646Z" fill="white" stroke="#263238" stroke-width="0.25" stroke-linecap="round" stroke-linejoin="round"/>
<path d="M111.583 355.919L119.525 353.478L122.933 353.428L115.002 355.881L111.583 355.919Z" fill="white" stroke="#263238" stroke-width="0.25" stroke-linecap="round" stroke-linejoin="round"/>
<path d="M143.279 355.621L151.049 353.093L154.667 353.056L146.922 355.584L143.279 355.621Z" fill="white" stroke="#263238" stroke-width="0.25" stroke-linecap="round" stroke-linejoin="round"/>
<path d="M132.486 355.72L140.318 353.23L143.874 353.18L136.055 355.683L132.486 355.72Z" fill="white" stroke="#263238" stroke-width="0.25" stroke-linecap="round" stroke-linejoin="round"/>
<path d="M146.922 355.584L154.667 353.056L158.322 353.007L150.603 355.547L146.922 355.584Z" fill="white" stroke="#263238" stroke-width="0.25" stroke-linecap="round" stroke-linejoin="round"/>
<path d="M150.603 355.547L158.322 353.007L161.99 352.969L154.295 355.51L150.603 355.547Z" fill="white" stroke="#263238" stroke-width="0.25" stroke-linecap="round" stroke-linejoin="round"/>
<path d="M136.055 355.683L143.874 353.18L147.443 353.143L139.661 355.646L136.055 355.683Z" fill="white" stroke="#263238" stroke-width="0.25" stroke-linecap="round" stroke-linejoin="round"/>
<path d="M115.002 355.881L122.933 353.428L126.365 353.391L118.46 355.856L115.002 355.881Z" fill="white" stroke="#263238" stroke-width="0.25" stroke-linecap="round" stroke-linejoin="round"/>
<path d="M118.459 355.857L126.365 353.391L129.822 353.354L121.929 355.819L118.459 355.857Z" fill="white" stroke="#263238" stroke-width="0.25" stroke-linecap="round" stroke-linejoin="round"/>
<path d="M125.423 355.782L133.292 353.304L136.799 353.267L128.942 355.757L125.423 355.782Z" fill="white" stroke="#263238" stroke-width="0.25" stroke-linecap="round" stroke-linejoin="round"/>
<path d="M95.6473 362.957L99.1664 362.944L102.723 362.932L106.291 362.92L109.897 362.907H113.528L117.183 362.895L120.864 362.882H124.568L128.311 362.87L132.078 362.858L124.271 365.435H120.479H116.725H112.995H109.29H105.622H101.967H98.3486H94.7551H91.1865H87.6426L95.6473 362.957Z" fill="white" stroke="#263238" stroke-width="0.25" stroke-linecap="round" stroke-linejoin="round"/>
<path d="M121.929 355.819L129.822 353.354L133.292 353.304L125.424 355.782L121.929 355.819Z" fill="white" stroke="#263238" stroke-width="0.25" stroke-linecap="round" stroke-linejoin="round"/>
<path d="M191.964 351.569V354.097L141.359 371.569L141.346 368.335L191.964 351.569Z" fill="white" stroke="#263238" stroke-linecap="round" stroke-linejoin="round"/>
<path d="M52.5381 371.569H141.346V368.335H52.5381V371.569Z" fill="#263238" stroke="#263238" stroke-linecap="round" stroke-linejoin="round"/>
<path d="M171.42 231.956L152.015 202.354L132.598 231.956H140.727V276.726H163.304V231.956H171.42Z" fill="#407BFF" stroke="#263238" stroke-linecap="round" stroke-linejoin="round"/>
</svg>
