<svg width="473" height="445" viewBox="0 0 473 445" fill="none" xmlns="http://www.w3.org/2000/svg">
<path d="M121.21 106.343V100.841C121.204 97.0654 119.702 93.446 117.033 90.7753C114.364 88.1046 110.746 86.6004 106.97 86.592H103.085C99.3068 86.5976 95.6855 88.1006 93.0143 90.7716C90.3431 93.4426 88.8399 97.0636 88.8344 100.841V106.343H87.5322V135.492H122.512V106.343H121.21ZM97.2353 100.841C97.2381 99.2907 97.8553 97.8047 98.9516 96.7084C100.048 95.6122 101.534 94.9951 103.085 94.9923H106.97C108.519 94.9978 110.002 95.6162 111.096 96.7121C112.19 97.808 112.806 99.2925 112.809 100.841V106.343H97.2353V100.841Z" stroke="#263238" stroke-miterlimit="10"/>
<path d="M107.894 118.941C107.895 118.447 107.769 117.961 107.527 117.53C107.286 117.1 106.937 116.738 106.515 116.482C106.093 116.226 105.612 116.083 105.118 116.067C104.624 116.051 104.135 116.164 103.698 116.393C103.26 116.622 102.889 116.96 102.621 117.375C102.352 117.789 102.195 118.266 102.165 118.759C102.135 119.252 102.233 119.745 102.449 120.189C102.666 120.633 102.993 121.014 103.399 121.294V129.341H106.665V121.294C107.046 121.031 107.356 120.68 107.57 120.27C107.785 119.86 107.896 119.404 107.894 118.941V118.941Z" stroke="#263238" stroke-miterlimit="10"/>
<path d="M49.3394 67.0791L92.2893 42.1992" stroke="#263238" stroke-miterlimit="10"/>
<path d="M161.209 163.863L122.123 186.504" stroke="#263238" stroke-miterlimit="10"/>
<path d="M119.33 41.8337L161.24 65.9439" stroke="#263238" stroke-miterlimit="10"/>
<path d="M89.3697 185.908L49.3076 162.857" stroke="#263238" stroke-miterlimit="10"/>
<path d="M36.2549 90.1089L36.3179 139.768" stroke="#263238" stroke-miterlimit="10"/>
<path d="M176.152 139.553L176.079 90.2961" stroke="#263238" stroke-miterlimit="10"/>
<path d="M72.085 134.471C75.6309 140.189 80.5791 144.907 86.4602 148.177C92.3412 151.446 98.9601 153.159 105.689 153.153H106.109" stroke="#263238" stroke-miterlimit="10"/>
<path d="M140.28 94.5457C136.901 88.4185 131.955 83.2989 125.947 79.7108C119.939 76.1227 113.086 74.195 106.088 74.125" stroke="#263238" stroke-miterlimit="10"/>
<path d="M106.088 153.142C112.689 153.071 119.166 151.345 124.927 148.121C130.688 144.898 135.548 140.282 139.062 134.694" stroke="#263238" stroke-miterlimit="10"/>
<path d="M140.28 94.5464C143.687 100.735 145.371 107.725 145.157 114.786C144.942 121.848 142.837 128.723 139.062 134.694" stroke="#263238" stroke-miterlimit="10"/>
<path d="M70.8772 94.8857C67.5811 101.008 65.9573 107.891 66.1693 114.841C66.3813 121.791 68.4217 128.562 72.0848 134.472" stroke="#263238" stroke-miterlimit="10"/>
<path d="M70.8774 94.8859C74.2606 88.605 79.2814 83.3574 85.4069 79.7003C91.5323 76.0432 98.5338 74.113 105.668 74.1147H106.088" stroke="#263238" stroke-miterlimit="10"/>
<path d="M92.2891 42.1992C93.8554 44.2774 95.878 45.9627 98.1989 47.1233C100.52 48.284 103.076 48.8886 105.668 48.8897H106.088" stroke="#263238" stroke-miterlimit="10"/>
<path d="M119.33 41.8337C117.814 43.9578 115.829 45.699 113.531 46.9204C111.233 48.1418 108.686 48.8102 106.088 48.873" stroke="#263238" stroke-miterlimit="10"/>
<path d="M119.33 41.8316C121.141 39.3051 122.216 36.3256 122.434 33.2247C122.653 30.1238 122.007 27.0231 120.568 24.2675C119.129 21.512 116.953 19.2097 114.283 17.6168C111.614 16.0239 108.554 15.203 105.446 15.2452C102.337 15.2875 99.3011 16.1913 96.6756 17.8561C94.0501 19.521 91.938 21.8815 90.5745 24.6752C89.2109 27.4688 88.6492 30.5859 88.9519 33.6798C89.2547 36.7736 90.41 39.7228 92.2893 42.1991" stroke="#263238" stroke-miterlimit="10"/>
<path d="M106.088 173.268C109.859 173.355 113.492 174.708 116.4 177.108C119.309 179.509 121.325 182.819 122.123 186.504" stroke="#263238" stroke-miterlimit="10"/>
<path d="M89.3701 185.908C90.2907 182.285 92.3933 179.073 95.3452 176.779C98.2971 174.486 101.93 173.242 105.668 173.245H106.088" stroke="#263238" stroke-miterlimit="10"/>
<path d="M89.3698 185.908C89.0096 187.279 88.8261 188.691 88.8237 190.108C88.8824 192.43 89.4216 194.714 90.4075 196.817C91.3933 198.92 92.8043 200.795 94.5514 202.325C96.2985 203.855 98.3438 205.006 100.558 205.706C102.772 206.406 105.108 206.639 107.417 206.391C109.726 206.142 111.958 205.418 113.973 204.263C115.988 203.109 117.742 201.549 119.124 199.683C120.506 197.816 121.486 195.684 122.002 193.419C122.518 191.155 122.559 188.808 122.123 186.527" stroke="#263238" stroke-miterlimit="10"/>
<path d="M176.078 90.2963H176.288C179.276 90.2886 182.208 89.4842 184.782 87.9661C187.355 86.448 189.478 84.2711 190.93 81.6598C192.382 79.0486 193.111 76.0973 193.042 73.1103C192.974 70.1233 192.11 67.2086 190.54 64.6667C188.969 62.1247 186.75 60.0474 184.109 58.6489C181.469 57.2504 178.503 56.5813 175.518 56.7106C172.533 56.8398 169.636 57.7627 167.126 59.3842C164.617 61.0057 162.585 63.267 161.24 65.9352" stroke="#263238" stroke-miterlimit="10"/>
<path d="M161.765 81.9693C160.34 79.5568 159.545 76.8243 159.453 74.0237C159.362 71.2232 159.976 68.4446 161.24 65.9438" stroke="#263238" stroke-miterlimit="10"/>
<path d="M176.078 90.3178C173.176 90.2839 170.333 89.4971 167.825 88.034C165.316 86.5709 163.229 84.4815 161.765 81.9692" stroke="#263238" stroke-miterlimit="10"/>
<path d="M36.2549 90.1579C38.7805 89.7803 41.1874 88.8285 43.2927 87.3748C45.398 85.9211 47.1463 84.0037 48.4048 81.7683" stroke="#263238" stroke-miterlimit="10"/>
<path d="M49.3393 67.0791C48.1764 64.2703 46.2731 61.8297 43.8323 60.0173C41.3914 58.205 38.5045 57.0888 35.4792 56.7877C32.4539 56.4866 29.4036 57.0119 26.6534 58.3077C23.9032 59.6034 21.5561 61.621 19.8623 64.1455C18.1685 66.6699 17.1915 69.6066 17.0354 72.6425C16.8792 75.6784 17.5498 78.6997 18.9757 81.3846C20.4016 84.0694 22.5294 86.3171 25.1322 87.8881C27.735 89.459 30.7153 90.2944 33.7555 90.3052C34.5925 90.3027 35.428 90.236 36.2548 90.1057" stroke="#263238" stroke-miterlimit="10"/>
<path d="M49.3394 67.0791C50.3106 69.4394 50.7311 71.9898 50.5692 74.5369C50.4073 77.084 49.6671 79.5607 48.4048 81.779" stroke="#263238" stroke-miterlimit="10"/>
<path d="M176.152 139.553C173.229 139.58 170.363 140.372 167.838 141.851C165.313 143.331 163.216 145.446 161.755 147.988" stroke="#263238" stroke-miterlimit="10"/>
<path d="M176.152 139.553H176.288C179.278 139.562 182.212 140.368 184.787 141.889C187.361 143.411 189.483 145.591 190.933 148.206C192.383 150.821 193.109 153.776 193.036 156.766C192.963 159.755 192.094 162.671 190.517 165.212C188.941 167.753 186.715 169.827 184.07 171.221C181.424 172.615 178.454 173.277 175.467 173.139C172.48 173.002 169.584 172.07 167.077 170.439C164.571 168.809 162.545 166.539 161.208 163.864" stroke="#263238" stroke-miterlimit="10"/>
<path d="M161.755 147.918C160.34 150.319 159.549 153.036 159.454 155.821C159.358 158.606 159.962 161.371 161.209 163.863" stroke="#263238" stroke-miterlimit="10"/>
<path d="M36.3177 139.763C35.47 139.629 34.6136 139.559 33.7554 139.553C30.7185 139.564 27.7413 140.397 25.1404 141.965C22.5394 143.533 20.412 145.776 18.9844 148.457C17.5568 151.137 16.8824 154.154 17.0328 157.188C17.1833 160.221 18.1531 163.156 19.8389 165.682C21.5248 168.209 23.8638 170.23 26.6071 171.533C29.3505 172.836 32.3956 173.37 35.4186 173.08C38.4416 172.79 41.3295 171.687 43.7752 169.886C46.2208 168.086 48.1328 165.656 49.3077 162.856" stroke="#263238" stroke-miterlimit="10"/>
<path d="M36.3179 139.768C38.8664 140.156 41.2916 141.127 43.4057 142.604C45.5199 144.082 47.2663 146.027 48.5098 148.289" stroke="#263238" stroke-miterlimit="10"/>
<path d="M49.3079 162.857C50.2813 160.523 50.7151 157.998 50.577 155.472C50.4388 152.947 49.7321 150.485 48.5098 148.27" stroke="#263238" stroke-miterlimit="10"/>
<path d="M106.088 173.268V153.142" stroke="#263238" stroke-miterlimit="10"/>
<path d="M106.088 48.8291V74.1249" stroke="#263238" stroke-miterlimit="10"/>
<path d="M161.755 147.919L139.104 134.694" stroke="#263238" stroke-miterlimit="10"/>
<path d="M70.8774 94.8855L48.4048 81.7683" stroke="#263238" stroke-miterlimit="10"/>
<path d="M72.085 134.471L48.5098 148.27" stroke="#263238" stroke-miterlimit="10"/>
<path d="M161.765 81.9692L140.28 94.5463" stroke="#263238" stroke-miterlimit="10"/>
<path d="M176.289 73.4624L175.312 74.045" stroke="#263238" stroke-miterlimit="10"/>
<path d="M107.327 262.751V233.169L81.6933 218.373L56.0703 233.169V262.751L81.6933 277.547L107.327 262.751Z" stroke="#263238" stroke-miterlimit="10"/>
<path d="M133.181 307.19V277.599L107.558 262.804L81.9351 277.599V307.19L107.558 321.985L133.181 307.19Z" stroke="#263238" stroke-miterlimit="10"/>
<path d="M107.631 351.492V321.903L82.0084 307.108L56.375 321.903V351.492L82.0084 366.286L107.631 351.492Z" stroke="#263238" stroke-miterlimit="10"/>
<path d="M92.352 243.435V240.01C92.3492 237.662 91.416 235.411 89.7567 233.749C88.0975 232.087 85.8474 231.151 83.4995 231.146H81.0737C78.7258 231.151 76.4757 232.087 74.8165 233.749C73.1572 235.411 72.224 237.662 72.2212 240.01V243.435H71.4126V261.563H93.1606V243.435H92.352ZM77.4508 240.01C77.4508 239.048 77.8321 238.126 78.5113 237.444C79.1904 236.763 80.1119 236.379 81.0737 236.376H83.4995C84.4613 236.379 85.3828 236.763 86.0619 237.444C86.741 238.126 87.1224 239.048 87.1224 240.01V243.435H77.4508V240.01Z" stroke="#263238" stroke-miterlimit="10"/>
<path d="M84.0772 251.26C84.0778 250.951 83.9988 250.648 83.8479 250.379C83.697 250.109 83.4793 249.884 83.2161 249.724C82.9528 249.564 82.6528 249.476 82.3452 249.466C82.0376 249.457 81.7329 249.528 81.4606 249.672C81.1883 249.816 80.9576 250.028 80.7911 250.287C80.6245 250.547 80.5276 250.845 80.5098 251.153C80.492 251.462 80.554 251.769 80.6896 252.046C80.8252 252.324 81.03 252.561 81.2839 252.735V257.751H83.3002V252.735C83.5399 252.572 83.7361 252.352 83.8715 252.095C84.007 251.838 84.0776 251.551 84.0772 251.26Z" stroke="#263238" stroke-miterlimit="10"/>
<path d="M116.862 288.06V284.637C116.859 282.29 115.926 280.04 114.266 278.38C112.607 276.721 110.357 275.787 108.01 275.785H105.594C103.247 275.787 100.995 276.721 99.3341 278.38C97.6729 280.039 96.737 282.289 96.7314 284.637V288.06H95.9229V306.184H117.671V288.06H116.862ZM101.961 284.637C101.961 283.673 102.344 282.749 103.025 282.068C103.707 281.386 104.631 281.004 105.594 281.004H108.01C108.973 281.006 109.895 281.39 110.576 282.071C111.257 282.751 111.64 283.674 111.643 284.637V288.06H101.961V284.637Z" stroke="#263238" stroke-miterlimit="10"/>
<path d="M108.608 295.929C108.61 295.62 108.533 295.315 108.383 295.045C108.233 294.775 108.017 294.548 107.754 294.387C107.491 294.226 107.191 294.136 106.883 294.126C106.575 294.115 106.269 294.185 105.996 294.328C105.723 294.471 105.491 294.683 105.324 294.943C105.157 295.202 105.059 295.501 105.041 295.809C105.022 296.118 105.084 296.426 105.22 296.703C105.355 296.981 105.56 297.218 105.815 297.393V302.406H107.841V297.393C108.078 297.23 108.272 297.011 108.406 296.756C108.539 296.501 108.609 296.217 108.608 295.929Z" stroke="#263238" stroke-miterlimit="10"/>
<path d="M92.1421 332.371V328.958C92.1393 326.61 91.2061 324.359 89.5468 322.697C87.8875 321.036 85.6375 320.1 83.2895 320.094H80.8743C78.5245 320.097 76.2718 321.032 74.6102 322.693C72.9487 324.355 72.014 326.608 72.0112 328.958V332.382H71.2026V350.509H92.9612V332.371H92.1421ZM77.2408 328.958C77.2408 327.994 77.6236 327.07 78.305 326.389C78.9864 325.707 79.9106 325.324 80.8743 325.324H83.2895C84.2532 325.324 85.1773 325.707 85.8587 326.389C86.5401 327.07 86.923 327.994 86.923 328.958V332.382H77.2408V328.958Z" stroke="#263238" stroke-miterlimit="10"/>
<path d="M83.8673 340.235C83.8678 339.926 83.7888 339.622 83.6379 339.353C83.487 339.084 83.2694 338.859 83.0061 338.699C82.7428 338.539 82.4428 338.45 82.1352 338.441C81.8277 338.432 81.5229 338.503 81.2506 338.647C80.9783 338.79 80.7477 339.002 80.5811 339.262C80.4145 339.522 80.3176 339.82 80.2999 340.128C80.2821 340.436 80.344 340.744 80.4796 341.021C80.6153 341.298 80.82 341.536 81.074 341.71V346.726H83.1007V341.71C83.3372 341.544 83.5304 341.323 83.6638 341.067C83.7973 340.81 83.8671 340.524 83.8673 340.235Z" stroke="#263238" stroke-miterlimit="10"/>
<path d="M26.4256 272.698L26.7722 272.085C26.3836 271.609 25.9636 271.155 25.5435 270.732C18.1927 267.36 10.8943 269.675 8.32153 270.732C8.05899 270.996 7.79646 271.282 7.54443 271.567L7.94348 272.381C8.04849 272.338 17.6361 267.646 26.4256 272.698Z" fill="#263238"/>
<path d="M30.7414 279.417C30.4449 278.478 30.0943 277.557 29.6913 276.659C26.3366 273.97 22.187 272.482 17.8984 272.432C12.3013 272.432 6.80918 275.338 4.08937 277.029C3.77433 277.733 3.4908 278.463 3.23877 279.216C4.14187 278.572 11.0832 273.784 17.9405 273.784C22.7777 273.894 27.377 275.918 30.7414 279.417Z" fill="#263238"/>
<path d="M4.96118 297.835C4.96118 297.761 1.54829 290.484 5.90629 283.658C6.97511 281.931 8.39658 280.448 10.0777 279.308C11.7588 278.168 13.6617 277.396 15.6619 277.042C19.4214 276.359 22.6452 277.179 24.0629 278.229C26.0904 279.88 27.885 281.798 29.3975 283.931C30.2336 285.094 31.1682 286.183 32.1908 287.186C32.1908 286.462 32.0963 285.758 32.0123 285.086C31.5188 284.509 30.9622 283.847 30.4581 283.143C28.8792 280.911 26.9992 278.907 24.8715 277.189C23.1808 275.929 19.6209 274.994 15.4204 275.75C13.2378 276.136 11.1613 276.978 9.32638 278.221C7.49149 279.464 5.93961 281.081 4.77216 282.965C0.0151103 290.442 3.59602 298.129 3.72204 298.444L4.96118 297.835Z" fill="#263238"/>
<path d="M30.5841 288.814C30.0274 288.075 29.5155 287.304 29.0509 286.504C27.0977 283.353 24.6614 279.331 17.4996 279.331C16.0217 279.264 14.5474 279.528 13.1847 280.104C11.822 280.68 10.6053 281.553 9.62368 282.66C6.91437 285.811 6.47332 290.379 6.95638 293.613C7.17632 294.966 7.04456 296.353 6.57377 297.64C6.10297 298.928 5.30897 300.072 4.26807 300.964C4.46409 301.37 4.67411 301.769 4.89814 302.161C6.17234 301.134 7.15505 299.79 7.74833 298.265C8.34161 296.739 8.52476 295.085 8.27953 293.466C7.83848 290.526 8.22702 286.399 10.6423 283.595C11.495 282.618 12.5574 281.846 13.7503 281.336C14.9431 280.827 16.2355 280.594 17.5311 280.655C23.9053 280.655 25.9321 283.973 27.8958 287.186C28.3928 288.034 28.9399 288.851 29.534 289.633C30.2219 290.523 31.0783 291.269 32.0543 291.828C32.0543 291.334 32.1488 290.778 32.1698 290.316C31.5735 289.892 31.0397 289.386 30.5841 288.814Z" fill="#263238"/>
<path d="M25.6487 288.911C25.3702 288.326 25.0582 287.758 24.7141 287.21C23.4435 285.298 20.4506 280.825 14.3389 283.335C9.53988 285.319 9.99143 290.36 10.401 294.802C10.5165 296.093 10.632 297.311 10.632 298.456C10.632 301.606 8.36375 303.79 6.80957 304.893C7.1036 305.261 7.39764 305.597 7.70217 305.943C9.43487 304.652 11.9972 302.184 11.9972 298.509C11.9972 297.301 11.8816 295.999 11.7661 294.739C11.3671 290.36 10.989 286.233 14.9165 284.637C20.0096 282.537 22.2673 285.96 23.664 288.008C23.9055 288.386 24.1891 288.942 24.5146 289.583C25.8771 292.746 28.0865 295.471 30.8993 297.458C31.0358 297.007 31.1619 296.545 31.2774 296.083C28.8062 294.226 26.8654 291.753 25.6487 288.911Z" fill="#263238"/>
<path d="M24.5985 294.682C23.8921 293.877 23.3562 292.937 23.0233 291.92C22.4275 290.135 21.3345 288.557 19.873 287.372C19.3732 286.941 18.7555 286.67 18.0999 286.595C17.4444 286.521 16.7816 286.645 16.1975 286.952C14.2548 288.002 13.0472 290.911 13.2362 293.894C13.5302 297.633 21.8052 304.239 25.2916 306.865C25.6171 306.561 25.9322 306.225 26.2367 305.888C22.1937 302.843 14.8009 296.719 14.5803 293.789C14.3913 291.363 15.3574 288.926 16.8381 288.139C17.1986 287.945 17.6109 287.87 18.0163 287.925C18.4217 287.98 18.7995 288.161 19.0959 288.443C20.3525 289.491 21.2849 290.876 21.7842 292.434C22.1868 293.601 22.8228 294.673 23.6534 295.585C25.5954 297.311 27.6437 298.915 29.7861 300.385C29.9751 299.965 30.1641 299.555 30.3322 299.114C28.3305 297.758 26.4155 296.277 24.5985 294.682Z" fill="#263238"/>
<path d="M17.2476 290.912C17.5311 295.543 24.8714 302.244 27.4652 304.481C27.7278 304.124 27.9903 303.745 28.2318 303.367C24.9239 300.511 18.7807 294.514 18.5917 290.828L17.2476 290.912Z" fill="#263238"/>
<path d="M19.0118 304.151C18.0246 302.988 17.2371 302.037 15.8614 302.037C13.7612 302.037 10.6108 305.535 9.14062 307.321C9.4766 307.614 9.82709 307.889 10.1907 308.146C12.0495 305.916 14.6433 303.347 15.8404 303.347C16.544 303.347 17.027 303.865 17.9406 304.954C19.1948 306.504 20.6874 307.842 22.3616 308.917C22.7982 308.671 23.2223 308.403 23.6323 308.114C21.8712 307.079 20.3068 305.737 19.0118 304.151Z" fill="#263238"/>
<path d="M20.0829 309.959C19.1168 308.501 17.5206 306.334 16.376 306.049C15.0108 305.7 13.8032 307.835 13.0366 309.685C13.4672 309.843 13.8977 309.981 14.3388 310.097C14.6747 309.055 15.263 308.115 16.0505 307.359C16.5335 307.476 17.6361 308.786 18.6653 310.276C19.1444 310.203 19.6181 310.097 20.0829 309.959Z" fill="#263238"/>
<path d="M39.9932 281.474H68.5039" stroke="#263238" stroke-miterlimit="10"/>
<path d="M39.9932 287.249H68.5039" stroke="#263238" stroke-miterlimit="10"/>
<path d="M39.9932 293.035H68.5039" stroke="#263238" stroke-miterlimit="10"/>
<path d="M39.9932 298.82H68.5039" stroke="#263238" stroke-miterlimit="10"/>
<path d="M390.566 56.989H392.204C392.783 56.989 393.357 57.103 393.892 57.3247C394.427 57.5463 394.913 57.8711 395.323 58.2807C395.732 58.6902 396.057 59.1763 396.279 59.7114C396.5 60.2465 396.615 60.8199 396.615 61.3991V113.061H386.113V61.3991C386.113 60.8164 386.229 60.2395 386.453 59.7017C386.677 59.1638 387.006 58.6758 387.42 58.2657C387.834 57.8556 388.325 57.5317 388.865 57.3125C389.405 57.0934 389.983 56.9834 390.566 56.989Z" fill="white" stroke="#263238" stroke-miterlimit="10"/>
<path d="M391.553 56.989H393.191C393.77 56.989 394.344 57.103 394.879 57.3247C395.414 57.5463 395.9 57.8711 396.309 58.2807C396.719 58.6902 397.044 59.1763 397.266 59.7114C397.487 60.2465 397.601 60.8199 397.601 61.3991V113.061H387.1V61.3991C387.1 60.8164 387.216 60.2395 387.44 59.7017C387.664 59.1638 387.993 58.6758 388.407 58.2657C388.821 57.8556 389.312 57.5317 389.852 57.3125C390.392 57.0934 390.97 56.9834 391.553 56.989Z" fill="#A3A3A3" stroke="#263238" stroke-miterlimit="10"/>
<path d="M364.522 105.607L382.69 94.6116L387.573 90.7156C387.573 90.7156 390.114 84.6248 388.623 79.1641C387.132 73.7033 385.577 73.8293 385.577 73.8293L368.775 81.5794C368.775 81.5794 374.446 97.7621 364.522 105.607Z" fill="#263238" stroke="#263238" stroke-linecap="round" stroke-linejoin="round"/>
<path d="M355.995 80.6889L365.268 78.3998C360.511 68.9496 350.703 64.1405 343.068 67.7106C336.379 70.8606 333.533 79.3448 335.77 87.955L355.995 80.6889Z" fill="white" stroke="#263238" stroke-miterlimit="10"/>
<path d="M364.517 105.604C372.32 101.959 374.894 90.9759 370.267 81.0719C365.64 71.1679 355.563 66.094 347.76 69.7389C339.957 73.3838 337.383 84.3674 342.01 94.2714C346.637 104.175 356.714 109.249 364.517 105.604Z" fill="#4F4F4F" stroke="#263238" stroke-linecap="round" stroke-linejoin="round"/>
<path d="M360.102 86.3892C362.107 90.6843 360.984 95.4519 357.602 97.0376C354.221 98.6234 349.842 96.4181 347.836 92.123C345.83 87.8279 346.944 83.0497 350.335 81.4745C353.727 79.8993 358.096 82.0626 360.102 86.3892Z" fill="#263238" stroke="#263238" stroke-linecap="round" stroke-linejoin="round"/>
<path d="M402.085 61.9856C397.675 52.5352 388.308 47.495 380.684 50.2041V50.0781L346.093 66.4378L340.244 69.231C345.481 67.7678 351.068 68.2176 356.004 70.4996C360.94 72.7817 364.902 76.7469 367.179 81.6845C367.179 81.7895 367.284 81.905 367.326 82.01C367.494 82.393 367.737 82.7387 368.04 83.0269C368.343 83.3151 368.701 83.54 369.092 83.6886C369.483 83.8372 369.9 83.9064 370.318 83.8922C370.736 83.8781 371.147 83.7808 371.527 83.6061L383.551 78.2509C383.551 78.2509 387.699 87.0398 382.732 94.5896L395.333 86.9138C395.669 86.7878 396.005 86.6512 396.331 86.4937C404.143 82.8711 406.716 71.8876 402.085 61.9856Z" fill="white" stroke="#263238" stroke-miterlimit="10"/>
<path d="M401.771 56.989H403.409C403.988 56.989 404.562 57.1031 405.097 57.3247C405.632 57.5463 406.118 57.8712 406.527 58.2807C406.937 58.6902 407.262 59.1764 407.484 59.7114C407.705 60.2465 407.819 60.82 407.819 61.3991V113.06H397.392V61.3991C397.392 60.2349 397.852 59.1179 398.672 58.2918C399.493 57.4656 400.606 56.9973 401.771 56.989Z" fill="white" stroke="#263238" stroke-miterlimit="10"/>
<path d="M402.758 56.989H404.396C404.975 56.989 405.549 57.103 406.084 57.3247C406.619 57.5463 407.105 57.8711 407.515 58.2807C407.924 58.6902 408.249 59.1763 408.471 59.7114C408.692 60.2465 408.806 60.8199 408.806 61.3991V113.061H398.305V61.3991C398.305 60.8164 398.421 60.2395 398.645 59.7017C398.869 59.1638 399.198 58.6758 399.612 58.2657C400.026 57.8556 400.517 57.5317 401.057 57.3125C401.597 57.0934 402.175 56.9834 402.758 56.989Z" fill="white" stroke="#263238" stroke-miterlimit="10"/>
<path d="M371.643 112.306H416.609C417.026 112.306 417.427 112.473 417.723 112.77C418.018 113.067 418.184 113.471 418.184 113.891V116.068H370.088V113.891C370.088 113.474 370.251 113.074 370.542 112.777C370.833 112.481 371.228 112.311 371.643 112.306Z" fill="white" stroke="#263238" stroke-miterlimit="10"/>
<path d="M363.021 115.046H425.22C425.637 115.046 426.038 115.213 426.333 115.51C426.629 115.807 426.795 116.211 426.795 116.631V118.808H361.446V116.631C361.446 116.211 361.612 115.807 361.907 115.51C362.203 115.213 362.603 115.046 363.021 115.046Z" fill="white" stroke="#263238" stroke-miterlimit="10"/>
<path d="M286.89 94.6681C304.589 90.4291 315.5 72.6459 311.261 54.9482C307.021 37.2505 289.237 26.3402 271.539 30.5792C253.84 34.8182 242.929 52.6014 247.168 70.2991C251.407 87.9968 269.192 98.9072 286.89 94.6681Z" fill="#90CAF9" stroke="#263238" stroke-miterlimit="10"/>
<path d="M290.076 54.0279C291.501 48.0191 287.784 41.9929 281.774 40.568C275.764 39.1431 269.737 42.8592 268.312 48.868C266.887 54.8769 270.604 60.9031 276.613 62.328C282.623 63.7529 288.651 60.0368 290.076 54.0279Z" fill="#263238" stroke="#263238" stroke-miterlimit="10"/>
<path d="M297.168 83.4214C297.168 78.6586 295.276 74.0909 291.909 70.7232C288.541 67.3554 283.973 65.4634 279.211 65.4634C274.448 65.4634 269.881 67.3554 266.513 70.7232C263.146 74.0909 261.254 78.6586 261.254 83.4214H297.168Z" fill="#263238" stroke="#263238" stroke-miterlimit="10"/>
<path d="M310.578 68.3284L329.743 76.3716" stroke="#263238" stroke-miterlimit="10"/>
<path d="M378.836 395.462L346.229 342.955L280.691 344.131L312.247 395.535C313.507 397.583 313.988 400.016 313.602 402.389C313.217 404.763 311.99 406.918 310.147 408.462L302.702 408.987H216.004V410.867H370.298C372.098 410.873 373.866 410.396 375.418 409.485C376.971 408.574 378.25 407.263 379.122 405.689C379.994 404.114 380.428 402.335 380.378 400.536C380.327 398.737 379.795 396.984 378.836 395.462Z" fill="#263238" stroke="#263238" stroke-linecap="round" stroke-linejoin="round"/>
<path d="M342.522 344.039L375.129 396.541C376.08 398.063 376.605 399.812 376.652 401.607C376.698 403.401 376.262 405.174 375.391 406.744C374.52 408.313 373.244 409.62 371.696 410.529C370.149 411.438 368.386 411.916 366.591 411.914H299.982C301.769 411.913 303.524 411.436 305.065 410.531C306.606 409.627 307.878 408.328 308.75 406.768C309.622 405.208 310.062 403.444 310.026 401.658C309.989 399.871 309.476 398.127 308.541 396.604L276.984 345.204L342.522 344.039Z" fill="white" stroke="#263238" stroke-linecap="round" stroke-linejoin="round"/>
<path d="M340.685 341.077L275.146 342.243L287.286 362.018H353.685L340.685 341.077Z" fill="#263238" stroke="#263238" stroke-linecap="round" stroke-linejoin="round"/>
<path d="M165.325 354.631L437.779 354.631C439.466 354.631 440.834 353.263 440.834 351.575L440.834 122.441C440.834 120.753 439.466 119.385 437.779 119.385L165.325 119.385C163.637 119.385 162.269 120.753 162.269 122.441L162.269 351.575C162.269 353.263 163.637 354.631 165.325 354.631Z" fill="#263238" stroke="#263238" stroke-linecap="round" stroke-linejoin="round"/>
<path d="M161.25 354.631L420.788 354.631C426.042 354.631 430.302 350.371 430.302 345.117V128.899C430.302 123.645 426.042 119.385 420.788 119.385L161.25 119.385C155.996 119.385 151.736 123.645 151.736 128.899V345.117C151.736 350.371 155.996 354.631 161.25 354.631Z" fill="white" stroke="#263238" stroke-linecap="round" stroke-linejoin="round"/>
<path d="M160.831 119.385H421.261C423.671 119.388 425.981 120.347 427.684 122.052C429.387 123.757 430.344 126.068 430.344 128.478V312.502H151.747V128.478C151.747 126.068 152.704 123.757 154.407 122.052C156.11 120.347 158.421 119.388 160.831 119.385Z" fill="#263238" stroke="#263238" stroke-linecap="round" stroke-linejoin="round"/>
<path d="M163.445 299.614L418.604 299.614V128.738L163.445 128.738L163.445 299.614Z" fill="white" stroke="#263238" stroke-linecap="round" stroke-linejoin="round"/>
<path d="M163.918 209.25H418.74" stroke="#263238" stroke-miterlimit="10"/>
<path d="M174.629 204.417C174.629 204.928 174.478 205.427 174.196 205.851C173.914 206.275 173.514 206.606 173.045 206.801C172.576 206.996 172.06 207.046 171.563 206.946C171.066 206.845 170.609 206.599 170.251 206.237C169.893 205.875 169.65 205.415 169.552 204.914C169.455 204.413 169.507 203.894 169.702 203.423C169.898 202.952 170.228 202.55 170.651 202.268C171.074 201.986 171.57 201.837 172.077 201.839C172.413 201.839 172.746 201.905 173.056 202.035C173.366 202.165 173.648 202.355 173.885 202.595C174.122 202.834 174.31 203.119 174.438 203.431C174.565 203.744 174.63 204.079 174.629 204.417V204.417Z" stroke="#263238" stroke-miterlimit="10"/>
<path d="M183.397 206.988C184.807 206.988 185.949 205.838 185.949 204.42C185.949 203.002 184.807 201.852 183.397 201.852C181.988 201.852 180.846 203.002 180.846 204.42C180.846 205.838 181.988 206.988 183.397 206.988Z" stroke="#263238" stroke-miterlimit="10"/>
<path d="M194.718 206.988C196.127 206.988 197.27 205.838 197.27 204.42C197.27 203.002 196.127 201.852 194.718 201.852C193.308 201.852 192.166 203.002 192.166 204.42C192.166 205.838 193.308 206.988 194.718 206.988Z" stroke="#263238" stroke-miterlimit="10"/>
<path d="M208.59 204.417C208.588 204.925 208.436 205.42 208.155 205.841C207.873 206.262 207.474 206.589 207.007 206.782C206.541 206.975 206.028 207.024 205.534 206.924C205.04 206.824 204.586 206.578 204.23 206.219C203.874 205.859 203.632 205.402 203.535 204.904C203.437 204.406 203.488 203.89 203.682 203.421C203.875 202.953 204.202 202.552 204.622 202.271C205.041 201.989 205.534 201.839 206.038 201.839C206.374 201.839 206.707 201.905 207.017 202.035C207.327 202.165 207.609 202.355 207.846 202.594C208.083 202.834 208.271 203.118 208.399 203.431C208.526 203.744 208.591 204.079 208.59 204.417V204.417Z" stroke="#263238" stroke-miterlimit="10"/>
<path d="M219.921 204.417C219.921 204.927 219.77 205.426 219.489 205.85C219.207 206.274 218.807 206.605 218.339 206.8C217.871 206.995 217.355 207.046 216.858 206.947C216.361 206.847 215.905 206.601 215.546 206.241C215.188 205.88 214.944 205.421 214.845 204.92C214.746 204.42 214.797 203.902 214.991 203.431C215.185 202.959 215.513 202.557 215.935 202.273C216.356 201.99 216.851 201.839 217.358 201.839C217.695 201.837 218.029 201.903 218.34 202.032C218.652 202.161 218.935 202.351 219.173 202.591C219.411 202.831 219.6 203.115 219.728 203.429C219.857 203.742 219.922 204.078 219.921 204.417V204.417Z" stroke="#263238" stroke-miterlimit="10"/>
<path d="M356.867 204.424C356.877 204.938 356.735 205.443 356.458 205.875C356.182 206.306 355.784 206.645 355.315 206.847C354.845 207.05 354.327 207.107 353.826 207.01C353.324 206.914 352.863 206.67 352.501 206.308C352.138 205.947 351.892 205.484 351.792 204.98C351.692 204.477 351.744 203.955 351.942 203.481C352.139 203.007 352.472 202.603 352.899 202.321C353.325 202.039 353.826 201.892 354.336 201.898C355.002 201.904 355.639 202.171 356.112 202.643C356.585 203.115 356.856 203.754 356.867 204.424V204.424Z" stroke="#263238" stroke-miterlimit="10"/>
<path d="M368.187 204.417C368.187 204.928 368.037 205.427 367.755 205.851C367.473 206.275 367.072 206.606 366.603 206.801C366.134 206.996 365.618 207.046 365.121 206.946C364.624 206.845 364.167 206.599 363.809 206.237C363.451 205.875 363.208 205.415 363.11 204.914C363.013 204.413 363.065 203.894 363.261 203.423C363.456 202.952 363.786 202.55 364.209 202.268C364.632 201.986 365.128 201.837 365.635 201.839C365.971 201.839 366.304 201.905 366.614 202.035C366.925 202.165 367.206 202.355 367.443 202.595C367.681 202.834 367.868 203.119 367.996 203.431C368.124 203.744 368.188 204.079 368.187 204.417V204.417Z" stroke="#263238" stroke-miterlimit="10"/>
<path d="M379.539 204.417C379.537 204.925 379.386 205.42 379.104 205.841C378.822 206.262 378.423 206.589 377.957 206.782C377.49 206.975 376.977 207.024 376.483 206.924C375.989 206.824 375.535 206.578 375.179 206.219C374.823 205.859 374.581 205.402 374.484 204.904C374.386 204.406 374.437 203.89 374.631 203.421C374.824 202.953 375.151 202.552 375.571 202.271C375.99 201.989 376.483 201.839 376.987 201.839C377.323 201.839 377.656 201.905 377.966 202.035C378.277 202.165 378.558 202.355 378.795 202.594C379.033 202.834 379.22 203.118 379.348 203.431C379.475 203.744 379.54 204.079 379.539 204.417V204.417Z" stroke="#263238" stroke-miterlimit="10"/>
<path d="M390.838 204.417C390.838 204.927 390.688 205.426 390.407 205.85C390.125 206.274 389.725 206.605 389.257 206.8C388.789 206.995 388.273 207.046 387.776 206.947C387.279 206.847 386.823 206.601 386.464 206.241C386.106 205.88 385.862 205.421 385.763 204.92C385.664 204.42 385.715 203.902 385.909 203.431C386.103 202.959 386.431 202.557 386.853 202.273C387.274 201.99 387.769 201.839 388.276 201.839C388.613 201.837 388.947 201.903 389.258 202.032C389.57 202.161 389.853 202.351 390.091 202.591C390.329 202.831 390.518 203.115 390.646 203.429C390.775 203.742 390.84 204.078 390.838 204.417V204.417Z" stroke="#263238" stroke-miterlimit="10"/>
<path d="M399.596 206.988C401.006 206.988 402.148 205.838 402.148 204.42C402.148 203.002 401.006 201.852 399.596 201.852C398.187 201.852 397.044 203.002 397.044 204.42C397.044 205.838 398.187 206.988 399.596 206.988Z" stroke="#263238" stroke-miterlimit="10"/>
<path d="M410.917 206.988C412.326 206.988 413.468 205.838 413.468 204.42C413.468 203.002 412.326 201.852 410.917 201.852C409.507 201.852 408.365 203.002 408.365 204.42C408.365 205.838 409.507 206.988 410.917 206.988Z" stroke="#263238" stroke-miterlimit="10"/>
<path d="M346.292 268.759H221.674C219.934 268.759 218.524 270.169 218.524 271.909V284.51C218.524 286.25 219.934 287.661 221.674 287.661H346.292C348.032 287.661 349.443 286.25 349.443 284.51V271.909C349.443 270.169 348.032 268.759 346.292 268.759Z" fill="#90CAF9" stroke="#263238" stroke-linecap="round" stroke-linejoin="round"/>
<path d="M249.188 277.518L248.799 275.076H250.122L249.744 277.518L251.939 276.408L252.348 277.666L249.933 278.078L251.655 279.811L250.605 280.593L249.471 278.406L248.337 280.593L247.287 279.811L248.999 278.078L246.594 277.666L247.003 276.408L249.188 277.518Z" fill="#263238"/>
<path d="M257.284 277.518L256.906 275.076H258.229L257.84 277.518L260.035 276.408L260.445 277.666L258.04 278.078L259.752 279.811L258.701 280.593L257.567 278.406L256.433 280.593L255.383 279.811L257.105 278.078L254.69 277.666L255.1 276.408L257.284 277.518Z" fill="#263238"/>
<path d="M265.38 277.518L265.002 275.076H266.326L265.947 277.518L268.132 276.408L268.552 277.666L266.137 278.078L267.859 279.811L266.809 280.593L265.674 278.406L264.54 280.593L263.49 279.811L265.212 278.078L262.808 277.666L263.217 276.408L265.38 277.518Z" fill="#263238"/>
<path d="M273.477 277.518L273.088 275.076H274.422L274.033 277.518L276.228 276.408L276.638 277.666L274.222 278.078L275.945 279.811L274.894 280.593L273.76 278.406L272.637 280.593L271.587 279.811L273.309 278.078L270.894 277.666L271.303 276.408L273.477 277.518Z" fill="#263238"/>
<path d="M281.584 277.518L281.206 275.076H282.529L282.14 277.518L284.335 276.408L284.745 277.666L282.34 278.078L284.062 279.811L283.012 280.593L281.878 278.384L280.744 280.572L279.694 279.79L281.416 278.057L279 277.645L279.421 276.387L281.584 277.518Z" fill="#263238"/>
<path d="M289.691 277.518L289.302 275.076H290.625L290.279 277.518L292.474 276.408L292.883 277.666L290.468 278.078L292.19 279.811L291.14 280.593L290.006 278.406L288.872 280.593L287.822 279.811L289.533 278.078L287.128 277.666L287.538 276.408L289.691 277.518Z" fill="#263238"/>
<path d="M297.787 277.518L297.409 275.076H298.732L298.344 277.518L300.538 276.408L300.948 277.666L298.543 278.078L300.255 279.811L299.205 280.593L298.071 278.406L296.937 280.593L295.886 279.811L297.609 278.078L295.193 277.666L295.603 276.408L297.787 277.518Z" fill="#263238"/>
<path d="M305.884 277.518L305.506 275.076H306.829L306.451 277.518L308.635 276.408L309.055 277.666L306.64 278.078L308.362 279.811L307.312 280.593L306.178 278.406L305.044 280.593L303.994 279.811L305.716 278.078L303.311 277.666L303.721 276.408L305.884 277.518Z" fill="#263238"/>
<path d="M313.991 277.518L313.602 275.076H314.925L314.547 277.518L316.742 276.408L317.151 277.666L314.736 278.078L316.458 279.811L315.408 280.593L314.274 278.406L313.15 280.593L312.1 279.811L313.823 278.078L311.407 277.666L311.817 276.408L313.991 277.518Z" fill="#263238"/>
<path d="M322.087 277.518L321.709 275.076H323.032L322.643 277.518L324.838 276.408L325.248 277.666L322.843 278.078L324.565 279.811L323.515 280.593L322.381 278.406L321.247 280.593L320.196 279.811L321.919 278.078L319.503 277.666L319.923 276.408L322.087 277.518Z" fill="#263238"/>
<path d="M329.509 244.58C353.979 220.111 353.979 180.438 329.509 155.969C305.038 131.5 265.364 131.5 240.893 155.969C216.423 180.438 216.423 220.111 240.893 244.58C265.364 269.049 305.038 269.049 329.509 244.58Z" fill="#90CAF9" stroke="#263238" stroke-linecap="round" stroke-linejoin="round"/>
<path d="M315.482 230.554C332.206 213.831 332.206 186.718 315.482 169.995C298.759 153.272 271.644 153.272 254.92 169.995C238.196 186.718 238.196 213.831 254.92 230.554C271.644 247.277 298.759 247.277 315.482 230.554Z" fill="#263238" stroke="#263238" stroke-linecap="round" stroke-linejoin="round"/>
<path d="M297.295 240.002C319.236 231.174 329.865 206.23 321.036 184.29C312.207 162.35 287.262 151.721 265.321 160.55C243.38 169.378 232.751 194.322 241.58 216.262C250.409 238.202 275.353 248.831 297.295 240.002Z" fill="white" stroke="#263238" stroke-linecap="round" stroke-linejoin="round"/>
<path d="M302.824 221.589C314.598 209.817 314.598 190.732 302.824 178.96C291.05 167.188 271.961 167.188 260.187 178.96C248.413 190.732 248.413 209.817 260.187 221.589C271.961 233.361 291.05 233.361 302.824 221.589Z" fill="#90CAF9" stroke="#263238" stroke-linecap="round" stroke-linejoin="round"/>
<path d="M229.372 178.197L230.096 176.591L238.791 180.575L239.988 177.944L241.437 178.599L239.516 182.826L229.372 178.197Z" fill="#263238"/>
<path d="M234.328 173.93C234.019 173.754 233.748 173.517 233.531 173.234C233.315 172.951 233.157 172.627 233.068 172.281C232.978 171.936 232.959 171.576 233.011 171.222C233.063 170.869 233.185 170.53 233.37 170.225C233.555 169.92 233.799 169.656 234.088 169.447C234.377 169.239 234.704 169.091 235.051 169.012C235.398 168.933 235.758 168.924 236.108 168.987C236.458 169.05 236.792 169.183 237.09 169.378L242.036 172.392C242.363 172.559 242.652 172.792 242.885 173.077C243.117 173.361 243.289 173.691 243.389 174.045C243.49 174.399 243.516 174.77 243.467 175.135C243.417 175.5 243.294 175.851 243.103 176.165C242.913 176.48 242.66 176.752 242.36 176.964C242.06 177.176 241.72 177.323 241.36 177.397C241.001 177.472 240.63 177.47 240.271 177.394C239.912 177.318 239.573 177.168 239.274 176.955L234.328 173.93ZM240.282 175.511C240.965 175.922 241.406 175.785 241.69 175.3C241.973 174.815 241.9 174.362 241.228 173.951L236.082 170.79C235.399 170.369 234.958 170.516 234.675 170.99C234.391 171.465 234.465 171.928 235.137 172.339L240.282 175.511Z" fill="#263238"/>
<path d="M242.614 166.35L246.751 170.654L245.207 172.491L235.882 166.266L236.932 164.964L244.283 169.909L238.098 163.61L239.148 162.329L246.499 167.347L240.356 160.944L241.343 159.768L249.072 167.893L247.57 169.667L242.614 166.35Z" fill="#263238"/>
<path d="M270.82 151.766L270.064 143.792L272.427 143.204L275.126 154.024L273.519 154.423L271.576 146.671L272.343 154.718L270.736 155.117L267.586 147.763L269.487 155.411L268.006 155.789L265.307 144.969L267.67 144.38L270.82 151.766Z" fill="#263238"/>
<path d="M277.11 147.388L279.504 147.146L279.662 148.732L277.268 148.973L277.593 152.218L280.607 151.924L280.764 153.509L276.007 153.971L274.905 142.883L279.662 142.41L279.819 143.996L276.806 144.29L277.11 147.388Z" fill="#263238"/>
<path d="M281.752 142.326L284.524 142.389C286.267 142.389 287.107 143.439 287.065 145.204L286.929 150.844C286.929 152.63 286.005 153.575 284.262 153.533L281.489 153.47L281.752 142.326ZM283.463 143.964L283.274 151.916H284.262C284.818 151.916 285.165 151.643 285.186 150.865L285.322 145.067C285.322 144.269 285.007 144.017 284.451 143.964H283.463Z" fill="#263238"/>
<path d="M289.05 142.685L290.793 142.895L289.46 153.961L287.716 153.751L289.05 142.685Z" fill="#263238"/>
<path d="M294.479 143.524L292.641 151.925C292.473 152.712 292.757 153.059 293.303 153.185C293.849 153.311 294.248 153.09 294.416 152.313L296.254 143.913L297.871 144.259L296.054 152.555C295.676 154.298 294.595 155.096 292.904 154.728C291.213 154.361 290.573 153.174 290.951 151.431L292.757 143.146L294.479 143.524Z" fill="#263238"/>
<path d="M300.895 153.594L304.844 146.634L307.123 147.505L303.122 157.909L301.578 157.311L304.445 149.857L300.444 156.88L298.9 156.282L300.517 148.46L297.682 155.809L296.254 155.263L300.255 144.859L302.534 145.731L300.895 153.594Z" fill="#263238"/>
<path d="M320.974 173.054L319.987 171.616L329.175 165.315L330.163 166.753L326.225 169.452L327.348 171.101L331.286 168.402L332.336 169.872L323.148 176.173L322.098 174.703L326.036 171.994L324.933 170.397L320.974 173.054Z" fill="#263238"/>
<path d="M333.334 171.707L334.174 173.25L324.397 178.652L323.557 177.098L333.334 171.707Z" fill="#263238"/>
<path d="M331.654 179.482L332.63 181.755L329.375 183.16C327.737 183.868 326.455 183.446 325.773 181.86C325.09 180.275 325.678 179.038 327.306 178.33L332.63 176.026C334.279 175.307 335.56 175.73 336.243 177.315C336.925 178.901 336.337 180.137 334.699 180.846L333.701 181.279L333.05 179.746L334.1 179.271C334.825 178.954 334.961 178.51 334.751 178.002C334.541 177.495 334.111 177.284 333.376 177.601L327.852 179.989C327.117 180.307 326.991 180.75 327.212 181.258C327.432 181.765 327.842 181.987 328.566 181.67L330.456 180.856L330.141 180.116L331.654 179.482Z" fill="#263238"/>
<path d="M327.663 186.571L327.18 184.886L337.912 181.854L338.385 183.539L333.785 184.844L334.331 186.761L338.921 185.466L339.404 187.182L328.682 190.214L328.199 188.498L332.798 187.192L332.252 185.276L327.663 186.571Z" fill="#263238"/>
<path d="M251.267 150.424L257.672 160.769" stroke="#263238" stroke-miterlimit="10"/>
<path d="M321.215 153.386L313.833 163.247" stroke="#263238" stroke-miterlimit="10"/>
<path d="M318.013 181.183L291.476 186.401L299.089 200.503L318.013 181.183Z" fill="#263238" stroke="#263238" stroke-miterlimit="10"/>
<path d="M94.2002 400.095H86.0933V402.812H94.2002V400.095Z" fill="white" stroke="#263238" stroke-linecap="round" stroke-linejoin="round"/>
<path d="M105.006 400.095H96.8989V402.812H105.006V400.095Z" fill="white" stroke="#263238" stroke-linecap="round" stroke-linejoin="round"/>
<path d="M115.801 400.095H107.694V402.812H115.801V400.095Z" fill="white" stroke="#263238" stroke-linecap="round" stroke-linejoin="round"/>
<path d="M126.607 400.095H118.5V402.812H126.607V400.095Z" fill="white" stroke="#263238" stroke-linecap="round" stroke-linejoin="round"/>
<path d="M137.413 400.095H129.306V402.812H137.413V400.095Z" fill="white" stroke="#263238" stroke-linecap="round" stroke-linejoin="round"/>
<path d="M148.218 400.095H140.111V402.812H148.218V400.095Z" fill="white" stroke="#263238" stroke-linecap="round" stroke-linejoin="round"/>
<path d="M159.024 400.095H150.917V402.812H159.024V400.095Z" fill="white" stroke="#263238" stroke-linecap="round" stroke-linejoin="round"/>
<path d="M169.83 400.095H161.723V402.812H169.83V400.095Z" fill="white" stroke="#263238" stroke-linecap="round" stroke-linejoin="round"/>
<path d="M180.636 400.095H172.529V402.812H180.636V400.095Z" fill="white" stroke="#263238" stroke-linecap="round" stroke-linejoin="round"/>
<path d="M191.441 400.095H183.334V402.812H191.441V400.095Z" fill="white" stroke="#263238" stroke-linecap="round" stroke-linejoin="round"/>
<path d="M202.247 400.095H194.14V402.812H202.247V400.095Z" fill="white" stroke="#263238" stroke-linecap="round" stroke-linejoin="round"/>
<path d="M213.053 400.095H204.946V402.812H213.053V400.095Z" fill="white" stroke="#263238" stroke-linecap="round" stroke-linejoin="round"/>
<path d="M223.858 400.095H215.751V402.812H223.858V400.095Z" fill="white" stroke="#263238" stroke-linecap="round" stroke-linejoin="round"/>
<path d="M234.665 400.095H226.558V402.812H234.665V400.095Z" fill="white" stroke="#263238" stroke-linecap="round" stroke-linejoin="round"/>
<path d="M245.459 400.095H237.353V402.812H245.459V400.095Z" fill="white" stroke="#263238" stroke-linecap="round" stroke-linejoin="round"/>
<path d="M256.266 400.095H248.159V402.812H256.266V400.095Z" fill="white" stroke="#263238" stroke-linecap="round" stroke-linejoin="round"/>
<path d="M267.071 400.095H258.964V402.812H267.071V400.095Z" fill="white" stroke="#263238" stroke-linecap="round" stroke-linejoin="round"/>
<path d="M277.877 400.095H269.77V402.812H277.877V400.095Z" fill="white" stroke="#263238" stroke-linecap="round" stroke-linejoin="round"/>
<path d="M288.683 400.095H280.576V402.812H288.683V400.095Z" fill="white" stroke="#263238" stroke-linecap="round" stroke-linejoin="round"/>
<path d="M299.488 400.095H291.381V402.812H299.488V400.095Z" fill="white" stroke="#263238" stroke-linecap="round" stroke-linejoin="round"/>
<path d="M310.294 400.095H302.187V402.812H310.294V400.095Z" fill="white" stroke="#263238" stroke-linecap="round" stroke-linejoin="round"/>
<path d="M316.185 403.178H81.9033V411.93H316.185V403.178Z" fill="white" stroke="#263238" stroke-linecap="round" stroke-linejoin="round"/>
<path d="M316.185 403.178H259.038V411.93H316.185V403.178Z" fill="#263238" stroke="#263238" stroke-linecap="round" stroke-linejoin="round"/>
<path d="M424.569 367.2C424.569 367.2 396.74 318.34 403.167 305.918C409.594 293.495 425.986 315.851 425.986 315.851C425.986 315.851 411.726 270.31 419.57 250.442C427.414 230.575 440.971 250.442 441.686 264.513C442.4 278.584 438.829 302.61 438.829 302.61C438.829 302.61 444.531 252.92 458.088 267.831C471.645 282.743 440.971 332.422 440.971 332.422C440.971 332.422 461.659 320.871 460.924 335.729C460.189 350.588 435.952 363.882 435.952 363.882" fill="#90CAF9"/>
<path d="M424.8 358.089C424.8 358.089 399.061 334.073 411.6 323.309C424.138 312.545 430.743 334.86 430.743 334.86C430.743 334.86 416.882 266.131 439.323 263.642C461.764 261.153 445.266 323.267 445.266 323.267C445.266 323.267 464.41 296.773 463.118 318.3C461.827 339.827 433.411 358.047 433.411 358.047" stroke="#263238" stroke-miterlimit="10"/>
<path d="M437.443 353.719L420.042 334.874" stroke="#263238" stroke-miterlimit="10"/>
<path d="M433.82 355.171L438.535 300.073" stroke="#263238" stroke-miterlimit="10"/>
<path d="M433.096 351.185L448.68 330.525" stroke="#263238" stroke-miterlimit="10"/>
<path d="M453.016 411.914L455.642 347.338H407.515L410.14 411.914H453.016Z" fill="#263238"/>
<path d="M473 411.915H11.9971" stroke="#263238" stroke-miterlimit="10"/>
</svg>
