<svg width="150" height="150" viewBox="0 0 150 150" fill="none" xmlns="http://www.w3.org/2000/svg">
<path d="M75 0C94.8912 0 113.968 7.90176 128.033 21.967C142.098 36.0322 150 55.1088 150 75C150 94.8912 142.098 113.968 128.033 128.033C113.968 142.098 94.8912 150 75 150C55.1088 150 36.0322 142.098 21.967 128.033C7.90176 113.968 0 94.8912 0 75C0 55.1088 7.90176 36.0322 21.967 21.967C36.0322 7.90176 55.1088 0 75 0V0ZM42.1875 70.3125C40.9443 70.3125 39.752 70.8064 38.8729 71.6854C37.9939 72.5645 37.5 73.7568 37.5 75C37.5 76.2432 37.9939 77.4355 38.8729 78.3146C39.752 79.1936 40.9443 79.6875 42.1875 79.6875H96.4969L76.3688 99.8063C75.9329 100.242 75.5872 100.759 75.3513 101.329C75.1155 101.898 74.9941 102.509 74.9941 103.125C74.9941 103.741 75.1155 104.352 75.3513 104.921C75.5872 105.491 75.9329 106.008 76.3688 106.444C76.8046 106.88 77.322 107.225 77.8914 107.461C78.4608 107.697 79.0712 107.818 79.6875 107.818C80.3038 107.818 80.9142 107.697 81.4836 107.461C82.053 107.225 82.5704 106.88 83.0062 106.444L111.131 78.3187C111.568 77.8833 111.914 77.3661 112.15 76.7966C112.387 76.2271 112.508 75.6166 112.508 75C112.508 74.3834 112.387 73.7729 112.15 73.2034C111.914 72.6339 111.568 72.1167 111.131 71.6813L83.0062 43.5562C82.5704 43.1204 82.053 42.7747 81.4836 42.5388C80.9142 42.303 80.3038 42.1816 79.6875 42.1816C79.0712 42.1816 78.4608 42.303 77.8914 42.5388C77.322 42.7747 76.8046 43.1204 76.3688 43.5562C75.9329 43.9921 75.5872 44.5095 75.3513 45.0789C75.1155 45.6483 74.9941 46.2587 74.9941 46.875C74.9941 47.4913 75.1155 48.1017 75.3513 48.6711C75.5872 49.2405 75.9329 49.7579 76.3688 50.1938L96.4969 70.3125H42.1875Z" fill="#5DC4F7"/>
</svg>
