<svg width="106" height="84" viewBox="0 0 106 84" fill="none" xmlns="http://www.w3.org/2000/svg">
<g clip-path="url(#clip0_447_4924)">
<path fill-rule="evenodd" clip-rule="evenodd" d="M67.2663 22.9747L70.6521 23.0315L79.8513 14.0372L80.2972 10.2266C72.7425 3.63221 62.967 -0.0081771 52.8396 0.000503771C33.7803 0.000503771 17.6938 12.6795 12.9321 29.854C13.9364 29.1691 16.0832 29.6829 16.0832 29.6829L34.4655 26.728C34.4655 26.728 35.4102 25.1989 35.889 25.2748C40.2353 20.6061 46.3941 17.9463 52.8507 17.9488C58.3011 17.96 63.3219 19.8428 67.266 22.9577V22.975H67.2663V22.9747Z" fill="#EA4335"/>
<path fill-rule="evenodd" clip-rule="evenodd" d="M92.7705 29.8763C90.6348 22.1731 86.2333 15.3712 80.2927 10.2114L67.2666 22.9482C72.4858 27.0662 75.8335 33.3676 75.8335 40.4216V42.6696C82.1706 42.6696 87.3188 47.7146 87.3188 53.8998C87.3188 60.0961 82.1591 65.13 75.8335 65.13H52.863L50.564 67.391V80.8691L52.863 83.1056H75.8335C92.3195 83.083 105.678 70.0216 105.703 53.9016C105.691 43.9619 100.583 35.1685 92.7708 29.8782V29.8766L92.7705 29.8763Z" fill="#4285F4"/>
<path fill-rule="evenodd" clip-rule="evenodd" d="M29.8693 83.1361H52.8265V65.1462H29.8693C28.2381 65.1465 26.6262 64.8039 25.1425 64.1416L21.8278 65.1347L12.6285 74.1297L11.8228 77.1658C17.0068 81.033 23.3473 83.1265 29.868 83.1234L29.8696 83.1361H29.8693Z" fill="#34A853"/>
<path fill-rule="evenodd" clip-rule="evenodd" d="M29.8692 24.7085C13.3831 24.7473 0.0231487 37.8087 0 53.9289C0 63.4135 4.64624 71.8466 11.8353 77.1887L25.1535 64.166C21.0362 62.3503 18.3874 58.3455 18.3836 53.9289C18.3836 47.7326 23.5432 42.6987 29.8689 42.6987C34.5262 42.6987 38.53 45.444 40.34 49.3201L53.6585 36.2975C48.1966 29.2677 39.5704 24.7249 29.8708 24.7249L29.8692 24.7085Z" fill="#FBBC05"/>
</g>
<defs>
<clipPath id="clip0_447_4924">
<rect width="105.702" height="83.1359" fill="white"/>
</clipPath>
</defs>
</svg>
