<svg width="51" height="51" viewBox="0 0 51 51" fill="none" xmlns="http://www.w3.org/2000/svg">
<path d="M25.0835 0.624023C18.2991 0.624023 17.446 0.655273 14.7804 0.774023C12.1147 0.899023 10.2991 1.31777 8.7085 1.93652C7.04004 2.56408 5.52878 3.54848 4.28037 4.8209C3.00873 6.06995 2.02446 7.58102 1.396 9.24902C0.777246 10.8365 0.355371 12.6553 0.233496 15.3115C0.114746 17.9834 0.0834961 18.8334 0.0834961 25.6271C0.0834961 32.4146 0.114746 33.2646 0.233496 35.9303C0.358496 38.5928 0.777246 40.4084 1.396 41.999C2.03662 43.6428 2.88975 45.0365 4.28037 46.4271C5.66787 47.8178 7.06162 48.674 8.70537 49.3115C10.2991 49.9303 12.1116 50.3521 14.7741 50.474C17.4429 50.5928 18.2929 50.624 25.0835 50.624C31.8741 50.624 32.721 50.5928 35.3897 50.474C38.0491 50.349 39.871 49.9303 41.4616 49.3115C43.129 48.6837 44.6392 47.6993 45.8866 46.4271C47.2772 45.0365 48.1304 43.6428 48.771 41.999C49.3866 40.4084 49.8085 38.5928 49.9335 35.9303C50.0522 33.2646 50.0835 32.4146 50.0835 25.624C50.0835 18.8334 50.0522 17.9834 49.9335 15.3146C49.8085 12.6553 49.3866 10.8365 48.771 9.24902C48.1426 7.58098 47.1583 6.06989 45.8866 4.8209C44.6386 3.54801 43.1272 2.56354 41.4585 1.93652C39.8647 1.31777 38.046 0.895898 35.3866 0.774023C32.7179 0.655273 31.871 0.624023 25.0772 0.624023H25.0866H25.0835ZM22.8429 5.13027H25.0866C31.7616 5.13027 32.5522 5.15215 35.1866 5.27402C37.6241 5.3834 38.9491 5.79277 39.8304 6.1334C40.996 6.58652 41.8304 7.13027 42.7054 8.00527C43.5804 8.88027 44.121 9.71152 44.5741 10.8803C44.9179 11.7584 45.3241 13.0834 45.4335 15.5209C45.5554 18.1553 45.5804 18.9459 45.5804 25.6178C45.5804 32.2896 45.5554 33.0834 45.4335 35.7178C45.3241 38.1553 44.9147 39.4771 44.5741 40.3584C44.1733 41.4439 43.5336 42.4254 42.7022 43.2303C41.8272 44.1053 40.996 44.6459 39.8272 45.099C38.9522 45.4428 37.6272 45.849 35.1866 45.9615C32.5522 46.0803 31.7616 46.1084 25.0866 46.1084C18.4116 46.1084 17.6179 46.0803 14.9835 45.9615C12.546 45.849 11.2241 45.4428 10.3429 45.099C9.25693 44.6988 8.27452 44.0602 7.46787 43.2303C6.63584 42.4241 5.99513 41.4417 5.59287 40.3553C5.25225 39.4771 4.84287 38.1521 4.7335 35.7146C4.61475 33.0803 4.58975 32.2896 4.58975 25.6115C4.58975 18.9365 4.61475 18.149 4.7335 15.5146C4.846 13.0771 5.25225 11.7521 5.596 10.8709C6.04912 9.70527 6.59287 8.8709 7.46787 7.9959C8.34287 7.1209 9.17412 6.58027 10.3429 6.12715C11.2241 5.7834 12.546 5.37715 14.9835 5.26465C17.2897 5.1584 18.1835 5.12715 22.8429 5.12402V5.13027ZM38.4304 9.28027C38.0364 9.28027 37.6463 9.35787 37.2823 9.50864C36.9183 9.6594 36.5876 9.88038 36.3091 10.159C36.0305 10.4375 35.8095 10.7682 35.6587 11.1322C35.508 11.4962 35.4304 11.8863 35.4304 12.2803C35.4304 12.6742 35.508 13.0643 35.6587 13.4283C35.8095 13.7923 36.0305 14.123 36.3091 14.4016C36.5876 14.6802 36.9183 14.9011 37.2823 15.0519C37.6463 15.2027 38.0364 15.2803 38.4304 15.2803C39.226 15.2803 39.9891 14.9642 40.5517 14.4016C41.1143 13.839 41.4304 13.0759 41.4304 12.2803C41.4304 11.4846 41.1143 10.7216 40.5517 10.159C39.9891 9.59634 39.226 9.28027 38.4304 9.28027ZM25.0866 12.7865C23.3837 12.76 21.6925 13.0724 20.1116 13.7057C18.5306 14.339 17.0914 15.2805 15.8777 16.4753C14.6641 17.6702 13.7003 19.0945 13.0424 20.6655C12.3845 22.2364 12.0457 23.9225 12.0457 25.6256C12.0457 27.3287 12.3845 29.0148 13.0424 30.5857C13.7003 32.1566 14.6641 33.581 15.8777 34.7758C17.0914 35.9707 18.5306 36.9122 20.1116 37.5455C21.6925 38.1788 23.3837 38.4912 25.0866 38.4646C28.4571 38.4121 31.6717 37.0363 34.0365 34.6342C36.4014 32.2321 37.7269 28.9964 37.7269 25.6256C37.7269 22.2547 36.4014 19.0191 34.0365 16.617C31.6717 14.2149 28.4571 12.8391 25.0866 12.7865ZM25.0866 17.2896C27.297 17.2896 29.4169 18.1677 30.9799 19.7307C32.5429 21.2937 33.421 23.4136 33.421 25.624C33.421 27.8344 32.5429 29.9543 30.9799 31.5173C29.4169 33.0803 27.297 33.9584 25.0866 33.9584C22.8762 33.9584 20.7563 33.0803 19.1933 31.5173C17.6303 29.9543 16.7522 27.8344 16.7522 25.624C16.7522 23.4136 17.6303 21.2937 19.1933 19.7307C20.7563 18.1677 22.8762 17.2896 25.0866 17.2896Z" fill="#000059"/>
</svg>
