<svg width="51" height="51" viewBox="0 0 51 51" fill="none" xmlns="http://www.w3.org/2000/svg">
<path d="M10.1688 0.634766C4.783 0.634766 0.375 5.04267 0.375 10.4286V40.8207C0.375 46.2065 4.7829 50.6129 10.1688 50.6129H40.5609C45.9468 50.6129 50.3531 46.2066 50.3531 40.8207V10.4286C50.3531 5.04277 45.9468 0.634766 40.5609 0.634766H10.1688ZM12.6322 8.88217C15.2146 8.88217 16.8052 10.5775 16.8543 12.8059C16.8543 14.9852 15.2144 16.7281 12.5822 16.7281H12.5338C10.0005 16.7281 8.36315 14.9853 8.36315 12.8059C8.36315 10.5775 10.05 8.88217 12.6321 8.88217H12.6322ZM34.8862 19.2977C39.8526 19.2977 43.5756 22.5438 43.5756 29.5195V42.5419H36.028V30.3926C36.028 27.3396 34.9356 25.2567 32.2042 25.2567C30.119 25.2567 28.8761 26.6606 28.3304 28.0168C28.131 28.502 28.0821 29.1796 28.0821 29.8584V42.5419H20.5344C20.5344 42.5419 20.6334 21.9613 20.5344 19.8303H28.0836V23.0465C29.0866 21.499 30.8807 19.2976 34.8862 19.2976V19.2977ZM8.80835 19.8319H16.356V42.542H8.80835V19.8319Z" fill="#000059"/>
</svg>
