<svg width="743" height="892" viewBox="0 0 743 892" fill="none" xmlns="http://www.w3.org/2000/svg">
<path d="M532.567 567.965L532.643 568.121L532.725 568.275C540.72 583.376 544.746 599.828 544.746 617.795C544.746 637.6 538.86 654.975 527.053 670.281C515.246 685.586 497.64 698.061 473.52 707.338L473.489 707.35L473.458 707.362C468.51 709.303 463.276 711.049 457.75 712.595V514.047C468.123 517.975 477.112 522.041 484.76 526.226L484.858 526.279L484.957 526.331C510.419 539.533 525.604 553.629 532.567 567.965ZM202.266 814.185C238.221 832.707 279.663 844.454 326.422 849.61V875V885H336.422H447.75H457.75V875V847.465C476.826 844.618 494.99 840.592 512.233 835.374L512.272 835.362L512.312 835.35C550.845 823.339 584.16 806.735 612.085 785.411L612.095 785.402L612.106 785.394C640.557 763.548 662.328 737.492 677.215 707.229C692.609 676.931 700.244 643.644 700.244 607.541C700.244 563.398 689.565 525.201 667.719 493.472C645.99 461.913 613.219 435.765 570.121 414.717C538.698 399.371 501.208 385.732 457.75 373.742V157.374C460.449 158.648 463.076 160.001 465.632 161.432L465.668 161.453L465.705 161.473C489.311 174.433 506.707 190.617 518.357 209.883L518.428 210.001L518.502 210.117C521.444 214.693 520.464 219.819 513.828 230.872C512.997 232.255 512.054 233.77 511.06 235.366C508.691 239.169 506.033 243.435 503.933 247.481C500.847 253.428 498 260.573 498 268.43V278.43H508H682.188H692.188V268.43C692.188 221.164 679.706 178.019 654.716 139.252C651.492 134.187 648.086 129.254 644.497 124.453H682.188H689.289L691.629 117.748L723.941 25.1703L728.582 11.875H714.5H412.792C402.265 11.2051 391.477 10.8711 380.43 10.8711C369.928 10.8711 359.64 11.2051 349.566 11.875H62.7891H49.8743L53.1075 24.3785L77.047 116.957L78.9855 124.453H86.7285H119.938C111.716 135.433 104.508 147.002 98.3235 159.159L98.2917 159.221L98.2608 159.284C83.9095 188.499 76.7285 219.55 76.7285 252.316C76.7285 286.393 83.6029 316.647 97.7048 342.761C111.65 368.585 131.471 390.913 156.952 409.769L156.99 409.797L157.028 409.825C182.832 428.546 213.735 444.33 249.592 457.279L249.612 457.286L249.633 457.293C273.454 465.777 299.053 473.491 326.422 480.442V714.871C318.611 713.136 310.771 711.049 302.902 708.609C275.551 699.643 255.634 689.392 237.721 669.704C230.091 661.087 225.012 644.844 221.858 624.161C219.035 605.648 217.995 585.526 217.081 567.866C216.998 566.246 216.915 564.646 216.832 563.07L216.333 553.596H206.846H20H10V563.596C10 588.739 24.5898 617.315 40.6724 643.053C48.8888 656.202 57.8671 669.162 66.2473 681.172C66.9365 682.16 67.6211 683.141 68.3005 684.114C75.9513 695.072 82.9473 705.092 88.5201 713.943C114.521 755.239 152.6 788.599 202.266 814.185ZM293.272 158.76L293.311 158.741L293.349 158.722C302.911 153.94 313.913 150.144 326.422 147.402V339.757C323.188 338.709 320.066 337.663 317.057 336.619C293.635 328.493 276.082 320.093 263.969 311.591C251.85 302.596 243.902 293.382 239.414 284.119C235.176 273.848 232.959 262.079 232.959 248.654C232.959 231.002 237.56 214.207 246.926 198.118C256.465 182.552 271.662 169.335 293.272 158.76Z" fill="#4e4376" stroke="#2b5876" stroke-width="20"/>
</svg>
