<svg width="50" height="51" viewBox="0 0 50 51" fill="none" xmlns="http://www.w3.org/2000/svg">
<path d="M24.9998 4.61133C13.5123 4.61133 4.1665 12.0408 4.1665 21.1718C4.1665 27.1916 8.12067 32.5882 14.5832 35.5257V46.0126L25.7082 37.722C36.8686 37.426 45.8332 30.1145 45.8332 21.1718C45.8332 12.0408 36.4873 4.61133 24.9998 4.61133ZM24.9998 33.5922H24.3061L18.7498 37.7323V32.729L17.4144 32.2177C11.8123 30.0752 8.33317 25.8419 8.33317 21.1718C8.33317 14.322 15.8103 8.75146 24.9998 8.75146C34.1894 8.75146 41.6665 14.322 41.6665 21.1718C41.6665 28.0217 34.1894 33.5922 24.9998 33.5922Z" fill="#000059"/>
<path d="M14.5835 14.9614H35.4168V19.1016H14.5835V14.9614ZM14.5835 23.2417H29.1668V27.3818H14.5835V23.2417Z" fill="#000059"/>
</svg>
