<svg width="381" height="56" viewBox="0 0 381 56" fill="none" xmlns="http://www.w3.org/2000/svg">
<g clip-path="url(#clip0_439_292)">
<path d="M0.702148 0.0678711H26.762V25.549H0.702148V0.0678711Z" fill="#F25022"/>
<path d="M29.4829 0.0678711H55.5428V25.549H29.4829V0.0678711Z" fill="#7FBA00"/>
<path d="M0.702148 28.2095H26.762V53.6906H0.702148V28.2095Z" fill="#00A4EF"/>
<path d="M29.4829 28.2095H55.5428V53.6906H29.4829V28.2095Z" fill="#FFB900"/>
</g>
<path d="M63.4121 24.189L61.4433 43.0679H57.1367L61.4433 17.7554H67.8242L73.748 37.0737L79.7421 17.7554H86.123L89.7089 43.0679H82.6074L80.5156 24.6812L75.5761 43.0679H69.1953L63.4121 24.189ZM99.1491 17.8608C99.1491 18.3062 99.0612 18.728 98.8854 19.1265C98.7214 19.5249 98.4928 19.8706 98.1999 20.1636C97.9069 20.4565 97.5612 20.6909 97.1628 20.8667C96.7643 21.0308 96.3425 21.1128 95.8971 21.1128C95.4518 21.1128 95.03 21.0308 94.6315 20.8667C94.2448 20.6909 93.905 20.4565 93.612 20.1636C93.319 19.8706 93.0846 19.5249 92.9089 19.1265C92.7448 18.728 92.6628 18.3062 92.6628 17.8608C92.6628 17.4155 92.7448 16.9995 92.9089 16.6128C93.0846 16.2144 93.319 15.8687 93.612 15.5757C93.905 15.2827 94.2448 15.0542 94.6315 14.8901C95.03 14.7144 95.4518 14.6265 95.8971 14.6265C96.3425 14.6265 96.7643 14.7144 97.1628 14.8901C97.5612 15.0542 97.9069 15.2827 98.1999 15.5757C98.4928 15.8687 98.7214 16.2144 98.8854 16.6128C99.0612 16.9995 99.1491 17.4155 99.1491 17.8608ZM98.8854 43.0679H92.9264V22.7827H98.8854V43.0679ZM121.896 27.7925L119.329 28.812C118.919 27.5229 118.234 26.5327 117.273 25.8413C116.312 25.1499 115.158 24.8042 113.81 24.8042C113.083 24.8042 112.433 24.9214 111.859 25.1558C111.296 25.3784 110.798 25.689 110.365 26.0874C109.943 26.4858 109.579 26.9487 109.275 27.4761C108.982 28.0034 108.742 28.5659 108.554 29.1636C108.367 29.7612 108.232 30.3823 108.15 31.0269C108.068 31.6597 108.027 32.2749 108.027 32.8726C108.027 33.5171 108.062 34.1675 108.132 34.8237C108.203 35.48 108.32 36.1128 108.484 36.7222C108.66 37.3198 108.888 37.8823 109.169 38.4097C109.451 38.9253 109.802 39.3765 110.224 39.7632C110.658 40.1499 111.167 40.4546 111.753 40.6772C112.351 40.8999 113.037 41.0112 113.81 41.0112C114.431 41.0112 115.023 40.9175 115.585 40.73C116.148 40.5425 116.663 40.2788 117.132 39.939C117.601 39.5991 118.017 39.1948 118.38 38.7261C118.744 38.2573 119.031 37.7358 119.242 37.1616L121.826 38.1108C121.439 39.0366 120.923 39.8394 120.279 40.519C119.646 41.187 118.925 41.7437 118.117 42.189C117.308 42.6226 116.441 42.9448 115.515 43.1558C114.589 43.3667 113.652 43.4722 112.703 43.4722C111.167 43.4722 109.744 43.2144 108.431 42.6987C107.119 42.1714 105.982 41.439 105.021 40.5015C104.072 39.5522 103.328 38.4331 102.788 37.144C102.249 35.8433 101.98 34.4194 101.98 32.8726C101.98 31.314 102.244 29.8843 102.771 28.5835C103.31 27.2827 104.054 26.1636 105.003 25.2261C105.953 24.2886 107.083 23.562 108.396 23.0464C109.708 22.5308 111.144 22.2729 112.703 22.2729C113.687 22.2729 114.648 22.3843 115.585 22.6069C116.523 22.8179 117.39 23.1519 118.187 23.6089C118.996 24.0542 119.716 24.6226 120.349 25.314C120.994 26.0054 121.509 26.8315 121.896 27.7925ZM141.953 24.5581L138.613 30.0952C138.473 29.6265 138.291 29.0991 138.068 28.5132C137.846 27.9272 137.57 27.3823 137.242 26.8784C136.914 26.3628 136.522 25.9351 136.065 25.5952C135.608 25.2437 135.08 25.0679 134.483 25.0679C133.932 25.0679 133.451 25.2085 133.041 25.4897C132.643 25.771 132.303 26.1401 132.022 26.5972C131.74 27.0425 131.506 27.5522 131.318 28.1265C131.143 28.689 131.002 29.2632 130.897 29.8491C130.803 30.4233 130.738 30.98 130.703 31.519C130.668 32.0464 130.65 32.5034 130.65 32.8901V43.0679H124.692V22.7651H126.977L129.385 27.4937C129.713 26.7319 130.088 26.0347 130.51 25.4019C130.932 24.7573 131.418 24.2065 131.969 23.7495C132.52 23.2808 133.141 22.9175 133.832 22.6597C134.535 22.4019 135.326 22.2729 136.205 22.2729C136.662 22.2729 137.172 22.314 137.734 22.396C138.297 22.4663 138.848 22.5952 139.387 22.7827C139.926 22.9585 140.424 23.1929 140.881 23.4858C141.338 23.7788 141.695 24.1362 141.953 24.5581ZM164.647 32.8726C164.647 33.9272 164.507 34.9175 164.225 35.8433C163.944 36.769 163.552 37.6245 163.048 38.4097C162.556 39.1948 161.958 39.9038 161.255 40.5366C160.552 41.1577 159.778 41.6851 158.934 42.1187C158.102 42.5522 157.206 42.8862 156.245 43.1206C155.296 43.355 154.317 43.4722 153.309 43.4722C152.302 43.4722 151.323 43.355 150.374 43.1206C149.425 42.8862 148.528 42.5522 147.684 42.1187C146.852 41.6851 146.085 41.1577 145.382 40.5366C144.679 39.9038 144.075 39.1948 143.571 38.4097C143.079 37.6245 142.692 36.769 142.411 35.8433C142.13 34.9058 141.989 33.9155 141.989 32.8726C141.989 31.8296 142.13 30.8452 142.411 29.9194C142.692 28.9819 143.079 28.1206 143.571 27.3354C144.075 26.5503 144.679 25.8472 145.382 25.2261C146.085 24.5933 146.852 24.0601 147.684 23.6265C148.528 23.1929 149.425 22.8589 150.374 22.6245C151.323 22.3901 152.302 22.2729 153.309 22.2729C154.317 22.2729 155.296 22.3901 156.245 22.6245C157.206 22.8589 158.102 23.1929 158.934 23.6265C159.778 24.0601 160.552 24.5933 161.255 25.2261C161.958 25.8472 162.556 26.5503 163.048 27.3354C163.552 28.1206 163.944 28.9819 164.225 29.9194C164.507 30.8452 164.647 31.8296 164.647 32.8726ZM158.6 32.8726C158.6 32.3101 158.565 31.7183 158.495 31.0972C158.436 30.4644 158.331 29.8491 158.179 29.2515C158.026 28.6421 157.815 28.062 157.546 27.5112C157.288 26.9487 156.966 26.4624 156.579 26.0522C156.192 25.6304 155.729 25.2964 155.19 25.0503C154.651 24.7925 154.024 24.6636 153.309 24.6636C152.63 24.6636 152.026 24.7925 151.499 25.0503C150.972 25.3081 150.509 25.6538 150.11 26.0874C149.723 26.5093 149.395 27.0015 149.126 27.564C148.868 28.1265 148.657 28.7124 148.493 29.3218C148.329 29.9194 148.212 30.5288 148.141 31.1499C148.071 31.7593 148.036 32.3335 148.036 32.8726C148.036 33.4116 148.071 33.9917 148.141 34.6128C148.212 35.2222 148.329 35.8315 148.493 36.4409C148.657 37.0503 148.868 37.6362 149.126 38.1987C149.395 38.7495 149.723 39.2417 150.11 39.6753C150.509 40.0972 150.972 40.437 151.499 40.6948C152.026 40.9526 152.63 41.0815 153.309 41.0815C154.013 41.0815 154.634 40.9585 155.173 40.7124C155.712 40.4546 156.175 40.1147 156.561 39.6929C156.96 39.271 157.288 38.7847 157.546 38.2339C157.804 37.6831 158.009 37.103 158.161 36.4937C158.325 35.8843 158.436 35.269 158.495 34.6479C158.565 34.0269 158.6 33.4351 158.6 32.8726ZM185.162 36.5815C185.162 37.4722 185.033 38.2632 184.775 38.9546C184.517 39.646 184.166 40.2495 183.72 40.7651C183.275 41.269 182.748 41.6968 182.138 42.0483C181.529 42.3882 180.873 42.6636 180.169 42.8745C179.478 43.0854 178.752 43.2378 177.99 43.3315C177.228 43.4253 176.472 43.4722 175.722 43.4722C174.714 43.4722 173.824 43.4077 173.05 43.2788C172.277 43.1499 171.539 42.9448 170.836 42.6636C170.132 42.3706 169.429 41.9956 168.726 41.5386C168.035 41.0815 167.261 40.5249 166.406 39.8687L169.869 37.0386C170.185 37.6362 170.601 38.1812 171.117 38.6733C171.644 39.1538 172.189 39.5698 172.752 39.9214C173.314 40.2729 173.859 40.5425 174.386 40.73C174.914 40.9175 175.341 41.0112 175.669 41.0112C175.939 41.0112 176.244 41.0054 176.584 40.9937C176.923 40.9702 177.269 40.9351 177.621 40.8882C177.972 40.8296 178.318 40.7476 178.658 40.6421C178.998 40.5366 179.296 40.396 179.554 40.2202C179.824 40.0327 180.035 39.8042 180.187 39.5347C180.351 39.2534 180.433 38.9194 180.433 38.5327C180.433 38.1343 180.328 37.7886 180.117 37.4956C179.918 37.1909 179.654 36.9272 179.326 36.7046C178.998 36.4819 178.623 36.2944 178.201 36.1421C177.779 35.9897 177.351 35.855 176.918 35.7378C176.496 35.6206 176.086 35.521 175.687 35.439C175.289 35.3452 174.943 35.2573 174.65 35.1753C174.111 35.0229 173.543 34.8706 172.945 34.7183C172.347 34.5542 171.755 34.3726 171.169 34.1733C170.584 33.9624 170.021 33.7163 169.482 33.4351C168.955 33.1538 168.486 32.8198 168.076 32.4331C167.677 32.0347 167.355 31.5718 167.109 31.0444C166.875 30.5054 166.757 29.8784 166.757 29.1636C166.757 27.8511 167.015 26.7554 167.531 25.8765C168.058 24.9858 168.75 24.2769 169.605 23.7495C170.461 23.2104 171.433 22.8296 172.523 22.6069C173.613 22.3843 174.72 22.2729 175.845 22.2729C176.619 22.2729 177.433 22.355 178.289 22.519C179.144 22.6714 179.976 22.9058 180.785 23.2222C181.593 23.5269 182.349 23.9019 183.052 24.3472C183.755 24.7925 184.341 25.3022 184.81 25.8765L181.347 28.7241C181.089 28.021 180.75 27.4175 180.328 26.9136C179.918 26.4097 179.466 25.9995 178.974 25.6831C178.494 25.355 177.996 25.1147 177.48 24.9624C176.976 24.8101 176.507 24.7339 176.074 24.7339C175.652 24.7339 175.177 24.7515 174.65 24.7866C174.123 24.8218 173.625 24.9214 173.156 25.0854C172.699 25.2495 172.306 25.5015 171.978 25.8413C171.662 26.1694 171.503 26.6265 171.503 27.2124C171.503 27.6343 171.597 27.9976 171.785 28.3022C171.984 28.5952 172.242 28.853 172.558 29.0757C172.875 29.2866 173.232 29.4683 173.63 29.6206C174.041 29.7612 174.457 29.8901 174.878 30.0073C175.3 30.1128 175.711 30.2065 176.109 30.2886C176.507 30.3706 176.865 30.4585 177.181 30.5522C177.72 30.7046 178.289 30.8628 178.886 31.0269C179.496 31.1792 180.093 31.3608 180.679 31.5718C181.265 31.771 181.828 32.0112 182.367 32.2925C182.918 32.562 183.398 32.896 183.808 33.2944C184.218 33.6929 184.546 34.1616 184.793 34.7007C185.039 35.228 185.162 35.855 185.162 36.5815ZM209.649 32.8726C209.649 33.9272 209.508 34.9175 209.227 35.8433C208.946 36.769 208.553 37.6245 208.049 38.4097C207.557 39.1948 206.959 39.9038 206.256 40.5366C205.553 41.1577 204.78 41.6851 203.936 42.1187C203.104 42.5522 202.207 42.8862 201.246 43.1206C200.297 43.355 199.319 43.4722 198.311 43.4722C197.303 43.4722 196.324 43.355 195.375 43.1206C194.426 42.8862 193.53 42.5522 192.686 42.1187C191.854 41.6851 191.086 41.1577 190.383 40.5366C189.68 39.9038 189.076 39.1948 188.573 38.4097C188.08 37.6245 187.694 36.769 187.412 35.8433C187.131 34.9058 186.99 33.9155 186.99 32.8726C186.99 31.8296 187.131 30.8452 187.412 29.9194C187.694 28.9819 188.08 28.1206 188.573 27.3354C189.076 26.5503 189.68 25.8472 190.383 25.2261C191.086 24.5933 191.854 24.0601 192.686 23.6265C193.53 23.1929 194.426 22.8589 195.375 22.6245C196.324 22.3901 197.303 22.2729 198.311 22.2729C199.319 22.2729 200.297 22.3901 201.246 22.6245C202.207 22.8589 203.104 23.1929 203.936 23.6265C204.78 24.0601 205.553 24.5933 206.256 25.2261C206.959 25.8472 207.557 26.5503 208.049 27.3354C208.553 28.1206 208.946 28.9819 209.227 29.9194C209.508 30.8452 209.649 31.8296 209.649 32.8726ZM203.602 32.8726C203.602 32.3101 203.567 31.7183 203.496 31.0972C203.438 30.4644 203.332 29.8491 203.18 29.2515C203.028 28.6421 202.817 28.062 202.547 27.5112C202.289 26.9487 201.967 26.4624 201.58 26.0522C201.194 25.6304 200.731 25.2964 200.192 25.0503C199.653 24.7925 199.026 24.6636 198.311 24.6636C197.631 24.6636 197.028 24.7925 196.5 25.0503C195.973 25.3081 195.51 25.6538 195.112 26.0874C194.725 26.5093 194.397 27.0015 194.127 27.564C193.869 28.1265 193.658 28.7124 193.494 29.3218C193.33 29.9194 193.213 30.5288 193.143 31.1499C193.073 31.7593 193.037 32.3335 193.037 32.8726C193.037 33.4116 193.073 33.9917 193.143 34.6128C193.213 35.2222 193.33 35.8315 193.494 36.4409C193.658 37.0503 193.869 37.6362 194.127 38.1987C194.397 38.7495 194.725 39.2417 195.112 39.6753C195.51 40.0972 195.973 40.437 196.5 40.6948C197.028 40.9526 197.631 41.0815 198.311 41.0815C199.014 41.0815 199.635 40.9585 200.174 40.7124C200.713 40.4546 201.176 40.1147 201.563 39.6929C201.961 39.271 202.289 38.7847 202.547 38.2339C202.805 37.6831 203.01 37.103 203.162 36.4937C203.326 35.8843 203.438 35.269 203.496 34.6479C203.567 34.0269 203.602 33.4351 203.602 32.8726ZM231.13 14.4155L227.772 19.9702C227.737 19.5249 227.655 19.0151 227.526 18.4409C227.397 17.855 227.181 17.3042 226.876 16.7886C226.583 16.2729 226.173 15.8394 225.646 15.4878C225.13 15.1245 224.468 14.9429 223.659 14.9429C222.827 14.9429 222.159 15.1069 221.655 15.4351C221.151 15.7632 220.765 16.2554 220.495 16.9116C220.226 17.5679 220.044 18.3823 219.95 19.355C219.856 20.3276 219.81 21.4585 219.81 22.7476H225.962V25.103H219.81V43.0679H213.851V25.103H210.159V22.7476H213.851C213.851 20.8843 214.05 19.2847 214.448 17.9487C214.847 16.6128 215.45 15.5171 216.259 14.6616C217.067 13.7944 218.081 13.1616 219.3 12.7632C220.53 12.353 221.966 12.1479 223.606 12.1479C224.591 12.1479 225.47 12.2183 226.243 12.3589C227.028 12.4878 227.72 12.6636 228.317 12.8862C228.927 13.0972 229.46 13.3374 229.917 13.6069C230.374 13.8765 230.778 14.146 231.13 14.4155ZM236.633 43.0679H230.674V25.1206H226.982V22.7651H230.674V15.2944H236.633V22.7651H242.785V25.1206H236.633V43.0679ZM278.786 30.9565V31.2905C278.763 32.2749 278.657 33.2944 278.47 34.3491C278.294 35.4038 278.042 36.4585 277.714 37.5132C277.386 38.5679 276.993 39.6108 276.536 40.6421C276.079 41.6733 275.564 42.6577 274.989 43.5952C274.427 44.5444 273.818 45.4292 273.161 46.2495C272.505 47.0815 271.814 47.814 271.087 48.4468L268.468 46.9351C268.878 46.2437 269.247 45.4878 269.575 44.6675C269.915 43.8589 270.22 43.0093 270.489 42.1187C270.759 41.228 270.987 40.314 271.175 39.3765C271.374 38.439 271.538 37.5073 271.667 36.5815C271.796 35.6558 271.89 34.7476 271.948 33.8569C272.019 32.9546 272.054 32.0991 272.054 31.2905C272.054 30.6577 272.048 29.9429 272.036 29.146C272.036 28.3374 271.989 27.5171 271.896 26.6851C271.814 25.853 271.673 25.0444 271.474 24.2593C271.275 23.4624 270.976 22.7534 270.577 22.1323C270.191 21.5112 269.687 21.0132 269.066 20.6382C268.456 20.2632 267.694 20.0757 266.78 20.0757C265.972 20.0757 265.275 20.2163 264.689 20.4976C264.114 20.7671 263.622 21.1362 263.212 21.605C262.814 22.062 262.491 22.5952 262.245 23.2046C262.011 23.814 261.823 24.4585 261.683 25.1382C261.554 25.8062 261.466 26.4858 261.419 27.1772C261.384 27.8569 261.366 28.5015 261.366 29.1108V34.0151H268.943V36.9155H261.366V43.0679H254.388V30.2007C254.388 28.3608 254.681 26.6499 255.267 25.0679C255.853 23.4858 256.679 22.1147 257.745 20.9546C258.823 19.7827 260.112 18.8687 261.612 18.2124C263.124 17.5444 264.806 17.2104 266.657 17.2104C267.911 17.2104 269.083 17.3921 270.173 17.7554C271.275 18.1069 272.277 18.5991 273.179 19.2319C274.081 19.853 274.884 20.5972 275.587 21.4644C276.302 22.3198 276.894 23.2573 277.362 24.2769C277.843 25.2964 278.206 26.3745 278.452 27.5112C278.698 28.6479 278.81 29.7964 278.786 30.9565ZM297.894 43.0679H280.703V40.7124L291.338 25.1206H280.703V22.7651H297.894V25.1206L287.26 40.7124H297.894V43.0679ZM299.635 34.3843C299.635 33.4585 299.712 32.4976 299.864 31.5015C300.028 30.5054 300.256 29.5093 300.549 28.5132C300.854 27.5171 301.217 26.5327 301.639 25.5601C302.061 24.5874 302.536 23.6558 303.063 22.7651H307.405C307.112 23.644 306.848 24.564 306.614 25.5249C306.391 26.4741 306.198 27.4292 306.034 28.3901C305.881 29.3394 305.758 30.271 305.665 31.1851C305.583 32.0991 305.542 32.9487 305.542 33.7339C305.542 34.1909 305.559 34.6831 305.594 35.2104C305.641 35.7261 305.717 36.2476 305.823 36.7749C305.928 37.2905 306.075 37.7886 306.262 38.269C306.462 38.7495 306.713 39.1772 307.018 39.5522C307.323 39.9155 307.692 40.2085 308.126 40.4312C308.571 40.6421 309.092 40.7476 309.69 40.7476C310.276 40.7476 310.797 40.6187 311.254 40.3608C311.723 40.0913 312.133 39.7456 312.485 39.3237C312.837 38.8901 313.135 38.3979 313.381 37.8472C313.628 37.2964 313.827 36.7339 313.979 36.1597C314.143 35.5737 314.26 35.0054 314.331 34.4546C314.413 33.8921 314.454 33.3882 314.454 32.9429V22.7651H320.395V43.0679H318.11L315.385 38.3394C315.046 39.1245 314.629 39.8394 314.137 40.4839C313.657 41.1167 313.106 41.6616 312.485 42.1187C311.864 42.5757 311.172 42.9272 310.411 43.1733C309.661 43.4194 308.846 43.5425 307.967 43.5425C306.561 43.5425 305.337 43.314 304.294 42.8569C303.251 42.3999 302.383 41.7671 301.692 40.9585C301.001 40.1499 300.485 39.189 300.145 38.0757C299.805 36.9507 299.635 35.7202 299.635 34.3843ZM341.894 24.5581L338.554 30.0952C338.413 29.6265 338.232 29.0991 338.009 28.5132C337.786 27.9272 337.511 27.3823 337.183 26.8784C336.855 26.3628 336.462 25.9351 336.005 25.5952C335.548 25.2437 335.021 25.0679 334.423 25.0679C333.872 25.0679 333.392 25.2085 332.982 25.4897C332.583 25.771 332.243 26.1401 331.962 26.5972C331.681 27.0425 331.447 27.5522 331.259 28.1265C331.083 28.689 330.943 29.2632 330.837 29.8491C330.743 30.4233 330.679 30.98 330.644 31.519C330.609 32.0464 330.591 32.5034 330.591 32.8901V43.0679H324.632V22.7651H326.917L329.326 27.4937C329.654 26.7319 330.029 26.0347 330.451 25.4019C330.872 24.7573 331.359 24.2065 331.909 23.7495C332.46 23.2808 333.081 22.9175 333.773 22.6597C334.476 22.4019 335.267 22.2729 336.146 22.2729C336.603 22.2729 337.113 22.314 337.675 22.396C338.238 22.4663 338.788 22.5952 339.327 22.7827C339.867 22.9585 340.365 23.1929 340.822 23.4858C341.279 23.7788 341.636 24.1362 341.894 24.5581ZM348.029 33.4351C348.756 33.5991 349.482 33.728 350.209 33.8218C350.936 33.9155 351.668 33.9624 352.406 33.9624C353.18 33.9624 353.895 33.8921 354.551 33.7515C355.219 33.5991 355.793 33.353 356.273 33.0132C356.766 32.6616 357.152 32.1987 357.434 31.6245C357.715 31.0503 357.856 30.3354 357.856 29.48C357.856 28.7886 357.762 28.1558 357.574 27.5815C357.387 27.0073 357.106 26.5151 356.731 26.105C356.367 25.6948 355.916 25.3784 355.377 25.1558C354.838 24.9214 354.211 24.8042 353.496 24.8042C352.828 24.8042 352.225 24.9272 351.686 25.1733C351.158 25.4194 350.69 25.7534 350.279 26.1753C349.881 26.5854 349.535 27.0659 349.242 27.6167C348.961 28.1675 348.727 28.7417 348.539 29.3394C348.352 29.937 348.217 30.5405 348.135 31.1499C348.053 31.7593 348.012 32.3335 348.012 32.8726C348.012 32.9663 348.012 33.0601 348.012 33.1538C348.012 33.2476 348.018 33.3413 348.029 33.4351ZM362.672 29.4272C362.672 30.2593 362.537 31.0034 362.268 31.6597C361.998 32.3042 361.629 32.8726 361.16 33.3647C360.703 33.8569 360.17 34.2729 359.561 34.6128C358.951 34.9526 358.301 35.2339 357.609 35.4565C356.918 35.6675 356.203 35.8198 355.465 35.9136C354.738 36.0073 354.029 36.0542 353.338 36.0542C352.459 36.0542 351.592 35.9956 350.736 35.8784C349.881 35.7495 349.037 35.5503 348.205 35.2808C348.334 36.0542 348.539 36.7925 348.82 37.4956C349.102 38.187 349.477 38.7964 349.945 39.3237C350.414 39.8394 350.988 40.2495 351.668 40.5542C352.359 40.8589 353.174 41.0112 354.111 41.0112C354.732 41.0112 355.324 40.9175 355.887 40.73C356.449 40.5425 356.965 40.2788 357.434 39.939C357.902 39.5991 358.313 39.1948 358.664 38.7261C359.027 38.2573 359.32 37.7358 359.543 37.1616L362.109 38.1108C361.723 39.0366 361.19 39.8394 360.51 40.519C359.842 41.187 359.08 41.7437 358.225 42.189C357.381 42.6226 356.479 42.9448 355.518 43.1558C354.568 43.3667 353.625 43.4722 352.688 43.4722C351.141 43.4722 349.711 43.2144 348.398 42.6987C347.086 42.1714 345.955 41.439 345.006 40.5015C344.057 39.564 343.313 38.4448 342.773 37.144C342.234 35.8433 341.965 34.4194 341.965 32.8726C341.965 31.3257 342.234 29.9019 342.773 28.6011C343.313 27.3003 344.057 26.1812 345.006 25.2437C345.955 24.3062 347.086 23.5796 348.398 23.064C349.711 22.5366 351.141 22.2729 352.688 22.2729C353.438 22.2729 354.205 22.3257 354.99 22.4312C355.775 22.5366 356.537 22.7065 357.275 22.9409C358.014 23.1636 358.711 23.4565 359.367 23.8198C360.023 24.1831 360.592 24.6343 361.072 25.1733C361.565 25.7007 361.951 26.3159 362.232 27.019C362.525 27.7222 362.672 28.5249 362.672 29.4272Z" fill="#000057"/>
<defs>
<clipPath id="clip0_439_292">
<rect width="54.8405" height="53.6227" fill="white" transform="translate(0.702148 0.0678711)"/>
</clipPath>
</defs>
</svg>
