<svg width="47" height="47" viewBox="0 0 47 47" fill="none" xmlns="http://www.w3.org/2000/svg">
<path d="M20.8213 11.5116L13.7734 3.42798C12.9609 2.49645 11.4713 2.50059 10.5276 3.4404L4.73173 9.20966C3.00673 10.9257 2.51298 13.474 3.5109 15.5171C9.47261 27.7822 19.4277 37.6877 31.763 43.6286C33.8172 44.6202 36.3797 44.1296 38.1047 42.4135L43.9547 36.5904C44.9026 35.6485 44.9046 34.1601 43.9588 33.3528L35.7921 26.3871C34.938 25.6584 33.6109 25.7536 32.7547 26.6065L29.913 29.4342C29.7675 29.5857 29.576 29.6856 29.3679 29.7185C29.1598 29.7514 28.9465 29.7155 28.7609 29.6164C24.116 26.9586 20.263 23.1251 17.5942 18.5063C17.4943 18.3216 17.4581 18.1093 17.4912 17.9022C17.5243 17.695 17.6249 17.5044 17.7776 17.3595L20.6109 14.5421C21.4692 13.6851 21.563 12.3603 20.8213 11.5095V11.5116Z" fill="#000059" stroke="#000059" stroke-width="4.16667" stroke-linecap="round" stroke-linejoin="round"/>
</svg>
