<svg width="473" height="347" viewBox="0 0 473 347" fill="none" xmlns="http://www.w3.org/2000/svg">
<path d="M473 304.919H0V305.154H473V304.919Z" fill="#EBEBEB"/>
<path d="M425.605 319.908H394.274V320.143H425.605V319.908Z" fill="#EBEBEB"/>
<path d="M313.334 322.436H305.113V322.671H313.334V322.436Z" fill="#EBEBEB"/>
<path d="M393.328 311.266H375.174V311.501H393.328V311.266Z" fill="#EBEBEB"/>
<path d="M90.4847 312.829H49.627V313.064H90.4847V312.829Z" fill="#EBEBEB"/>
<path d="M104.902 312.829H98.9136V313.064H104.902V312.829Z" fill="#EBEBEB"/>
<path d="M212.992 316.76H124.371V316.994H212.992V316.76Z" fill="#EBEBEB"/>
<path d="M224.202 263.383H41.5387C40.1077 263.381 38.7362 262.82 37.7252 261.822C36.7143 260.825 36.1465 259.474 36.1465 258.065V5.27139C36.1589 3.87068 36.7322 2.53137 37.7419 1.54437C38.7515 0.557369 40.1159 0.0023995 41.5387 0H224.202C225.634 0 227.008 0.560284 228.021 1.55759C229.034 2.55491 229.604 3.90755 229.604 5.31796V258.065C229.604 259.476 229.034 260.828 228.021 261.826C227.008 262.823 225.634 263.383 224.202 263.383ZM41.5387 0.186269C40.1704 0.188736 38.8591 0.725576 37.8925 1.67895C36.9259 2.63233 36.383 3.92435 36.383 5.27139V258.065C36.383 259.412 36.9259 260.704 37.8925 261.658C38.8591 262.611 40.1704 263.148 41.5387 263.151H224.202C225.571 263.148 226.883 262.612 227.851 261.658C228.82 260.705 229.365 259.413 229.367 258.065V5.27139C229.365 3.92349 228.82 2.6315 227.851 1.67839C226.883 0.725273 225.571 0.188731 224.202 0.186269H41.5387Z" fill="#EBEBEB"/>
<path d="M428.831 263.383H246.158C244.727 263.381 243.354 262.82 242.342 261.823C241.329 260.826 240.759 259.475 240.757 258.065V5.27139C240.772 3.86983 241.347 2.53053 242.358 1.54378C243.369 0.557043 244.735 0.00237333 246.158 0H428.831C430.252 0.00484716 431.614 0.5609 432.622 1.54764C433.629 2.53437 434.201 3.87229 434.214 5.27139V258.065C434.214 259.473 433.647 260.822 432.638 261.819C431.63 262.816 430.26 263.378 428.831 263.383ZM246.158 0.186269C244.789 0.188731 243.477 0.725273 242.509 1.67839C241.541 2.6315 240.996 3.92349 240.993 5.27139V258.065C240.996 259.413 241.541 260.705 242.509 261.658C243.477 262.612 244.789 263.148 246.158 263.151H428.831C430.2 263.148 431.513 262.612 432.481 261.658C433.449 260.705 433.994 259.413 433.996 258.065V5.27139C433.994 3.92349 433.449 2.6315 432.481 1.67839C431.513 0.725273 430.2 0.188731 428.831 0.186269H246.158Z" fill="#EBEBEB"/>
<path d="M282.693 36.481C282.693 35.2879 282.212 34.1437 281.355 33.3001C280.498 32.4565 279.336 31.9826 278.124 31.9826C277.679 31.9825 277.236 32.0452 276.809 32.1689C277.013 30.8152 276.918 29.4342 276.531 28.12C276.143 26.8059 275.472 25.5895 274.563 24.5542C273.654 23.5188 272.529 22.6887 271.264 22.1207C270 21.5527 268.626 21.2601 267.236 21.2628C266.639 21.2634 266.044 21.3164 265.457 21.4212C264.51 19.8633 263.071 18.653 261.36 17.9747C259.649 17.2965 257.76 17.1874 255.98 17.6642C254.201 18.141 252.628 19.1775 251.502 20.6157C250.376 22.054 249.759 23.8151 249.744 25.6308H249.602C247.535 25.6308 245.552 26.4394 244.09 27.8786C242.628 29.3178 241.807 31.2698 241.807 33.3051C241.807 35.3404 242.628 37.2924 244.09 38.7316C245.552 40.1708 247.535 40.9794 249.602 40.9794H278.228C279.423 40.955 280.56 40.47 281.395 39.6287C282.23 38.7875 282.696 37.6572 282.693 36.481Z" fill="#F5F5F5"/>
<path d="M218.27 59.6051C218.27 59.0098 218.03 58.4389 217.603 58.018C217.175 57.5971 216.595 57.3606 215.99 57.3606C215.769 57.3582 215.549 57.3896 215.338 57.4537C215.368 57.2252 215.384 56.995 215.385 56.7645C215.386 56.1388 215.262 55.5189 215.02 54.9404C214.777 54.3619 214.422 53.8362 213.972 53.3933C213.523 52.9504 212.99 52.599 212.403 52.3592C211.816 52.1195 211.187 51.9961 210.551 51.9961C210.249 51.9954 209.948 52.0235 209.652 52.0799C209.176 51.3076 208.457 50.7088 207.604 50.3742C206.752 50.0395 205.812 49.987 204.926 50.2247C204.04 50.4624 203.257 50.9773 202.695 51.6917C202.133 52.4061 201.822 53.2811 201.81 54.1847H201.744C200.71 54.1847 199.719 54.589 198.988 55.3086C198.257 56.0282 197.846 57.0042 197.846 58.0218C197.846 59.0395 198.257 60.0155 198.988 60.7351C199.719 61.4547 200.71 61.8589 201.744 61.8589H216.057C216.652 61.8443 217.218 61.5998 217.632 61.1782C218.046 60.7565 218.275 60.1916 218.27 59.6051Z" fill="#F5F5F5"/>
<path d="M89.2642 135.268C89.2644 134.681 89.0307 134.117 88.6133 133.697C88.1959 133.278 87.6281 133.036 87.0317 133.024C86.8105 133.021 86.5901 133.052 86.3789 133.117C86.3933 132.887 86.3933 132.657 86.3789 132.428C86.3789 131.163 85.8686 129.95 84.9603 129.056C84.052 128.161 82.82 127.659 81.5354 127.659C81.237 127.659 80.9392 127.687 80.6462 127.743C80.1627 126.988 79.4453 126.405 78.6 126.082C77.7546 125.759 76.8261 125.711 75.9515 125.947C75.0768 126.183 74.3023 126.69 73.7424 127.392C73.1824 128.094 72.8667 128.955 72.8417 129.848H72.7755C71.7418 129.848 70.7504 130.252 70.0195 130.972C69.2886 131.691 68.8779 132.667 68.8779 133.685C68.8779 134.703 69.2886 135.679 70.0195 136.398C70.7504 137.118 71.7418 137.522 72.7755 137.522H87.0317C87.6305 137.512 88.2012 137.27 88.6194 136.848C89.0375 136.426 89.2693 135.858 89.2642 135.268Z" fill="#F5F5F5"/>
<path d="M397.85 136.181C397.85 135.583 397.609 135.01 397.18 134.587C396.75 134.164 396.168 133.927 395.561 133.927C395.339 133.928 395.119 133.962 394.908 134.029C394.938 133.798 394.954 133.564 394.955 133.331C394.955 132.069 394.446 130.858 393.539 129.966C392.633 129.073 391.403 128.572 390.121 128.572C389.82 128.571 389.519 128.599 389.223 128.656C388.748 127.881 388.031 127.28 387.178 126.943C386.325 126.607 385.384 126.554 384.498 126.792C383.611 127.03 382.828 127.547 382.267 128.263C381.706 128.979 381.398 129.856 381.39 130.76H381.314C380.28 130.76 379.289 131.165 378.558 131.884C377.827 132.604 377.417 133.58 377.417 134.597C377.417 135.615 377.827 136.591 378.558 137.311C379.289 138.03 380.28 138.435 381.314 138.435H395.627C396.223 138.418 396.788 138.173 397.203 137.752C397.618 137.331 397.85 136.767 397.85 136.181Z" fill="#F5F5F5"/>
<path d="M157.3 36.6856C157.3 36.2983 157.223 35.9149 157.072 35.5572C156.921 35.1995 156.7 34.8747 156.422 34.6013C156.143 34.3278 155.812 34.1113 155.449 33.9639C155.085 33.8165 154.695 33.7413 154.302 33.7426C154.01 33.7391 153.72 33.78 153.441 33.8636C153.488 33.5554 153.51 33.244 153.507 32.9323C153.508 32.1113 153.345 31.2981 153.026 30.5393C152.708 29.7805 152.24 29.0911 151.651 28.5106C151.061 27.93 150.361 27.4697 149.59 27.1561C148.819 26.8425 147.993 26.6817 147.159 26.6829C146.769 26.6823 146.379 26.7197 145.996 26.7947C145.37 25.7788 144.424 24.9918 143.303 24.5532C142.181 24.1146 140.945 24.0483 139.781 24.3644C138.618 24.6805 137.591 25.3617 136.857 26.3046C136.123 27.2475 135.721 28.4006 135.713 29.5887H135.618C134.263 29.5887 132.964 30.1186 132.006 31.0618C131.048 32.0049 130.51 33.2842 130.51 34.618C130.51 35.9519 131.048 37.2311 132.006 38.1743C132.964 39.1175 134.263 39.6473 135.618 39.6473H154.387C155.169 39.6255 155.911 39.3035 156.456 38.7502C157 38.1968 157.303 37.4559 157.3 36.6856Z" fill="#F5F5F5"/>
<path d="M381.238 107.45C381.394 106.878 381.486 106.291 381.512 105.699C381.73 102.067 385.249 102.644 388.238 102.15C390.575 101.769 384.388 95.9569 389.099 94.0756C390.017 93.8334 390.82 93.2833 391.37 92.5202C391.609 91.9503 391.638 91.3157 391.452 90.7268C391.265 90.138 390.874 89.6323 390.348 89.2978C389.27 88.6631 388.026 88.3553 386.772 88.413C385.996 87.4816 386.63 86.1126 387.368 85.1719C388.106 84.2312 389.024 83.1602 388.74 82.0053C388.314 80.2544 385.835 80.1426 384.01 80.5338C383.348 79.472 383.357 78.1495 383.064 76.9481C382.77 75.7466 381.777 74.4893 380.519 74.6383C379.261 74.7874 378.627 76.0913 377.463 76.3613C376.12 76.678 374.956 75.5045 373.906 74.629C372.856 73.7536 371.002 73.2041 370.283 74.3589C369.848 75.0481 370.104 76.0167 369.649 76.6966C368.874 77.8794 367.01 77.1437 365.865 76.3055C364.721 75.4672 362.876 74.7129 362.081 75.877C361.876 76.2588 361.723 76.666 361.627 77.0878C361.088 78.6338 359.385 79.4068 358.061 80.4034C356.737 81.3999 355.686 83.3744 356.803 84.5851C357.361 85.1812 358.335 85.4234 358.61 86.1871C358.95 87.1184 357.966 87.9939 357.181 88.6458C355.876 89.7355 355.639 93.0045 357.361 93.8893C358.089 94.2712 359.149 94.3829 359.319 95.1653C359.489 95.9476 358.761 96.4133 358.279 96.9535C357.973 97.3376 357.757 97.7824 357.644 98.2571C357.531 98.7318 357.524 99.225 357.624 99.7026C357.724 100.18 357.928 100.631 358.222 101.023C358.517 101.415 358.894 101.739 359.329 101.973C359.735 102.169 360.275 102.327 360.398 102.756C360.461 103.069 360.428 103.393 360.303 103.687C360.127 104.292 360.069 104.924 360.133 105.55C360.133 105.761 360.214 105.963 360.36 106.118C360.521 106.225 360.714 106.278 360.908 106.267C363.396 106.379 364.588 105.513 366.111 107.636C366.241 107.855 366.419 108.043 366.632 108.186C366.844 108.289 367.076 108.346 367.313 108.353C369.025 108.493 370.151 107.422 371.702 107.245C373.869 106.975 374.332 108.074 376.234 108.959C379.185 110.318 380.642 109.461 381.238 107.45Z" fill="#F5F5F5"/>
<path d="M352.565 104.394C352.722 103.826 352.814 103.242 352.839 102.653C353.057 99.0207 356.576 99.5981 359.565 99.1045C361.902 98.7226 355.715 92.9111 360.426 91.0297C361.344 90.7876 362.147 90.2375 362.697 89.4744C362.938 88.9047 362.968 88.2695 362.781 87.6802C362.595 87.0909 362.203 86.5852 361.675 86.2519C360.603 85.601 359.358 85.2769 358.099 85.3206C357.323 84.3893 357.948 83.0202 358.695 82.0795C359.443 81.1389 360.351 80.0678 360.067 78.913C359.641 77.162 357.163 77.0968 355.337 77.4414C354.675 76.3797 354.684 75.0572 354.391 73.8558C354.098 72.6544 353.104 71.397 351.846 71.5461C350.588 71.6951 349.954 72.9989 348.791 73.269C347.447 73.5764 346.284 72.4122 345.224 71.5367C344.165 70.6613 342.329 70.1118 341.601 71.2667C341.166 71.9558 341.431 72.9244 340.977 73.6043C340.191 74.7871 338.337 74.0514 337.193 73.2132C336.048 72.3749 334.203 71.6206 333.409 72.7754C333.204 73.1611 333.052 73.5712 332.955 73.9955C332.415 75.5415 330.712 76.3145 329.388 77.3111C328.064 78.3076 327.014 80.2727 328.13 81.4928C328.688 82.0888 329.662 82.331 329.937 83.0947C330.277 84.026 329.284 84.9015 328.508 85.5534C327.203 86.6431 326.966 89.9121 328.688 90.7969C329.416 91.1788 330.476 91.2905 330.646 92.0728C330.817 92.8552 330.088 93.3208 329.606 93.861C329.301 94.2451 329.084 94.6899 328.971 95.1646C328.858 95.6394 328.851 96.1326 328.951 96.6101C329.051 97.0877 329.255 97.5382 329.55 97.9303C329.844 98.3224 330.221 98.6468 330.656 98.8809C331.063 99.0765 331.602 99.2349 331.725 99.6633C331.79 99.976 331.757 100.301 331.63 100.595C331.455 101.199 331.397 101.831 331.46 102.457C331.458 102.671 331.539 102.878 331.687 103.035C331.848 103.142 332.041 103.195 332.236 103.184C334.714 103.296 335.916 102.429 337.439 104.553C337.565 104.769 337.74 104.953 337.949 105.093C338.165 105.198 338.4 105.259 338.64 105.27C340.352 105.4 341.478 104.339 343.029 104.162C345.196 103.882 345.65 104.991 347.561 105.866C350.55 107.272 352.007 106.416 352.565 104.394Z" fill="#F5F5F5"/>
<path d="M349.812 86.447C349.961 85.8738 350.049 85.2871 350.077 84.6961C350.294 81.0638 353.813 81.6413 356.803 81.1477C359.139 80.7658 352.953 74.9542 357.664 73.0729C358.583 72.8284 359.388 72.279 359.944 71.5175C360.179 70.9461 360.204 70.3119 360.016 69.7239C359.828 69.1359 359.438 68.6307 358.912 68.2951C357.836 67.6589 356.59 67.3541 355.337 67.4196C354.57 66.4882 355.195 65.1099 355.932 64.1692C356.67 63.2285 357.588 62.1668 357.314 61.0026C356.888 59.2517 354.4 59.1958 352.584 59.5311C351.921 58.4787 351.94 57.1562 351.638 55.9547C351.335 54.7533 350.342 53.4866 349.093 53.6357C347.844 53.7847 347.201 55.0886 346.028 55.3587C344.685 55.6753 343.521 54.5018 342.471 53.6263C341.421 52.7509 339.567 52.2014 338.848 53.3563C338.413 54.0455 338.668 55.0141 338.214 55.6939C337.438 56.8767 335.575 56.141 334.43 55.3028C333.285 54.4646 331.441 53.7102 330.646 54.8743C330.443 55.2565 330.294 55.6637 330.201 56.0851C329.653 57.6311 327.95 58.4042 326.625 59.4007C325.301 60.3972 324.251 62.3717 325.377 63.5824C325.925 64.1785 326.9 64.4207 327.174 65.1844C327.515 66.1157 326.531 66.9912 325.746 67.6431C324.44 68.7328 324.204 72.0018 325.925 72.8959C326.654 73.2685 327.713 73.3802 327.893 74.1626C328.073 74.9449 327.325 75.4106 326.843 75.96C326.541 76.3445 326.327 76.7887 326.216 77.2621C326.105 77.7355 326.099 78.227 326.199 78.7029C326.299 79.1788 326.502 79.6278 326.794 80.0192C327.086 80.4106 327.461 80.7352 327.893 80.9707C328.309 81.1663 328.839 81.3246 328.962 81.753C329.025 82.0658 328.992 82.3901 328.867 82.6844C328.697 83.2742 328.639 83.89 328.697 84.5005C328.706 84.7096 328.786 84.9097 328.924 85.0686C329.087 85.1726 329.279 85.2246 329.473 85.2176C331.961 85.3294 333.162 84.4632 334.676 86.596C334.806 86.8124 334.984 86.9971 335.196 87.1362C335.408 87.2397 335.641 87.2969 335.877 87.3039C337.59 87.4436 338.715 86.3725 340.267 86.1956C342.433 85.9255 342.897 87.0245 344.808 87.9092C347.787 89.3156 349.244 88.4774 349.812 86.447Z" fill="#F5F5F5"/>
<path d="M330.948 95.3882C331.098 94.8152 331.187 94.2284 331.213 93.6373C331.431 90.0144 334.95 90.5825 337.939 90.0982C340.276 89.7071 334.089 83.8955 338.8 82.0235C339.719 81.7724 340.523 81.2205 341.08 80.4588C341.316 79.889 341.342 79.2557 341.154 78.6688C340.966 78.082 340.575 77.5785 340.049 77.2457C338.975 76.6026 337.728 76.2941 336.473 76.3609C335.707 75.4296 336.331 74.0512 337.069 73.1105C337.807 72.1699 338.724 71.1082 338.441 69.944C338.015 68.1931 335.536 68.1372 333.711 68.4725C333.048 67.42 333.067 66.0975 332.765 64.8961C332.462 63.6947 331.469 62.428 330.22 62.5864C328.971 62.7447 328.328 64.0393 327.155 64.3C325.812 64.6167 324.648 63.4432 323.598 62.5677C322.548 61.6923 320.694 61.1428 319.975 62.2977C319.54 62.9868 319.795 63.9554 319.341 64.6353C318.565 65.8181 316.702 65.0824 315.557 64.2442C314.412 63.406 312.568 62.6516 311.773 63.8157C311.57 64.1979 311.421 64.6051 311.328 65.0265C310.78 66.5725 309.077 67.3455 307.752 68.3421C306.428 69.3386 305.378 71.313 306.504 72.5238C307.052 73.1198 308.027 73.362 308.301 74.1257C308.642 75.057 307.658 75.9325 306.873 76.5938C305.567 77.6834 305.331 80.9431 307.052 81.8372C307.781 82.2097 308.84 82.3215 309.02 83.1132C309.2 83.9048 308.452 84.3612 307.97 84.9013C307.667 85.2852 307.451 85.7294 307.339 86.2031C307.227 86.6768 307.221 87.1688 307.321 87.6451C307.421 88.1215 307.624 88.5709 307.918 88.9622C308.211 89.3536 308.587 89.6776 309.02 89.9119C309.427 90.1075 309.966 90.2659 310.089 90.6943C310.152 91.0071 310.119 91.3314 309.994 91.6256C309.825 92.2155 309.767 92.8312 309.824 93.4417C309.833 93.6508 309.913 93.851 310.051 94.0099C310.214 94.1138 310.406 94.1658 310.6 94.1589C313.088 94.2706 314.28 93.4045 315.803 95.5373C315.933 95.7536 316.111 95.9383 316.323 96.0774C316.534 96.1851 316.767 96.2425 317.004 96.2451C318.717 96.3848 319.842 95.3137 321.394 95.1368C323.56 94.8667 324.024 95.9657 325.935 96.8504C328.924 98.2568 330.381 97.3999 330.948 95.3882Z" fill="#F5F5F5"/>
<path d="M311.877 91.2721C312.025 90.7015 312.117 90.1183 312.152 89.5305C312.369 85.8982 315.888 86.4757 318.878 85.9821C321.214 85.6002 315.028 79.7886 319.739 77.9073C320.654 77.6594 321.455 77.1105 322.009 76.3519C322.251 75.7822 322.281 75.1469 322.094 74.5577C321.907 73.9684 321.515 73.4627 320.987 73.1294C319.909 72.4958 318.666 72.1881 317.412 72.2447C316.636 71.3133 317.26 69.9442 318.008 69.0036C318.755 68.0629 319.663 66.9918 319.379 65.837C318.954 64.086 316.475 63.9743 314.649 64.3654C313.987 63.3037 313.996 61.9812 313.703 60.7797C313.41 59.5783 312.417 58.321 311.158 58.47C309.9 58.619 309.266 59.9229 308.103 60.193C306.76 60.5003 305.596 59.3361 304.536 58.4607C303.477 57.5852 301.642 57.0264 300.913 58.1906C300.478 58.8798 300.743 59.8484 300.289 60.5283C299.504 61.7111 297.65 60.9753 296.505 60.1371C295.36 59.2989 293.516 58.5352 292.721 59.6994C292.52 60.0854 292.37 60.4955 292.276 60.9194C291.737 62.4655 290.034 63.2385 288.71 64.235C287.385 65.2316 286.335 67.1967 287.452 68.4168C288.01 69.0129 288.975 69.255 289.259 70.0187C289.599 70.9501 288.606 71.8256 287.83 72.4775C286.525 73.5672 286.288 76.8362 288.01 77.721C288.729 78.1028 289.798 78.2146 289.968 78.9969C290.138 79.7793 289.41 80.245 288.927 80.7851C288.624 81.1692 288.408 81.6135 288.295 82.0875C288.182 82.5615 288.175 83.054 288.274 83.531C288.373 84.008 288.575 84.4583 288.868 84.8508C289.16 85.2434 289.536 85.569 289.968 85.8051C290.384 86.0007 290.914 86.159 291.046 86.5874C291.112 86.9002 291.079 87.225 290.952 87.5188C290.783 88.1088 290.725 88.7244 290.782 89.3349C290.78 89.5489 290.861 89.7555 291.009 89.9124C291.167 90.0185 291.356 90.0709 291.548 90.0614C294.036 90.1731 295.237 89.307 296.76 91.4305C296.887 91.6462 297.062 91.8309 297.271 91.9706C297.485 92.0775 297.722 92.1348 297.962 92.1383C299.674 92.278 300.8 91.2069 302.351 91.0393C304.518 90.7599 304.972 91.8589 306.883 92.7437C309.862 94.1314 311.319 93.2745 311.877 91.2721Z" fill="#F5F5F5"/>
<path d="M311.631 111.333C311.75 110.882 311.82 110.42 311.839 109.955C312.01 107.105 314.781 107.552 317.137 107.161C318.982 106.853 314.11 102.28 317.818 100.799C318.541 100.606 319.173 100.171 319.606 99.57C319.795 99.122 319.818 98.6227 319.671 98.1596C319.524 97.6965 319.217 97.299 318.802 97.0367C317.948 96.5303 316.96 96.287 315.964 96.3382C315.359 95.6211 315.85 94.5314 316.437 93.7863C317.023 93.0412 317.742 92.203 317.515 91.2903C317.184 89.9118 315.226 89.8653 313.817 90.1354C313.427 89.2447 313.169 88.3038 313.05 87.3413C312.795 86.4099 312.029 85.4041 311.045 85.5252C310.061 85.6462 309.55 86.6707 308.642 86.8756C307.582 87.1271 306.665 86.205 305.804 85.5065C304.943 84.808 303.524 84.3889 302.966 85.3016C302.625 85.8418 302.833 86.6055 302.474 87.1643C301.859 88.0957 300.402 87.5183 299.494 86.857C298.586 86.1957 297.139 85.609 296.495 86.5217C296.341 86.8171 296.223 87.1299 296.145 87.4531C295.72 88.6731 294.376 89.3158 293.307 90.0702C292.238 90.8246 291.415 92.4079 292.314 93.3579C292.759 93.8329 293.515 94.0191 293.733 94.6245C294.007 95.3696 293.232 96.0495 292.617 96.5617C291.586 97.4186 291.396 99.9891 292.759 100.688C293.326 100.986 294.159 101.079 294.301 101.694C294.442 102.308 293.856 102.681 293.478 103.109C293.239 103.412 293.07 103.761 292.982 104.134C292.893 104.507 292.888 104.895 292.966 105.27C293.045 105.645 293.204 105.999 293.435 106.308C293.665 106.617 293.96 106.872 294.301 107.058C294.632 107.207 295.029 107.338 295.152 107.673C295.202 107.924 295.173 108.184 295.067 108.418C294.936 108.881 294.894 109.364 294.944 109.843C294.941 109.925 294.954 110.007 294.983 110.083C295.012 110.16 295.057 110.23 295.114 110.29C295.241 110.377 295.395 110.42 295.549 110.411C297.508 110.495 298.444 109.815 299.645 111.491C299.748 111.662 299.887 111.808 300.052 111.92C300.219 112.005 300.404 112.05 300.591 112.05C301.935 112.162 302.815 111.333 304.044 111.184C305.757 110.97 306.116 111.836 307.62 112.525C310.042 113.624 311.234 112.916 311.631 111.333Z" fill="#F5F5F5"/>
<path d="M300.951 104.394C301.1 103.824 301.188 103.241 301.216 102.653C301.433 99.0207 304.952 99.5981 307.942 99.1045C310.278 98.7226 304.091 92.9111 308.802 91.0297C309.722 90.7852 310.527 90.2359 311.082 89.4744C311.319 88.9032 311.346 88.2684 311.157 87.68C310.969 87.0915 310.578 86.5864 310.051 86.2519C308.979 85.601 307.735 85.2769 306.475 85.3206C305.709 84.3893 306.333 83.0202 307.071 82.0795C307.809 81.1389 308.727 80.0678 308.452 78.913C308.027 77.162 305.539 77.0968 303.722 77.4414C303.06 76.3797 303.079 75.0572 302.776 73.8558C302.474 72.6544 301.48 71.397 300.232 71.5461C298.983 71.6951 298.34 72.9989 297.167 73.269C295.823 73.5764 294.66 72.4122 293.61 71.5367C292.56 70.6613 290.715 70.1118 289.987 71.2667C289.551 71.9558 289.807 72.9244 289.362 73.6043C288.577 74.7871 286.723 74.0514 285.578 73.2132C284.434 72.3749 282.589 71.6206 281.794 72.7754C281.593 73.1614 281.443 73.5716 281.35 73.9955C280.801 75.5415 279.098 76.3145 277.774 77.3111C276.449 78.3076 275.399 80.2727 276.525 81.4928C277.074 82.0888 278.048 82.331 278.322 83.0947C278.663 84.026 277.679 84.9015 276.894 85.5534C275.588 86.6431 275.361 89.9121 277.074 90.7969C277.802 91.1788 278.862 91.2905 279.041 92.0728C279.221 92.8552 278.474 93.3208 277.991 93.861C277.689 94.2463 277.475 94.6911 277.364 95.1653C277.253 95.6394 277.247 96.1315 277.347 96.6081C277.446 97.0847 277.649 97.5345 277.942 97.9268C278.234 98.319 278.609 98.6445 279.041 98.8809C279.458 99.0765 279.987 99.2349 280.11 99.6633C280.175 99.976 280.142 100.301 280.016 100.595C279.839 101.199 279.784 101.832 279.855 102.457C279.85 102.67 279.928 102.876 280.072 103.035C280.235 103.139 280.427 103.191 280.621 103.184C283.109 103.296 284.311 102.429 285.824 104.553C285.954 104.769 286.132 104.954 286.344 105.093C286.556 105.199 286.788 105.26 287.026 105.27C288.738 105.4 289.864 104.339 291.415 104.162C293.581 103.882 294.045 104.991 295.956 105.866C298.936 107.272 300.383 106.416 300.951 104.394Z" fill="#F5F5F5"/>
<path d="M330.948 73.3061C331.097 72.7329 331.186 72.1462 331.213 71.5552C331.431 67.9229 334.95 68.5004 337.939 68.0068C340.276 67.6249 334.089 61.8133 338.8 59.932C339.719 59.6875 340.525 59.1382 341.08 58.3767C341.315 57.8053 341.341 57.1711 341.152 56.5831C340.964 55.9951 340.574 55.4899 340.049 55.1543C338.976 54.5033 337.732 54.1792 336.473 54.2229C335.707 53.2916 336.331 51.9225 337.069 50.9819C337.807 50.0412 338.724 48.9702 338.441 47.8153C338.015 46.0644 335.536 45.9526 333.711 46.3438C333.048 45.2821 333.067 43.9689 332.765 42.7674C332.462 41.566 331.469 40.2994 330.22 40.4484C328.971 40.5974 328.328 41.9013 327.155 42.1714C325.811 42.488 324.648 41.3145 323.598 40.4391C322.548 39.5636 320.694 39.0141 319.975 40.169C319.54 40.8582 319.795 41.8268 319.341 42.5067C318.565 43.6895 316.702 42.9537 315.557 42.1155C314.412 41.2773 312.568 40.5229 311.773 41.6871C311.57 42.0692 311.421 42.4765 311.328 42.8978C310.78 44.4438 309.077 45.2169 307.752 46.2134C306.428 47.2099 305.378 49.1844 306.504 50.3951C307.052 50.9912 308.027 51.2333 308.301 51.997C308.642 52.9284 307.658 53.8038 306.873 54.4558C305.567 55.5454 305.331 58.8144 307.052 59.7085C307.781 60.0811 308.84 60.1928 309.02 60.9751C309.2 61.7575 308.452 62.2231 307.97 62.7726C307.667 63.1565 307.451 63.6007 307.339 64.0744C307.227 64.5481 307.221 65.0401 307.321 65.5164C307.421 65.9928 307.624 66.4422 307.918 66.8335C308.211 67.2249 308.587 67.5489 309.02 67.7832C309.427 67.9788 309.966 68.1371 310.089 68.5656C310.152 68.8784 310.119 69.2026 309.994 69.4969C309.824 70.0867 309.766 70.7025 309.824 71.313C309.833 71.5221 309.913 71.7222 310.051 71.8811C310.214 71.9851 310.406 72.0371 310.6 72.0301C313.088 72.1419 314.28 71.2758 315.803 73.3992C315.932 73.6184 316.11 73.8062 316.323 73.9487C316.535 74.0522 316.768 74.1093 317.004 74.1163C318.717 74.2561 319.842 73.185 321.394 73.0081C323.56 72.738 324.024 73.8369 325.934 74.7217C328.924 76.1746 330.381 75.3178 330.948 73.3061Z" fill="#F5F5F5"/>
<path d="M355.44 74.5079C355.59 73.9348 355.679 73.348 355.705 72.757C355.923 69.1341 359.442 69.7115 362.431 69.2179C364.768 68.8267 358.581 63.0152 363.292 61.1432C364.211 60.8921 365.015 60.3402 365.572 59.5785C365.808 59.0087 365.835 58.3755 365.646 57.7886C365.458 57.2017 365.067 56.6982 364.541 56.3654C363.47 55.7103 362.225 55.3859 360.965 55.4341C360.199 54.5028 360.823 53.1244 361.561 52.193C362.299 51.2617 363.217 50.1813 362.933 49.0172C362.507 47.2756 360.029 47.2104 358.203 47.5457C357.541 46.4933 357.56 45.1708 357.257 43.9693C356.954 42.7679 355.961 41.5106 354.712 41.6596C353.463 41.8086 352.82 43.1125 351.647 43.3826C350.304 43.6899 349.14 42.5164 348.09 41.641C347.04 40.7655 345.186 40.216 344.467 41.3709C344.032 42.0694 344.287 43.0287 343.833 43.7086C343.057 44.8914 341.194 44.1556 340.049 43.3267C338.904 42.4978 337.06 41.7248 336.265 42.889C336.062 43.2711 335.913 43.6784 335.82 44.0997C335.272 45.655 333.569 46.4187 332.245 47.4153C330.92 48.4118 329.87 50.3862 330.996 51.597C331.545 52.193 332.519 52.4352 332.793 53.1989C333.134 54.1302 332.15 55.0057 331.365 55.6669C330.059 56.7566 329.823 60.0163 331.545 60.9104C332.273 61.2829 333.332 61.404 333.512 62.1863C333.692 62.9686 332.945 63.4343 332.462 63.9745C332.159 64.3584 331.944 64.8025 331.832 65.2762C331.719 65.7499 331.713 66.2419 331.813 66.7183C331.913 67.1946 332.116 67.644 332.41 68.0353C332.703 68.4267 333.079 68.7507 333.512 68.9851C333.919 69.1806 334.458 69.3483 334.581 69.7674C334.645 70.0801 334.612 70.4046 334.487 70.6987C334.311 71.3035 334.253 71.9355 334.316 72.5614C334.315 72.7725 334.396 72.976 334.543 73.1295C334.701 73.2442 334.897 73.2972 335.092 73.2785C337.58 73.3903 338.772 72.5241 340.295 74.6569C340.422 74.8751 340.601 75.0603 340.815 75.1971C341.026 75.3047 341.259 75.3622 341.496 75.3647C343.209 75.5044 344.334 74.4334 345.886 74.2564C348.052 73.9863 348.516 75.0853 350.427 75.9701C353.416 77.4044 354.873 76.5475 355.44 74.5079Z" fill="#F5F5F5"/>
<path d="M370.312 84.398C370.46 83.8274 370.551 83.2442 370.586 82.6564C370.804 79.0242 374.314 79.6017 377.312 79.1081C379.649 78.7262 373.462 72.9147 378.173 71.0334C379.09 70.7891 379.892 70.2395 380.444 69.4781C380.681 68.9079 380.709 68.2739 380.523 67.6856C380.336 67.0972 379.947 66.5915 379.422 66.2557C378.346 65.6045 377.099 65.2805 375.837 65.3243C375.07 64.393 375.695 63.024 376.442 62.0833C377.189 61.1427 378.098 60.0716 377.814 58.9168C377.388 57.1659 374.91 57.0541 373.084 57.4453C372.422 56.3836 372.431 55.0611 372.138 53.8597C371.845 52.6582 370.851 51.4009 369.593 51.5499C368.335 51.699 367.701 53.0028 366.537 53.2729C365.194 53.5896 364.031 52.4161 362.971 51.5406C361.912 50.6652 360.076 50.1157 359.348 51.2706C358.913 51.9597 359.178 52.9283 358.723 53.6082C357.938 54.791 356.084 54.0552 354.939 53.217C353.795 52.3788 351.95 51.6245 351.155 52.7793C350.954 53.1653 350.805 53.5754 350.711 53.9994C350.162 55.5454 348.469 56.3184 347.144 57.3149C345.82 58.3114 344.77 60.2858 345.886 61.4966C346.444 62.0926 347.409 62.3348 347.684 63.0985C348.034 64.0298 347.04 64.9052 346.265 65.5572C344.959 66.6468 344.723 69.9158 346.444 70.8006C347.163 71.1824 348.223 71.2942 348.403 72.0765C348.582 72.8588 347.835 73.3245 347.362 73.8647C347.058 74.2487 346.842 74.6931 346.73 75.167C346.617 75.641 346.61 76.1335 346.708 76.6105C346.807 77.0875 347.01 77.5377 347.302 77.9303C347.595 78.3228 347.97 78.6484 348.403 78.8845C348.819 79.0801 349.349 79.2384 349.481 79.6669C349.548 79.9803 349.511 80.3065 349.377 80.5982C349.211 81.2046 349.156 81.8355 349.216 82.4609C349.217 82.6716 349.298 82.8744 349.443 83.029C349.602 83.1351 349.791 83.1875 349.982 83.178C352.47 83.2897 353.672 82.4236 355.185 84.547C355.321 84.762 355.497 84.9487 355.706 85.0965C355.922 85.1989 356.157 85.256 356.396 85.2642C358.099 85.3946 359.234 84.3328 360.786 84.1559C362.952 83.8765 363.406 84.9848 365.317 85.8602C368.297 87.2758 369.754 86.419 370.312 84.398Z" fill="#F5F5F5"/>
<path d="M365.8 96.8596C365.8 96.8596 359.584 105.512 357.437 108.259C355.29 111.007 344.562 128.116 343.105 139.431C342.944 140.642 342.793 141.676 342.642 142.589C347.258 172.569 346.539 287.031 346.369 296.419H327.449C331.044 226.075 330.381 129.419 329.918 126.467C329.435 123.338 323.296 111.426 313.883 106.536C304.47 101.647 296.288 85.4507 296.288 85.4507H299.296C299.296 85.4507 304.877 95.3788 312.814 100.874C313.956 101.642 315.147 102.335 316.381 102.951C316.361 96.9781 317.431 91.0507 319.54 85.4507L321.167 86.9315C318.973 95.77 319.275 101.433 319.928 104.683C322.924 106.069 325.689 107.893 328.13 110.094C336.37 99.5512 340.996 75.448 340.996 75.448L343.105 76.5842C342.502 81.5608 341.592 86.4968 340.381 91.3647C338.839 97.6047 334.298 109.349 332.188 114.648C334.713 118.225 336.799 122.082 338.404 126.141C338.629 125.8 338.896 125.488 339.198 125.21C344.562 120.432 354.646 97.8748 354.646 97.8748C357.087 92.6313 353.36 78.866 353.36 78.866H356.198L357.456 90.9083L364.532 83.2993L365.819 84.361L358.317 93.8607L354.448 105.903L364.513 94.997L365.8 96.8596Z" fill="#F5F5F5"/>
<path d="M81.252 114.043C81.1115 113.507 81.026 112.958 80.9966 112.404C80.7979 108.986 77.4775 109.526 74.6584 109.061C72.4637 108.698 78.291 103.221 73.8543 101.461C72.9906 101.223 72.2339 100.704 71.7069 99.9895C71.4821 99.454 71.4535 98.8582 71.6261 98.3042C71.7987 97.7502 72.1617 97.2727 72.6529 96.9534C73.6693 96.3513 74.8455 96.0626 76.0301 96.1245C76.749 95.2583 76.1625 93.9544 75.4625 93.0697C74.7624 92.1849 73.9016 91.207 74.1665 90.0801C74.5732 88.4316 76.9099 88.3757 78.6032 88.7017C79.2276 87.7052 79.2086 86.4572 79.5492 85.3209C79.8898 84.1847 80.7695 83.0019 81.952 83.1509C83.1345 83.2999 83.74 84.52 84.79 84.7715C86.0577 85.0602 87.155 83.9612 88.1483 83.1323C89.1416 82.3034 90.8728 81.7912 91.5634 82.8808C91.9702 83.5328 91.7242 84.4362 92.1499 85.0788C92.8878 86.1964 94.6379 85.5072 95.7258 84.7156C96.8137 83.9239 98.5638 83.2161 99.3017 84.3058C99.4923 84.6683 99.6354 85.0533 99.7274 85.4513C100.238 86.9135 101.837 87.64 103.086 88.5713C104.334 89.5027 105.328 91.3653 104.268 92.5109C103.748 93.079 102.83 93.3025 102.575 94.0196C102.244 94.951 103.18 95.724 103.918 96.3387C105.138 97.3725 105.366 100.446 103.748 101.284C103.067 101.638 102.064 101.74 101.856 102.485C101.648 103.231 102.395 103.659 102.802 104.171C103.09 104.53 103.295 104.946 103.404 105.391C103.513 105.835 103.523 106.298 103.433 106.747C103.344 107.195 103.156 107.62 102.884 107.99C102.611 108.361 102.261 108.669 101.856 108.893C101.468 109.079 100.986 109.228 100.844 109.629C100.773 109.941 100.807 110.268 100.938 110.56C101.095 111.114 101.15 111.692 101.099 112.265C101.098 112.465 101.02 112.658 100.881 112.805C100.735 112.912 100.553 112.962 100.371 112.944C98.0246 113.047 96.8988 112.237 95.4704 114.239C95.3447 114.442 95.1771 114.616 94.9785 114.751C94.7787 114.85 94.5589 114.905 94.3352 114.91C92.727 115.04 91.6675 114.053 90.2012 113.866C88.1578 113.606 87.7226 114.649 85.9252 115.478C83.1535 116.754 81.7818 115.943 81.252 114.043Z" fill="#F5F5F5"/>
<path d="M108.223 111.175C108.08 110.636 107.998 110.083 107.977 109.526C107.769 106.117 104.458 106.658 101.639 106.192C99.4344 105.829 105.262 100.352 100.825 98.5829C99.9617 98.3489 99.2046 97.8334 98.6776 97.1207C98.4528 96.5852 98.4242 95.9894 98.5968 95.4354C98.7694 94.8814 99.1324 94.4038 99.6236 94.0845C100.636 93.4822 101.81 93.1934 102.991 93.2556C103.72 92.3895 103.124 91.0856 102.424 90.2008C101.724 89.3161 100.863 88.3381 101.128 87.2112C101.534 85.5627 103.871 85.5069 105.564 85.8235C106.189 84.8363 106.179 83.5883 106.51 82.4521C106.842 81.3158 107.721 80.133 108.904 80.2727C110.086 80.4124 110.692 81.6418 111.742 81.9026C113.009 82.1913 114.107 81.0923 115.1 80.2634C116.093 79.4345 117.834 78.9223 118.515 80.0119C118.922 80.6639 118.676 81.5673 119.102 82.2099C119.84 83.3275 121.59 82.6383 122.678 81.8467C123.765 81.0551 125.516 80.3472 126.253 81.4369C126.448 81.7977 126.591 82.1831 126.679 82.5824C127.19 84.0353 128.798 84.7711 130.037 85.7025C131.277 86.6338 132.28 88.4965 131.22 89.642C130.7 90.2101 129.782 90.4337 129.527 91.1508C129.205 92.0821 130.132 92.8552 130.87 93.4698C132.1 94.4943 132.317 97.5677 130.7 98.4153C130.019 98.7692 129.016 98.8716 128.855 99.6167C128.694 100.362 129.385 100.79 129.801 101.302C130.089 101.661 130.294 102.077 130.403 102.522C130.513 102.967 130.522 103.429 130.433 103.878C130.343 104.327 130.155 104.751 129.883 105.121C129.61 105.492 129.26 105.8 128.855 106.024C128.467 106.211 127.994 106.36 127.852 106.76C127.783 107.072 127.813 107.397 127.937 107.691C128.099 108.245 128.154 108.823 128.098 109.396C128.101 109.597 128.023 109.791 127.881 109.936C127.73 110.035 127.551 110.084 127.37 110.076C125.033 110.178 123.898 109.368 122.469 111.37C122.344 111.573 122.176 111.748 121.978 111.882C121.778 111.983 121.558 112.037 121.334 112.041C119.726 112.171 118.676 111.184 117.2 110.998C115.157 110.737 114.731 111.78 112.934 112.609C110.124 113.885 108.79 113.075 108.223 111.175Z" fill="#F5F5F5"/>
<path d="M110.824 94.2616C110.683 93.7251 110.597 93.1759 110.568 92.6224C110.37 89.2044 107.049 89.7446 104.23 89.2789C102.035 88.9157 107.863 83.4394 103.426 81.6791C102.562 81.4421 101.805 80.9233 101.279 80.2076C101.054 79.6721 101.025 79.0763 101.198 78.5223C101.371 77.9683 101.733 77.4907 102.225 77.1714C103.243 76.5736 104.418 76.2852 105.602 76.3426C106.321 75.4764 105.734 74.1725 105.034 73.2877C104.334 72.403 103.473 71.4251 103.738 70.2981C104.145 68.659 106.482 68.5938 108.175 68.9197C108.799 67.9232 108.78 66.6752 109.121 65.539C109.462 64.4027 110.341 63.2199 111.524 63.369C112.706 63.518 113.312 64.738 114.362 64.9895C115.629 65.2782 116.727 64.1792 117.72 63.3503C118.713 62.5214 120.445 62.0092 121.135 63.0989C121.542 63.7508 121.296 64.6635 121.722 65.2968C122.46 66.4144 124.21 65.7252 125.298 64.9336C126.385 64.142 128.136 63.4341 128.873 64.5238C129.064 64.8864 129.207 65.2713 129.299 65.6694C129.81 67.1316 131.409 67.858 132.657 68.7894C133.906 69.7207 134.899 71.5834 133.84 72.7289C133.32 73.2971 132.402 73.5206 132.147 74.2377C131.825 75.1691 132.752 75.9421 133.49 76.5568C134.72 77.5905 134.937 80.664 133.32 81.5022C132.639 81.8561 131.636 81.9585 131.428 82.7036C131.22 83.4487 131.967 83.8771 132.374 84.3893C132.66 84.7488 132.864 85.1649 132.972 85.6092C133.081 86.0535 133.09 86.5156 133 86.9638C132.91 87.4121 132.723 87.8359 132.452 88.2065C132.181 88.5771 131.831 88.8857 131.428 89.1112C131.04 89.2975 130.567 89.4465 130.415 89.847C130.345 90.1594 130.378 90.4858 130.51 90.7784C130.668 91.3354 130.722 91.9159 130.671 92.492C130.669 92.6897 130.591 92.8794 130.453 93.0229C130.306 93.1302 130.124 93.1799 129.942 93.1626C127.596 93.265 126.471 92.4548 125.042 94.4572C124.916 94.66 124.749 94.8345 124.55 94.9694C124.35 95.0686 124.131 95.1227 123.907 95.1277C122.299 95.2581 121.239 94.2709 119.773 94.0846C117.73 93.8332 117.294 94.8669 115.497 95.6958C112.725 96.9718 111.354 96.1615 110.824 94.2616Z" fill="#F5F5F5"/>
<path d="M128.59 102.689C128.452 102.149 128.37 101.597 128.344 101.041C128.136 97.6225 124.825 98.1627 122.006 97.7064C119.801 97.3431 125.629 91.8669 121.192 90.0973C120.327 89.866 119.572 89.3457 119.054 88.6258C118.828 88.0919 118.799 87.497 118.972 86.9441C119.144 86.3913 119.508 85.9154 120 85.599C121.014 84.9981 122.186 84.7064 123.368 84.7607C124.096 83.8946 123.5 82.5907 122.8 81.706C122.1 80.8212 121.239 79.8433 121.514 78.7257C121.911 77.0772 124.248 77.0213 125.941 77.338C126.565 76.3414 126.556 75.0934 126.887 73.9665C127.218 72.8396 128.098 71.6475 129.28 71.7872C130.463 71.9269 131.068 73.1563 132.118 73.4077C133.376 73.7058 134.474 72.5975 135.467 71.7779C136.46 70.9583 138.201 70.4274 138.882 71.5171C139.289 72.169 139.043 73.0818 139.469 73.7244C140.207 74.8327 141.957 74.1435 143.045 73.3612C144.133 72.5788 145.883 71.8524 146.62 72.9514C146.815 73.3089 146.958 73.6913 147.046 74.0876C147.557 75.5498 149.165 76.2763 150.414 77.2169C151.663 78.1576 152.647 80.0109 151.587 81.1565C151.067 81.7153 150.149 81.9481 149.894 82.6652C149.572 83.5966 150.499 84.3603 151.237 84.9843C152.467 86.0087 152.684 89.0822 151.067 89.9204C150.386 90.2743 149.383 90.386 149.222 91.1218C149.061 91.8575 149.752 92.2953 150.168 92.8075C150.455 93.1678 150.659 93.5846 150.767 94.0296C150.875 94.4746 150.885 94.9373 150.795 95.3863C150.705 95.8352 150.518 96.2599 150.247 96.6313C149.975 97.0027 149.626 97.3122 149.222 97.5387C148.825 97.7157 148.352 97.8647 148.21 98.2652C148.14 98.5768 148.17 98.902 148.295 99.1965C148.456 99.7529 148.511 100.334 148.456 100.91C148.458 101.11 148.384 101.303 148.248 101.45C148.092 101.546 147.911 101.594 147.727 101.59C145.391 101.692 144.255 100.873 142.827 102.885C142.701 103.087 142.534 103.262 142.335 103.397C142.134 103.493 141.915 103.547 141.692 103.555C140.084 103.686 139.034 102.689 137.558 102.512C135.514 102.251 135.089 103.285 133.291 104.123C130.548 105.39 129.129 104.589 128.59 102.689Z" fill="#F5F5F5"/>
<path d="M146.554 98.7971C146.409 98.2583 146.323 97.7056 146.299 97.1486C146.091 93.7305 142.78 94.28 139.961 93.8143C137.757 93.4511 143.593 87.9747 139.147 86.2052C138.283 85.9738 137.527 85.4536 137.009 84.7336C136.785 84.1995 136.757 83.6052 136.93 83.0528C137.102 82.5004 137.465 82.0244 137.955 81.7067C138.969 81.1054 140.142 80.8167 141.323 80.8778C142.051 80.0117 141.465 78.7078 140.765 77.823C140.065 76.9382 139.204 75.9603 139.469 74.8334C139.866 73.1849 142.203 73.129 143.896 73.4457C144.521 72.4491 144.511 71.2104 144.842 70.0742C145.173 68.9379 146.063 67.7551 147.236 67.8948C148.409 68.0345 149.033 69.2639 150.121 69.5247C151.388 69.8134 152.476 68.7144 153.47 67.8855C154.463 67.0566 156.204 66.5443 156.885 67.634C157.301 68.286 157.055 69.1894 157.481 69.832C158.219 70.9496 159.969 70.2604 161.047 69.4688C162.126 68.6771 163.885 67.96 164.632 69.059C164.822 69.4213 164.961 69.8064 165.049 70.2046C165.569 71.6575 167.168 72.3839 168.417 73.3246C169.665 74.2652 170.649 76.1186 169.599 77.2642C169.079 77.823 168.161 78.0558 167.896 78.773C167.575 79.7043 168.511 80.4774 169.24 81.0921C170.469 82.1165 170.696 85.19 169.069 86.0375C168.388 86.3821 167.395 86.4939 167.177 87.239C166.96 87.9841 167.707 88.4125 168.123 88.9154C168.411 89.2751 168.617 89.6919 168.726 90.1372C168.835 90.5825 168.845 91.0457 168.755 91.4952C168.665 91.9446 168.478 92.3696 168.205 92.741C167.933 93.1123 167.582 93.4213 167.177 93.6467C166.789 93.8236 166.307 93.982 166.165 94.3824C166.102 94.6799 166.136 94.9891 166.26 95.2672C166.413 95.825 166.465 96.4054 166.411 96.9809C166.413 97.1804 166.339 97.3733 166.203 97.5211C166.049 97.6201 165.867 97.669 165.683 97.6608C163.346 97.7632 162.211 96.953 160.782 98.9554C160.663 99.1597 160.498 99.3349 160.3 99.4676C160.097 99.567 159.874 99.6211 159.647 99.626C158.039 99.7563 156.989 98.7691 155.523 98.5828C153.479 98.3221 153.044 99.3652 151.247 100.194C148.456 101.517 147.084 100.697 146.554 98.7971Z" fill="#F5F5F5"/>
<path d="M146.781 117.712C146.687 117.287 146.636 116.853 146.63 116.418C146.469 113.735 143.867 114.155 141.644 113.791C139.913 113.512 144.482 109.2 141.001 107.803C140.321 107.62 139.726 107.212 139.317 106.648C139.142 106.225 139.123 105.755 139.262 105.319C139.402 104.884 139.693 104.51 140.083 104.264C140.879 103.786 141.802 103.556 142.732 103.602C143.3 102.923 142.836 101.898 142.287 101.2C141.739 100.501 141.058 99.7093 141.266 98.8525C141.587 97.5486 143.423 97.5021 144.756 97.7628C145.127 96.9143 145.369 96.0169 145.475 95.0992C145.721 94.2144 146.421 93.2365 147.367 93.3855C148.313 93.5345 148.777 94.4659 149.638 94.6614C150.499 94.857 151.53 94.0281 152.277 93.3762C153.024 92.7242 154.425 92.3238 154.964 93.1806C155.285 93.6928 155.096 94.41 155.427 94.9129C156.004 95.7884 157.386 95.2482 158.265 94.6242C159.145 94.0002 160.488 93.4414 161.103 94.2982C161.258 94.5917 161.369 94.9053 161.434 95.2296C161.841 96.3751 163.109 96.9526 164.083 97.6883C165.058 98.4241 165.852 99.8956 165.029 100.79C164.613 101.237 163.894 101.414 163.695 101.982C163.497 102.55 164.168 103.323 164.745 103.845C165.691 104.655 165.89 107.076 164.613 107.738C164.074 108.008 163.289 108.101 163.156 108.669C163.024 109.237 163.582 109.6 163.932 110.001C164.16 110.285 164.322 110.615 164.407 110.967C164.492 111.32 164.498 111.686 164.424 112.041C164.35 112.396 164.198 112.73 163.979 113.022C163.76 113.313 163.479 113.553 163.156 113.726C162.853 113.875 162.475 113.987 162.362 114.304C162.312 114.542 162.338 114.789 162.437 115.011C162.559 115.448 162.6 115.902 162.56 116.353C162.56 116.511 162.499 116.664 162.39 116.781C162.268 116.857 162.127 116.896 161.983 116.893C160.091 116.967 159.249 116.325 158.123 117.908C158.028 118.067 157.899 118.203 157.745 118.308C157.587 118.389 157.412 118.434 157.234 118.439C155.967 118.541 155.134 117.759 153.98 117.61C152.372 117.414 152.031 118.225 150.612 118.886C148.285 119.836 147.207 119.212 146.781 117.712Z" fill="#F5F5F5"/>
<path d="M156.847 111.175C156.706 110.635 156.62 110.083 156.591 109.526C156.393 106.117 153.072 106.658 150.253 106.192C148.058 105.829 153.886 100.352 149.449 98.5829C148.586 98.3489 147.829 97.8334 147.302 97.1207C147.077 96.5852 147.048 95.9894 147.221 95.4354C147.393 94.8814 147.756 94.4038 148.248 94.0845C149.264 93.4825 150.44 93.1938 151.625 93.2556C152.344 92.3895 151.757 91.0856 151.057 90.2008C150.357 89.3161 149.496 88.3381 149.761 87.2112C150.168 85.5627 152.505 85.5069 154.198 85.8235C154.822 84.8363 154.803 83.5883 155.144 82.4521C155.484 81.3158 156.364 80.133 157.547 80.2727C158.729 80.4124 159.335 81.6418 160.385 81.9026C161.652 82.1913 162.75 81.0923 163.743 80.2634C164.736 79.4345 166.468 78.9223 167.158 80.0119C167.565 80.6639 167.319 81.5673 167.745 82.2099C168.483 83.3275 170.233 82.6383 171.321 81.8467C172.408 81.0551 174.159 80.3472 174.896 81.4369C175.087 81.7994 175.23 82.1844 175.322 82.5824C175.833 84.0353 177.432 84.7711 178.68 85.7025C179.929 86.6338 180.922 88.4965 179.863 89.642C179.343 90.2101 178.425 90.4337 178.17 91.1508C177.848 92.0821 178.775 92.8552 179.513 93.4698C180.743 94.4943 180.96 97.5677 179.343 98.4153C178.661 98.7692 177.659 98.8716 177.451 99.6167C177.242 100.362 177.99 100.79 178.444 101.302C178.728 101.665 178.93 102.084 179.034 102.53C179.139 102.976 179.144 103.44 179.05 103.888C178.956 104.337 178.764 104.76 178.488 105.129C178.212 105.497 177.858 105.803 177.451 106.024C177.063 106.211 176.59 106.36 176.438 106.76C176.368 107.073 176.401 107.399 176.533 107.691C176.69 108.245 176.745 108.823 176.694 109.396C176.693 109.596 176.615 109.789 176.476 109.936C176.325 110.035 176.146 110.084 175.965 110.076C173.619 110.178 172.494 109.368 171.065 111.37C170.939 111.573 170.772 111.748 170.573 111.882C170.373 111.982 170.154 112.036 169.93 112.041C168.322 112.171 167.262 111.184 165.796 110.998C163.753 110.737 163.317 111.78 161.52 112.609C158.748 113.885 157.376 113.075 156.847 111.175Z" fill="#F5F5F5"/>
<path d="M128.59 81.8831C128.452 81.3431 128.37 80.7908 128.344 80.2346C128.136 76.8259 124.825 77.3661 122.006 76.9004C119.802 76.5372 125.629 71.0609 121.192 69.2913C120.33 69.0603 119.575 68.5439 119.054 67.8292C118.828 67.2939 118.798 66.6974 118.971 66.143C119.144 65.5886 119.508 65.1111 120 64.793C121.013 64.1906 122.187 63.9018 123.368 63.9641C124.097 63.0979 123.501 61.7941 122.801 60.9093C122.1 60.0245 121.24 59.0466 121.514 57.9197C121.911 56.2712 124.248 56.2153 125.941 56.532C126.566 55.5448 126.556 54.2968 126.887 53.1606C127.218 52.0243 128.098 50.8415 129.281 50.9905C130.463 51.1395 131.069 52.3596 132.119 52.6111C133.377 52.8998 134.474 51.8008 135.467 50.9719C136.461 50.143 138.201 49.6308 138.883 50.7204C139.289 51.3724 139.043 52.2758 139.469 52.9184C140.207 54.036 141.957 53.3468 143.045 52.5552C144.133 51.7635 145.883 51.0557 146.621 52.1454C146.816 52.5061 146.959 52.8916 147.046 53.2909C147.557 54.7531 149.166 55.4796 150.414 56.4109C151.663 57.3423 152.647 59.2049 151.587 60.3505C151.067 60.9186 150.149 61.1421 149.894 61.8593C149.572 62.7906 150.499 63.5636 151.237 64.1783C152.467 65.2028 152.685 68.2762 151.067 69.1237C150.386 69.4776 149.383 69.5801 149.222 70.3251C149.061 71.0702 149.752 71.4986 150.168 72.0109C150.455 72.3704 150.659 72.7865 150.767 73.2308C150.875 73.6751 150.885 74.1371 150.795 74.5853C150.705 75.0336 150.518 75.4574 150.247 75.8281C149.975 76.1987 149.626 76.5072 149.222 76.7328C148.825 76.919 148.352 77.068 148.21 77.4685C148.141 77.7802 148.171 78.1052 148.295 78.3999C148.478 78.9458 148.555 79.5209 148.522 80.0949C148.524 80.2943 148.45 80.4873 148.314 80.6351C148.161 80.7372 147.978 80.7863 147.794 80.7748C145.457 80.8772 144.322 80.0669 142.894 82.0693C142.771 82.2741 142.602 82.4491 142.402 82.5816C142.202 82.682 141.982 82.7362 141.758 82.7399C140.15 82.8703 139.1 81.8831 137.624 81.6968C135.581 81.436 135.155 82.4791 133.358 83.308C130.548 84.5933 129.129 83.8203 128.59 81.8831Z" fill="#F5F5F5"/>
<path d="M105.527 83.0474C105.381 82.5087 105.295 81.956 105.271 81.399C105.063 77.981 101.752 78.5212 98.933 78.0648C96.7288 77.7016 102.566 72.2253 98.1194 70.4558C97.2549 70.2244 96.499 69.7042 95.9814 68.9843C95.7573 68.4502 95.7291 67.8558 95.9017 67.3034C96.0744 66.7511 96.4371 66.2751 96.9274 65.9575C97.9407 65.3562 99.1137 65.0675 100.295 65.1286C101.024 64.2531 100.437 62.9492 99.7371 62.0645C99.037 61.1797 98.1762 60.2018 98.441 59.0842C98.8384 57.4357 101.184 57.3799 102.868 57.6965C103.493 56.7 103.483 55.4613 103.814 54.3251C104.145 53.1889 105.035 52.0061 106.208 52.1458C107.381 52.2855 108.005 53.5148 109.046 53.7663C110.313 54.0643 111.411 52.9653 112.404 52.1364C113.397 51.3076 115.128 50.7953 115.81 51.885C116.226 52.5369 115.98 53.4403 116.406 54.0829C117.143 55.2005 118.894 54.502 119.972 53.7197C121.05 52.9374 122.81 52.211 123.557 53.3099C123.75 53.6704 123.891 54.0561 123.974 54.4555C124.494 55.9084 126.093 56.6348 127.341 57.5754C128.59 58.5161 129.574 60.3694 128.524 61.515C128.004 62.0738 127.086 62.3066 126.821 63.0237C126.499 63.9551 127.436 64.7281 128.174 65.3428C129.394 66.3672 129.621 69.4407 127.994 70.2789C127.313 70.6328 126.32 70.7445 126.102 71.4803C125.885 72.216 126.632 72.6631 127.048 73.166C127.336 73.5257 127.542 73.9425 127.651 74.3877C127.76 74.833 127.77 75.2963 127.68 75.7457C127.59 76.1951 127.403 76.6201 127.13 76.9915C126.858 77.3628 126.507 77.6718 126.102 77.8972C125.714 78.0741 125.232 78.2324 125.09 78.6329C125.027 78.9303 125.06 79.2396 125.184 79.5177C125.338 80.0755 125.389 80.6558 125.336 81.2313C125.338 81.4308 125.264 81.6237 125.128 81.7715C124.976 81.8693 124.798 81.9181 124.617 81.9112C122.271 82.0137 121.145 81.1941 119.707 83.2058C119.588 83.4101 119.423 83.5852 119.225 83.718C119.024 83.8161 118.805 83.8701 118.581 83.8763C116.964 84.0067 115.914 83.0102 114.447 82.8332C112.404 82.5725 111.969 83.6062 110.171 84.4444C107.428 85.7483 106.056 84.9474 105.527 83.0474Z" fill="#F5F5F5"/>
<path d="M91.5062 92.3424C91.3685 91.8024 91.2861 91.2501 91.2603 90.6939C91.0521 87.2759 87.7411 87.8161 84.9221 87.3597C82.7179 86.9965 88.5452 81.5202 84.1085 79.7506C83.244 79.5193 82.4881 78.999 81.9705 78.2791C81.7445 77.7452 81.7153 77.1503 81.8881 76.5974C82.0609 76.0446 82.4247 75.5687 82.9165 75.2523C83.9294 74.6499 85.1027 74.3611 86.2843 74.4234C87.0127 73.5479 86.4167 72.244 85.7167 71.3592C85.0167 70.4745 84.1653 69.4966 84.4301 68.3789C84.8275 66.7305 87.1641 66.6746 88.8574 66.9912C89.4818 65.9947 89.4723 64.756 89.8034 63.6198C90.1345 62.4835 91.0143 61.3007 92.1968 61.4404C93.3793 61.5801 93.9847 62.8095 95.0348 63.061C96.293 63.359 97.3903 62.26 98.3836 61.4311C99.3769 60.6022 101.118 60.09 101.799 61.1797C102.205 61.8316 101.96 62.735 102.385 63.3776C103.123 64.4952 104.873 63.7967 105.961 63.0144C107.049 62.2321 108.799 61.5056 109.546 62.6046C109.735 62.9669 109.875 63.352 109.963 63.7502C110.474 65.2031 112.082 65.9295 113.33 66.8702C114.579 67.8108 115.563 69.6642 114.503 70.8097C113.983 71.3686 113.066 71.6014 112.81 72.3185C112.489 73.2499 113.416 74.0229 114.153 74.6376C115.383 75.662 115.601 78.7355 113.983 79.5737C113.302 79.9276 112.299 80.0393 112.091 80.7751C111.883 81.5109 112.621 81.9579 113.037 82.4608C113.324 82.8211 113.528 83.2379 113.636 83.6829C113.744 84.1279 113.754 84.5907 113.664 85.0396C113.574 85.4886 113.387 85.9132 113.116 86.2847C112.845 86.6561 112.495 86.9656 112.091 87.1921C111.694 87.369 111.221 87.5273 111.079 87.9278C111.008 88.2394 111.038 88.565 111.164 88.8592C111.325 89.4156 111.38 89.9967 111.325 90.5728C111.327 90.7723 111.253 90.9652 111.117 91.113C110.961 91.2083 110.78 91.2568 110.597 91.2527C108.26 91.3552 107.125 90.5356 105.696 92.5473C105.574 92.7496 105.41 92.9242 105.214 93.0595C105.011 93.1589 104.788 93.213 104.561 93.2178C102.953 93.3482 101.903 92.3517 100.427 92.1747C98.3836 91.914 97.9579 92.9478 96.1605 93.786C93.4171 95.0433 92.0454 94.2423 91.5062 92.3424Z" fill="#F5F5F5"/>
<path d="M95.7632 104.086C95.7632 104.086 101.619 112.244 103.643 114.833C105.668 117.423 115.762 133.535 117.143 144.19C117.285 145.326 117.427 146.313 117.568 147.161C113.226 175.408 113.907 289.48 114.059 298.318H133.509C131.38 210.939 129.129 134.764 129.554 131.98C130.018 129.037 135.77 117.814 144.69 113.204C153.611 108.593 161.264 93.3473 161.264 93.3473H158.426C158.426 93.3473 153.166 102.661 145.693 107.867C144.618 108.598 143.492 109.254 142.325 109.832C142.349 104.206 141.343 98.622 139.355 93.3473L137.822 94.735C139.894 103.071 139.62 108.398 138.995 111.499C136.168 112.801 133.559 114.519 131.257 116.594C123.509 106.666 119.148 83.9966 119.148 83.9966L117.162 85.0676C117.724 89.7718 118.58 94.4374 119.725 99.0378C121.173 104.915 125.401 115.979 127.445 121.008C125.063 124.376 123.095 128.008 121.58 131.831C121.373 131.503 121.122 131.205 120.832 130.946C115.781 126.447 106.283 105.203 106.283 105.203C103.993 100.267 107.503 87.3029 107.503 87.3029H104.845L103.662 98.6374L97.0403 91.4753L95.8294 92.4718L102.896 101.422L106.472 112.691L97.0119 102.344L95.7632 104.086Z" fill="#F5F5F5"/>
<path d="M58.775 232.397L397.84 232.397V221.081L58.775 221.081V232.397Z" fill="#E0E0E0"/>
<path d="M389.866 291.352H405.834V192.099L397.85 186.51L389.866 192.099V291.352Z" fill="#E6E6E6"/>
<path d="M361.609 291.352H377.577V192.099L369.593 186.51L361.609 192.099V291.352Z" fill="#E6E6E6"/>
<path d="M333.352 291.352H349.321V192.099L341.336 186.51L333.352 192.099V291.352Z" fill="#E6E6E6"/>
<path d="M305.094 291.352H321.063V192.099L313.078 186.51L305.094 192.099V291.352Z" fill="#E6E6E6"/>
<path d="M276.837 291.352H292.806V192.099L284.822 186.51L276.837 192.099V291.352Z" fill="#E6E6E6"/>
<path d="M248.58 291.352H264.549V192.099L256.564 186.51L248.58 192.099V291.352Z" fill="#E6E6E6"/>
<path d="M220.333 291.352H236.301V192.099L228.317 186.51L220.333 192.099V291.352Z" fill="#E6E6E6"/>
<path d="M192.076 291.352H208.044V192.099L200.06 186.51L192.076 192.099V291.352Z" fill="#E6E6E6"/>
<path d="M163.819 291.352H179.788V192.099L171.804 186.51L163.819 192.099V291.352Z" fill="#E6E6E6"/>
<path d="M135.562 291.352H151.53V192.099L143.546 186.51L135.562 192.099V291.352Z" fill="#E6E6E6"/>
<path d="M107.314 291.352H123.273V192.099L115.289 186.51L107.314 192.099V291.352Z" fill="#E6E6E6"/>
<path d="M79.0571 291.352H95.0256V192.099L87.0414 186.51L79.0571 192.099V291.352Z" fill="#E6E6E6"/>
<path d="M50.8003 291.352H66.7688V192.099L58.7845 186.51L50.8003 192.099V291.352Z" fill="#E6E6E6"/>
<path d="M62.9378 292.44C62.9378 292.44 60.2984 283.723 65.6433 281.981C70.9882 280.24 74.1573 276.17 73.9871 271.56C73.8168 266.95 79.436 262.461 83.6552 266.782C87.8743 271.104 87.3162 263.458 92.9449 261.604C98.5736 259.751 103.351 264.249 101.799 268.375C100.248 272.501 105.81 275.062 112.461 271.56C119.111 268.058 126.433 274.428 125.024 279.42C123.614 284.412 124.768 284.962 128.978 283.294C133.188 281.627 140.708 286.34 138.069 292.44C135.43 298.54 62.9378 292.44 62.9378 292.44Z" fill="#E0E0E0"/>
<path d="M347.05 291.184C347.05 291.184 345.006 284.413 349.15 283.063C353.293 281.712 355.772 278.555 355.63 274.969C355.488 271.384 359.859 267.91 363.132 271.244C366.405 274.578 365.97 268.664 370.34 267.221C374.711 265.777 378.419 269.279 377.218 272.483C376.016 275.687 380.33 277.67 385.495 274.951C390.66 272.231 396.336 277.186 395.248 281.051C394.161 284.916 395.05 285.354 398.313 284.059C401.577 282.765 407.423 286.434 405.38 291.165C403.337 295.897 347.05 291.184 347.05 291.184Z" fill="#E0E0E0"/>
<path d="M244.361 291.986C239.631 287.329 243.888 279.413 248.618 278.481C253.348 277.55 258.078 269.354 258.324 264.138C258.57 258.923 267.065 242.875 280.309 252.785C293.553 262.695 289.523 254.238 299.106 251.462C308.689 248.687 314.734 256.687 310.525 262.695C310.525 262.695 320.155 260.32 324.119 269.168C328.082 278.016 324.119 283.511 324.119 283.511C324.119 283.511 342.216 282.98 340.589 293.998C338.961 305.016 244.361 291.986 244.361 291.986Z" fill="#E0E0E0"/>
<path d="M412.589 292.264V305.024H47.4329V292.264C47.4048 291.754 47.4814 291.244 47.6581 290.764C47.8347 290.284 48.1077 289.844 48.4609 289.47C48.8141 289.097 49.2402 288.797 49.7137 288.589C50.1872 288.381 50.6984 288.269 51.2169 288.259H408.767C409.289 288.264 409.804 288.372 410.282 288.578C410.76 288.784 411.191 289.083 411.548 289.457C411.905 289.832 412.181 290.273 412.36 290.756C412.539 291.238 412.617 291.751 412.589 292.264Z" fill="#EBEBEB"/>
<path d="M90.9482 288.259H68.2441V305.024H90.9482V288.259Z" fill="#F5F5F5"/>
<path d="M133.518 288.259H111.76V305.024H133.518V288.259Z" fill="#F5F5F5"/>
<path d="M177.035 288.259H154.331V305.024H177.035V288.259Z" fill="#F5F5F5"/>
<path d="M219.604 288.259H197.846V305.024H219.604V288.259Z" fill="#F5F5F5"/>
<path d="M262.174 288.259H240.417V305.024H262.174V288.259Z" fill="#F5F5F5"/>
<path d="M305.69 288.259H282.986V305.024H305.69V288.259Z" fill="#F5F5F5"/>
<path d="M348.261 288.259H326.503V305.024H348.261V288.259Z" fill="#F5F5F5"/>
<path d="M391.777 288.259H369.073V305.024H391.777V288.259Z" fill="#F5F5F5"/>
<path d="M236.5 346.98C337.8 346.98 419.919 342.26 419.919 336.438C419.919 330.616 337.8 325.896 236.5 325.896C135.199 325.896 53.0796 330.616 53.0796 336.438C53.0796 342.26 135.199 346.98 236.5 346.98Z" fill="#F5F5F5"/>
<path d="M402.579 240.155H370.624V262.145H402.579V240.155Z" fill="#263238"/>
<path d="M360.35 235.172V337.332H404.462V235.172H360.35ZM399.656 255.717H385.627V247.391C385.627 246.46 386.003 245.567 386.672 244.908C387.341 244.25 388.248 243.88 389.194 243.88H396.09C397.036 243.88 397.943 244.25 398.612 244.908C399.281 245.567 399.656 246.46 399.656 247.391V255.717Z" fill="#407BFF"/>
<path opacity="0.6" d="M360.35 235.172V337.332H404.462V235.172H360.35ZM399.656 255.717H385.627V247.391C385.627 246.46 386.003 245.567 386.672 244.908C387.341 244.25 388.248 243.88 389.194 243.88H396.09C397.036 243.88 397.943 244.25 398.612 244.908C399.281 245.567 399.656 246.46 399.656 247.391V255.717Z" fill="white"/>
<path opacity="0.4" d="M379.27 235.172H360.35V337.341H379.27V235.172Z" fill="white"/>
<path d="M405.503 231.503H359.215V238.271H405.503V231.503Z" fill="#407BFF"/>
<path opacity="0.2" d="M380.576 231.503H359.215V238.271H380.576V231.503Z" fill="white"/>
<path d="M93.4178 308.322C93.4178 308.322 99.2168 295.879 92.5948 283.604C85.9728 271.328 84.0808 268.441 88.2716 265.908C92.4623 263.375 94.43 275.724 94.43 275.724C94.43 275.724 97.987 267.24 95.0544 258.364C92.1218 249.488 90.2676 235.024 94.2787 233.478C98.2897 231.932 95.0449 251.518 98.5262 258.196C100.299 253.507 101.443 248.61 101.932 243.63C102.414 236.496 101.667 225.115 104.836 222.209C108.005 219.303 110.03 221.277 106.917 237.045C105.047 246.448 104.012 255.993 103.824 265.573C103.824 265.573 110.682 244.943 115.318 244.328C119.953 243.714 119.925 250.41 115.98 256.212C112.035 262.015 104.41 272.399 103.162 277.745C103.162 277.745 110.73 262.21 117.493 266.97C124.257 271.729 111.628 281.117 105.952 284.507C100.276 287.897 96.3599 309.151 96.3599 309.151L93.4178 308.322Z" fill="#407BFF"/>
<path opacity="0.2" d="M93.4178 308.322C93.4178 308.322 99.2168 295.879 92.5948 283.604C85.9728 271.328 84.0808 268.441 88.2716 265.908C92.4623 263.375 94.43 275.724 94.43 275.724C94.43 275.724 97.987 267.24 95.0544 258.364C92.1218 249.488 90.2676 235.024 94.2787 233.478C98.2897 231.932 95.0449 251.518 98.5262 258.196C100.299 253.507 101.443 248.61 101.932 243.63C102.414 236.496 101.667 225.115 104.836 222.209C108.005 219.303 110.03 221.277 106.917 237.045C105.047 246.448 104.012 255.993 103.824 265.573C103.824 265.573 110.682 244.943 115.318 244.328C119.953 243.714 119.925 250.41 115.98 256.212C112.035 262.015 104.41 272.399 103.162 277.745C103.162 277.745 110.73 262.21 117.493 266.97C124.257 271.729 111.628 281.117 105.952 284.507C100.276 287.897 96.3599 309.151 96.3599 309.151L93.4178 308.322Z" fill="black"/>
<path d="M97.9963 313.436C97.9963 313.436 92.3203 300.9 99.1221 288.727C105.924 276.554 107.844 273.694 103.653 271.114C99.4626 268.535 97.3814 280.838 97.3814 280.838C97.3814 280.838 93.9285 272.307 96.9747 263.468C100.021 254.629 102.036 240.184 98.0436 238.591C94.0515 236.999 97.0976 256.622 93.4934 263.244C91.7825 258.544 90.6981 253.644 90.2675 248.669C89.8702 241.534 90.7594 230.153 87.6282 227.191C84.4969 224.229 82.4441 226.26 85.3672 242C87.1248 251.425 88.0427 260.983 88.1106 270.565C88.1106 270.565 81.4886 249.823 76.8722 249.144C72.2557 248.464 72.1422 255.16 76.0681 261.018C79.994 266.877 87.4201 277.373 88.6309 282.738C88.6309 282.738 81.2711 267.091 74.441 271.748C67.6108 276.405 80.1737 285.979 85.7929 289.444C91.4122 292.908 95.0827 314.227 95.0827 314.227L97.9963 313.436Z" fill="#407BFF"/>
<path d="M71.9624 304.493H118.581L114.807 337.342H75.7369L71.9624 304.493Z" fill="#263238"/>
<path d="M337.987 159.781C337.987 154.323 335.093 149.396 330.419 145.857C330.571 145.14 330.647 144.41 330.646 143.678C330.646 136.404 323.145 130.499 313.817 130.332C310.979 123.309 302.531 118.224 292.532 118.224C284.557 118.224 277.566 121.475 273.612 126.346C272.615 126.211 271.61 126.143 270.604 126.141C261.077 126.141 253.358 132.111 253.358 139.487C253.36 140.74 253.587 141.982 254.03 143.156C247.956 146.295 243.964 151.641 243.964 157.704C243.964 163.553 247.673 168.731 253.368 171.907C253.368 171.963 253.368 172.028 253.368 172.093C253.368 179.246 260.642 185.132 269.771 185.421C274.813 190.264 282.533 193.365 291.179 193.365C296.877 193.414 302.488 191.988 307.45 189.23C308.229 189.316 309.013 189.359 309.797 189.36C319.313 189.36 327.033 183.381 327.033 176.014V175.874C333.645 172.363 337.987 166.459 337.987 159.781Z" fill="#407BFF"/>
<path d="M213.863 150.547C213.863 151.775 212.425 152.769 210.656 152.769C208.887 152.769 207.449 151.775 207.449 150.547C207.449 149.32 208.877 148.326 210.656 148.326C212.434 148.326 213.863 149.32 213.863 150.547Z" fill="#407BFF"/>
<path d="M238.913 149.015C238.913 152.545 234.741 155.404 229.594 155.404C224.448 155.404 220.276 152.545 220.276 149.015C220.276 145.485 224.448 142.626 229.594 142.626C234.741 142.626 238.913 145.485 238.913 149.015Z" fill="#407BFF"/>
<path opacity="0.7" d="M337.987 159.781C337.987 154.323 335.093 149.396 330.419 145.857C330.571 145.14 330.647 144.41 330.646 143.678C330.646 136.404 323.145 130.499 313.817 130.332C310.979 123.309 302.531 118.224 292.532 118.224C284.557 118.224 277.566 121.475 273.612 126.346C272.615 126.211 271.61 126.143 270.604 126.141C261.077 126.141 253.358 132.111 253.358 139.487C253.36 140.74 253.587 141.982 254.03 143.156C247.956 146.295 243.964 151.641 243.964 157.704C243.964 163.553 247.673 168.731 253.368 171.907C253.368 171.963 253.368 172.028 253.368 172.093C253.368 179.246 260.642 185.132 269.771 185.421C274.813 190.264 282.533 193.365 291.179 193.365C296.877 193.414 302.488 191.988 307.45 189.23C308.229 189.316 309.013 189.359 309.797 189.36C319.313 189.36 327.033 183.381 327.033 176.014V175.874C333.645 172.363 337.987 166.459 337.987 159.781Z" fill="white"/>
<path opacity="0.7" d="M213.863 150.547C213.863 151.775 212.425 152.769 210.656 152.769C208.887 152.769 207.449 151.775 207.449 150.547C207.449 149.32 208.877 148.326 210.656 148.326C212.434 148.326 213.863 149.32 213.863 150.547Z" fill="white"/>
<path opacity="0.7" d="M238.913 149.015C238.913 152.545 234.741 155.404 229.594 155.404C224.448 155.404 220.276 152.545 220.276 149.015C220.276 145.485 224.448 142.626 229.594 142.626C234.741 142.626 238.913 145.485 238.913 149.015Z" fill="white"/>
<path d="M280.016 78.3732C280.016 71.6861 275.21 65.9491 268.314 63.3879C268.549 62.3796 268.67 61.3488 268.674 60.3144C268.674 52.3235 261.796 45.6737 252.696 44.2021C246.48 35.9877 235.668 30.5393 223.37 30.5393C211.072 30.5393 200.42 35.8852 194.176 43.9786C184.158 44.7796 176.334 51.7833 176.334 60.3144C176.335 61.8583 176.597 63.3912 177.11 64.8501C171.945 67.8117 168.596 72.7665 168.596 78.3732C168.596 86.2431 175.218 92.8091 184.139 94.411C185.501 102.383 193.703 108.512 203.664 108.521C210.297 113.097 218.209 115.535 226.308 115.496C234.408 115.458 242.296 112.946 248.883 108.307C257.52 107.208 264.303 101.461 265.429 94.2247C273.801 92.362 280.016 85.9823 280.016 78.3732Z" fill="#407BFF"/>
<path d="M210.57 132.261C215.873 132.261 220.172 129.134 220.172 125.276C220.172 121.419 215.873 118.291 210.57 118.291C205.267 118.291 200.968 121.419 200.968 125.276C200.968 129.134 205.267 132.261 210.57 132.261Z" fill="#407BFF"/>
<path d="M203.229 137.984C203.229 139.202 201.791 140.205 200.022 140.205C198.253 140.205 196.815 139.202 196.815 137.984C196.815 136.765 198.253 135.762 200.022 135.762C201.791 135.762 203.229 136.756 203.229 137.984Z" fill="#407BFF"/>
<path opacity="0.7" d="M280.016 78.3732C280.016 71.6861 275.21 65.9491 268.314 63.3879C268.549 62.3796 268.67 61.3488 268.674 60.3144C268.674 52.3235 261.796 45.6737 252.696 44.2021C246.48 35.9877 235.668 30.5393 223.37 30.5393C211.072 30.5393 200.42 35.8852 194.176 43.9786C184.158 44.7796 176.334 51.7833 176.334 60.3144C176.335 61.8583 176.597 63.3912 177.11 64.8501C171.945 67.8117 168.596 72.7665 168.596 78.3732C168.596 86.2431 175.218 92.8091 184.139 94.411C185.501 102.383 193.703 108.512 203.664 108.521C210.297 113.097 218.209 115.535 226.308 115.496C234.408 115.458 242.296 112.946 248.883 108.307C257.52 107.208 264.303 101.461 265.429 94.2247C273.801 92.362 280.016 85.9823 280.016 78.3732Z" fill="white"/>
<path opacity="0.7" d="M210.57 132.261C215.873 132.261 220.172 129.134 220.172 125.276C220.172 121.419 215.873 118.291 210.57 118.291C205.267 118.291 200.968 121.419 200.968 125.276C200.968 129.134 205.267 132.261 210.57 132.261Z" fill="white"/>
<path opacity="0.7" d="M203.229 137.984C203.229 139.202 201.791 140.205 200.022 140.205C198.253 140.205 196.815 139.202 196.815 137.984C196.815 136.765 198.253 135.762 200.022 135.762C201.791 135.762 203.229 136.756 203.229 137.984Z" fill="white"/>
<path d="M170.412 127.51C170.412 130.062 167.574 132.167 164.055 132.167C160.536 132.167 157.698 130.1 157.698 127.51C157.698 124.921 160.536 122.854 164.055 122.854C167.574 122.854 170.412 124.959 170.412 127.51Z" fill="#407BFF"/>
<path d="M178.907 135.99C178.907 137.218 177.479 138.212 175.7 138.212C173.922 138.212 172.493 137.218 172.493 135.99C172.493 134.762 173.931 133.769 175.7 133.769C177.469 133.769 178.907 134.753 178.907 135.99Z" fill="#407BFF"/>
<path opacity="0.7" d="M170.412 127.51C170.412 130.062 167.574 132.167 164.055 132.167C160.536 132.167 157.698 130.1 157.698 127.51C157.698 124.921 160.536 122.854 164.055 122.854C167.574 122.854 170.412 124.959 170.412 127.51Z" fill="white"/>
<path opacity="0.7" d="M178.907 135.99C178.907 137.218 177.479 138.212 175.7 138.212C173.922 138.212 172.493 137.218 172.493 135.99C172.493 134.762 173.931 133.769 175.7 133.769C177.469 133.769 178.907 134.753 178.907 135.99Z" fill="white"/>
<path d="M158.691 110.131C158.485 108.6 157.92 107.137 157.042 105.857C156.164 104.577 154.996 103.515 153.63 102.755C153.673 102.343 153.673 101.928 153.63 101.516C153.195 97.437 148.635 94.5592 143.394 94.9969C141.398 91.2157 136.347 88.8408 130.737 89.4089C128.731 89.552 126.783 90.1316 125.033 91.106C123.282 92.0804 121.773 93.4253 120.615 95.0435C120.047 95.0252 119.478 95.0439 118.912 95.0994C113.567 95.6489 109.594 99.4394 110.029 103.575C110.106 104.276 110.304 104.96 110.616 105.596C107.399 107.71 105.479 110.932 105.886 114.341C106.292 117.75 108.62 120.311 111.997 121.792C111.992 121.826 111.992 121.86 111.997 121.894C112.422 125.908 116.84 128.767 121.986 128.413C125.569 131.03 130.039 132.184 134.464 131.636C137.659 131.34 140.719 130.222 143.338 128.395C143.777 128.404 144.216 128.385 144.653 128.339C149.998 127.789 153.971 123.999 153.536 119.854C153.536 119.854 153.536 119.854 153.536 119.78C157.036 117.442 159.089 113.885 158.691 110.131Z" fill="#407BFF"/>
<path opacity="0.7" d="M158.691 110.131C158.485 108.6 157.92 107.137 157.042 105.857C156.164 104.577 154.996 103.515 153.63 102.755C153.673 102.343 153.673 101.928 153.63 101.516C153.195 97.437 148.635 94.5592 143.394 94.9969C141.398 91.2157 136.347 88.8408 130.737 89.4089C128.731 89.552 126.783 90.1316 125.033 91.106C123.282 92.0804 121.773 93.4253 120.615 95.0435C120.047 95.0252 119.478 95.0439 118.912 95.0994C113.567 95.6489 109.594 99.4394 110.029 103.575C110.106 104.276 110.304 104.96 110.616 105.596C107.399 107.71 105.479 110.932 105.886 114.341C106.292 117.75 108.62 120.311 111.997 121.792C111.992 121.826 111.992 121.86 111.997 121.894C112.422 125.908 116.84 128.767 121.986 128.413C125.569 131.03 130.039 132.184 134.464 131.636C137.659 131.34 140.719 130.222 143.338 128.395C143.777 128.404 144.216 128.385 144.653 128.339C149.998 127.789 153.971 123.999 153.536 119.854C153.536 119.854 153.536 119.854 153.536 119.78C157.036 117.442 159.089 113.885 158.691 110.131Z" fill="white"/>
<path d="M297.101 152.629C297.281 150.142 295.209 148.298 291.756 148.056C290.349 147.88 288.92 148.053 287.599 148.559C286.277 149.064 285.105 149.887 284.188 150.952L280.016 147.841C282.788 144.647 287.007 142.887 292.645 143.287C299.267 143.753 303.486 147.013 303.117 152.154C302.588 159.399 294.821 159.521 294.433 164.764L288.7 164.364C289.145 157.788 296.77 157.071 297.101 152.629ZM287.423 171.46C287.537 170.558 287.999 169.733 288.713 169.156C289.427 168.579 290.339 168.294 291.26 168.36C292.182 168.425 293.042 168.837 293.664 169.509C294.287 170.182 294.623 171.063 294.603 171.973C294.489 172.875 294.028 173.7 293.314 174.277C292.599 174.854 291.688 175.139 290.766 175.074C289.845 175.008 288.984 174.596 288.362 173.924C287.74 173.252 287.404 172.37 287.423 171.46Z" fill="#407BFF"/>
<path d="M231.439 96.7385C231.307 99.2811 227.655 101.172 223.275 100.948C218.895 100.725 215.452 98.4895 215.584 95.9376C215.717 93.3857 219.368 91.5045 223.748 91.728C228.128 91.9515 231.572 94.1867 231.439 96.7385Z" fill="#263238"/>
<path d="M235.298 88.478C235.749 88.1016 236.034 87.5672 236.093 86.9879C236.225 84.4919 230.928 82.1914 224.268 81.8561C217.608 81.5209 212.102 83.2811 211.97 85.7771C211.97 86.3565 212.197 86.9135 212.604 87.3325C212.458 87.5731 212.374 87.8446 212.358 88.1241C212.359 88.6995 212.59 89.2512 213.001 89.6608C212.848 89.9023 212.761 90.1779 212.745 90.4618C212.746 90.748 212.806 91.031 212.921 91.2936C213.037 91.5563 213.206 91.7929 213.417 91.9892C213.249 92.2322 213.151 92.5154 213.133 92.8088C213.137 93.0948 213.2 93.3771 213.319 93.6382C213.438 93.8993 213.61 94.1336 213.824 94.3269C213.649 94.5712 213.544 94.8577 213.521 95.1558C213.408 97.2327 217.816 99.1419 223.35 99.4213C228.884 99.7008 233.472 98.2478 233.576 96.1616C233.587 95.8646 233.511 95.5707 233.359 95.3141C233.594 95.1453 233.791 94.9295 233.936 94.6807C234.081 94.432 234.171 94.1559 234.201 93.8705C234.216 93.5794 234.151 93.2896 234.012 93.0323C234.241 92.8568 234.431 92.6377 234.573 92.3881C234.714 92.1385 234.803 91.8635 234.835 91.5794C234.844 91.2928 234.783 91.0081 234.655 90.7505C234.881 90.5718 235.069 90.3505 235.207 90.0994C235.345 89.8482 235.431 89.5725 235.459 89.2883C235.472 89.0094 235.417 88.7316 235.298 88.478Z" fill="#263238"/>
<path opacity="0.3" d="M235.298 88.478C235.749 88.1016 236.034 87.5672 236.093 86.9879C236.225 84.4919 230.928 82.1914 224.268 81.8561C217.608 81.5209 212.102 83.2811 211.97 85.7771C211.97 86.3565 212.197 86.9135 212.604 87.3325C212.458 87.5731 212.374 87.8446 212.358 88.1241C212.359 88.6995 212.59 89.2512 213.001 89.6608C212.848 89.9023 212.761 90.1779 212.745 90.4618C212.746 90.748 212.806 91.031 212.921 91.2936C213.037 91.5563 213.206 91.7929 213.417 91.9892C213.249 92.2322 213.151 92.5154 213.133 92.8088C213.137 93.0948 213.2 93.3771 213.319 93.6382C213.438 93.8993 213.61 94.1336 213.824 94.3269C213.649 94.5712 213.544 94.8577 213.521 95.1558C213.408 97.2327 217.816 99.1419 223.35 99.4213C228.884 99.7008 233.472 98.2478 233.576 96.1616C233.587 95.8646 233.511 95.5707 233.359 95.3141C233.594 95.1453 233.791 94.9295 233.936 94.6807C234.081 94.432 234.171 94.1559 234.201 93.8705C234.216 93.5794 234.151 93.2896 234.012 93.0323C234.241 92.8568 234.431 92.6377 234.573 92.3881C234.714 92.1385 234.803 91.8635 234.835 91.5794C234.844 91.2928 234.783 91.0081 234.655 90.7505C234.881 90.5718 235.069 90.3505 235.207 90.0994C235.345 89.8482 235.431 89.5725 235.459 89.2883C235.472 89.0094 235.417 88.7316 235.298 88.478Z" fill="white"/>
<path d="M246.452 66.7672C246.635 63.2244 245.906 59.6933 244.332 56.5024C242.758 53.3114 240.389 50.5642 237.447 48.5161C234.505 46.468 231.085 45.1856 227.504 44.788C223.924 44.3905 220.299 44.8908 216.967 46.2423C213.636 47.5939 210.706 49.7529 208.449 52.5185C206.192 55.2842 204.683 58.5666 204.06 62.0608C203.438 65.5549 203.723 69.1473 204.889 72.5038C206.056 75.8603 208.065 78.872 210.731 81.2589C211.159 81.6362 211.486 82.1113 211.684 82.6423C211.882 83.1733 211.944 83.744 211.866 84.3043C211.861 84.3601 211.861 84.4162 211.866 84.472C211.734 87.0145 217.116 89.3429 223.88 89.6875C230.644 90.0321 236.235 88.2439 236.367 85.7107V85.543C236.347 84.9706 236.471 84.4021 236.729 83.8885C236.986 83.3749 237.369 82.9322 237.843 82.6C240.377 80.7512 242.464 78.3724 243.952 75.6347C245.441 72.897 246.294 69.8686 246.452 66.7672Z" fill="#407BFF"/>
<path opacity="0.3" d="M246.452 66.7672C246.635 63.2244 245.906 59.6933 244.332 56.5024C242.758 53.3114 240.389 50.5642 237.447 48.5161C234.505 46.468 231.085 45.1856 227.504 44.788C223.924 44.3905 220.299 44.8908 216.967 46.2423C213.636 47.5939 210.706 49.7529 208.449 52.5185C206.192 55.2842 204.683 58.5666 204.06 62.0608C203.438 65.5549 203.723 69.1473 204.889 72.5038C206.056 75.8603 208.065 78.872 210.731 81.2589C211.159 81.6362 211.486 82.1113 211.684 82.6423C211.882 83.1733 211.944 83.744 211.866 84.3043C211.861 84.3601 211.861 84.4162 211.866 84.472C211.734 87.0145 217.116 89.3429 223.88 89.6875C230.644 90.0321 236.235 88.2439 236.367 85.7107V85.543C236.347 84.9706 236.471 84.4021 236.729 83.8885C236.986 83.3749 237.369 82.9322 237.843 82.6C240.377 80.7512 242.464 78.3724 243.952 75.6347C245.441 72.897 246.294 69.8686 246.452 66.7672Z" fill="white"/>
<path d="M227.768 86.4382H227.712C227.679 86.4316 227.647 86.4186 227.62 86.4C227.592 86.3814 227.568 86.3576 227.549 86.3299C227.531 86.3022 227.518 86.2712 227.512 86.2386C227.506 86.2061 227.506 86.1726 227.513 86.1402C227.589 85.7397 229.405 76.6309 234.485 73.3246L231.325 73.1663C231.275 73.1636 231.226 73.1462 231.186 73.1163C231.146 73.0865 231.115 73.0455 231.098 72.9986L230.152 70.4839L227.485 75.3084C227.462 75.3492 227.428 75.3831 227.387 75.4068C227.347 75.4305 227.3 75.4429 227.253 75.4429C227.206 75.4429 227.159 75.4305 227.118 75.4068C227.078 75.3831 227.044 75.3492 227.021 75.3084L224.845 70.1766L222.206 74.4236C222.186 74.465 222.154 74.4991 222.113 74.5209C222.072 74.5427 222.025 74.551 221.979 74.5447C221.933 74.5448 221.888 74.5317 221.849 74.5069C221.81 74.4821 221.78 74.4466 221.761 74.405L219.586 69.9344L218.384 72.3746C218.363 72.4201 218.328 72.4579 218.284 72.4829C218.24 72.5079 218.189 72.5189 218.138 72.5143L214.733 72.3467C216.076 73.9113 220.248 79.3226 219.907 85.8142C219.907 85.8809 219.88 85.9449 219.832 85.992C219.784 86.0392 219.72 86.0657 219.652 86.0657C219.584 86.0657 219.519 86.0392 219.471 85.992C219.423 85.9449 219.396 85.8809 219.396 85.8142C219.784 78.3633 214.004 72.328 213.947 72.2628C213.918 72.222 213.902 72.1732 213.902 72.1231C213.902 72.0731 213.918 72.0243 213.947 71.9834C213.968 71.937 214.003 71.898 214.047 71.8714C214.091 71.8448 214.142 71.8319 214.193 71.8344L218.044 72.03L219.406 69.2359C219.428 69.1948 219.46 69.1603 219.5 69.1357C219.54 69.1112 219.586 69.0975 219.633 69.0962C219.681 69.0968 219.729 69.1101 219.77 69.1346C219.812 69.1592 219.846 69.1941 219.869 69.2359L222.064 73.7623L224.722 69.4781C224.747 69.4394 224.782 69.4083 224.824 69.3885C224.866 69.3688 224.913 69.361 224.959 69.3663C225.006 69.3681 225.051 69.3831 225.09 69.4095C225.128 69.4359 225.158 69.4726 225.176 69.5153L227.333 74.6192L230.02 69.7575C230.043 69.7161 230.077 69.6819 230.119 69.6588C230.161 69.6358 230.209 69.6248 230.256 69.6271C230.307 69.6309 230.354 69.6487 230.395 69.6784C230.435 69.7081 230.466 69.7484 230.483 69.7947L231.552 72.6726L235.403 72.8682C235.458 72.8709 235.512 72.8915 235.554 72.9268C235.597 72.9622 235.627 73.0103 235.639 73.0638C235.654 73.1183 235.648 73.176 235.624 73.227C235.6 73.2779 235.558 73.3191 235.507 73.3432C230.115 76.0908 228.071 86.1495 228.052 86.2427C228.039 86.3044 228.002 86.3588 227.949 86.395C227.897 86.4313 227.832 86.4467 227.768 86.4382Z" fill="#263238"/>
<path opacity="0.4" d="M231.931 51.009C233.823 55.2559 230.303 60.8253 224.126 63.461C217.949 66.0966 211.421 64.7835 209.558 60.5459C207.694 56.3083 211.185 50.7203 217.362 48.0846C223.54 45.449 230.057 46.7621 231.931 51.009Z" fill="white"/>
<path opacity="0.4" d="M229.878 66.2283C230.625 67.9437 229.215 70.1934 226.737 71.262C224.258 72.3307 221.638 71.7963 220.891 70.0809C220.143 68.3655 221.543 66.1158 224.022 65.0472C226.5 63.9785 229.14 64.5128 229.878 66.2283Z" fill="white"/>
<path d="M136.858 118.83L138.221 119.938L140.633 117.563L139.507 116.222C140.142 115.28 140.588 114.227 140.822 113.12L142.572 112.953V109.6L140.822 109.432C140.588 108.326 140.142 107.273 139.507 106.331L140.633 104.99L138.221 102.615L136.858 103.723C135.9 103.103 134.831 102.667 133.708 102.438L133.547 100.706H130.132L129.971 102.438C128.849 102.667 127.78 103.103 126.821 103.723L125.459 102.615L123.047 104.99L124.172 106.331C123.538 107.273 123.091 108.326 122.858 109.432L121.107 109.6V112.953L122.858 113.12C123.091 114.227 123.538 115.28 124.172 116.222L123.047 117.563L125.459 119.938L126.821 118.83C127.78 119.449 128.849 119.885 129.971 120.115L130.132 121.847H133.547L133.708 120.115C134.831 119.885 135.9 119.449 136.858 118.83ZM127.219 111.276C127.217 110.375 127.486 109.494 127.994 108.744C128.501 107.993 129.223 107.408 130.068 107.062C130.913 106.716 131.843 106.624 132.741 106.799C133.639 106.974 134.464 107.407 135.112 108.043C135.76 108.68 136.202 109.491 136.381 110.375C136.56 111.259 136.469 112.175 136.119 113.008C135.769 113.84 135.176 114.552 134.416 115.053C133.655 115.554 132.76 115.821 131.845 115.821C131.237 115.823 130.636 115.706 130.075 115.478C129.514 115.25 129.004 114.916 128.574 114.493C128.144 114.071 127.803 113.57 127.571 113.018C127.338 112.466 127.219 111.874 127.219 111.276Z" fill="#407BFF"/>
<path d="M136.318 337.343H130.075L142.846 271.04H149.089L136.318 337.343Z" fill="#407BFF"/>
<path d="M273.64 337.343H267.387L280.158 271.04H286.411L273.64 337.343Z" fill="#407BFF"/>
<path opacity="0.3" d="M136.318 337.343H130.075L142.846 271.04H149.089L136.318 337.343Z" fill="white"/>
<path opacity="0.3" d="M273.64 337.343H267.387L280.158 271.04H286.411L273.64 337.343Z" fill="white"/>
<path d="M327.977 301.856H139.582V308.127H327.977V301.856Z" fill="#407BFF"/>
<path opacity="0.5" d="M327.977 301.856H139.582V308.127H327.977V301.856Z" fill="white"/>
<path d="M193.929 337.343H200.173L187.402 271.04H181.158L193.929 337.343Z" fill="#407BFF"/>
<path d="M331.242 337.343H337.485L324.714 271.04H318.471L331.242 337.343Z" fill="#407BFF"/>
<path opacity="0.3" d="M193.929 337.343H200.173L187.402 271.04H181.158L193.929 337.343Z" fill="white"/>
<path opacity="0.3" d="M331.242 337.343H337.485L324.714 271.04H318.471L331.242 337.343Z" fill="white"/>
<path d="M274.595 268.283H268.38L257.974 211.331H264.189L274.595 268.283Z" fill="#407BFF"/>
<path opacity="0.3" d="M274.595 268.283H268.38L257.974 211.331H264.189L274.595 268.283Z" fill="white"/>
<path d="M151.151 268.283H144.936L134.53 211.331H140.745L151.151 268.283Z" fill="#407BFF"/>
<path d="M212.878 268.283H206.653L196.247 211.331H202.472L212.878 268.283Z" fill="#407BFF"/>
<path opacity="0.3" d="M151.151 268.283H144.936L134.53 211.331H140.745L151.151 268.283Z" fill="white"/>
<path opacity="0.3" d="M212.878 268.283H206.653L196.247 211.331H202.472L212.878 268.283Z" fill="white"/>
<path d="M285.332 215.215H122.081L120.132 204.56H283.384L285.332 215.215Z" fill="#407BFF"/>
<path d="M288.852 234.502H125.601L123.652 223.839H286.903L288.852 234.502Z" fill="#407BFF"/>
<path d="M292.371 253.781H129.129L127.18 243.118H290.431L292.371 253.781Z" fill="#407BFF"/>
<path d="M338.791 266.597H130.737V274.012H338.791V266.597Z" fill="#407BFF"/>
<path opacity="0.5" d="M285.332 215.215H122.081L120.132 204.56H283.384L285.332 215.215Z" fill="white"/>
<path opacity="0.5" d="M288.852 234.502H125.601L123.652 223.839H286.903L288.852 234.502Z" fill="white"/>
<path opacity="0.5" d="M292.371 253.781H129.129L127.18 243.118H290.431L292.371 253.781Z" fill="white"/>
<path opacity="0.5" d="M338.791 266.597H130.737V274.012H338.791V266.597Z" fill="white"/>
<path opacity="0.2" d="M338.791 266.597H181.821V274.012H338.791V266.597Z" fill="white"/>
<path d="M213.692 174.553C220.749 175.308 228.743 176.64 235.592 175.885C234.708 176.459 234.075 177.337 233.816 178.347C233.557 179.357 233.691 180.425 234.191 181.343C234.485 181.781 234.523 181.734 234.504 181.715C232.795 180.344 230.939 179.16 228.97 178.186C224.883 175.932 214.486 170.921 210.163 168.76L211.989 163.824C219.077 165.499 226.033 167.678 232.801 170.344C236.585 172.095 242.592 173.911 243.339 178.782C243.793 186.577 232.176 186.279 226.888 186.344C221.93 186.262 216.984 185.816 212.093 185.012L213.729 174.516L213.692 174.553Z" fill="#EBC0BB"/>
<path d="M227.985 187.927L223.141 188.477L218.903 188.952L216.453 182.693L213.057 174.004L223.189 175.094L227.55 176.826C228.243 180.486 228.389 184.226 227.985 187.927Z" fill="#407BFF"/>
<path opacity="0.2" d="M223.123 188.514L218.885 188.992L216.435 182.693C218.45 183.611 221.525 185.449 223.123 188.514Z" fill="black"/>
<path d="M181.083 182.544C181.732 180.538 182.866 178.717 184.387 177.236C185.907 175.756 187.769 174.659 189.814 174.042C196.862 171.918 204.6 173.697 207.343 175.662C210.087 177.627 196.058 185.879 181.083 182.544Z" fill="#407BFF"/>
<path d="M213.038 174.004C213.038 174.004 226.282 192.631 226.008 228.394L188.698 235.016C188.026 232.538 187.251 225.097 185.321 215.458C184.498 211.332 183.429 206.806 182.142 202.093C180.27 195.295 177.834 188.66 174.858 182.256C174.858 182.256 188.405 178.055 193.314 176.993C197.95 176.025 213.038 174.004 213.038 174.004Z" fill="#263238"/>
<path d="M185.179 161.226C185.548 162.102 185.936 163.089 186.304 164.206C187.988 169.152 189.407 175.745 187.033 179.108C188.925 180.413 191.082 181.299 193.355 181.706C195.628 182.113 197.964 182.03 200.201 181.464C204.562 180.533 204.203 177.431 202.897 175.95C201.153 176.015 199.453 175.399 198.167 174.237C196.559 172.598 196.351 170.009 196.493 167.457L185.179 161.226Z" fill="#EEC1BB"/>
<path opacity="0.2" d="M185.179 161.226C185.498 162.239 185.874 163.234 186.304 164.206C188.026 168.09 191.782 174.274 198.177 174.191C196.569 172.551 196.36 169.962 196.502 167.41L185.179 161.226Z" fill="black"/>
<path d="M299.986 314.868C299.986 314.868 284.263 258.83 281.671 255.617C277.423 250.355 236.736 244.795 236.736 244.795L226.094 226.68L187.667 231.98C187.667 231.98 190.505 258.588 195.235 265.442C199.965 272.297 261.881 271.152 266.005 272.483C270.13 273.815 285.691 317.588 285.691 317.588L299.986 314.868Z" fill="#263238"/>
<path opacity="0.4" d="M199.691 231.394L187.667 232.884L188.121 236.502L200.939 235.002L199.691 231.394Z" fill="white"/>
<path opacity="0.4" d="M201.517 231.089L202.784 234.735L227.551 230.845L226.009 227.574L201.517 231.089Z" fill="white"/>
<path d="M214.562 230.158L215.404 232.567C215.513 232.859 215.72 233.105 215.99 233.264C216.261 233.422 216.578 233.484 216.889 233.439L221.136 232.708C221.277 232.689 221.411 232.638 221.529 232.561C221.647 232.483 221.746 232.38 221.819 232.26C221.892 232.139 221.936 232.004 221.949 231.864C221.962 231.724 221.943 231.583 221.893 231.452L221.051 229.042C220.94 228.75 220.731 228.504 220.459 228.345C220.187 228.186 219.869 228.125 219.556 228.17L215.309 228.902C215.169 228.922 215.036 228.973 214.919 229.051C214.802 229.13 214.704 229.233 214.633 229.353C214.561 229.473 214.517 229.608 214.505 229.747C214.493 229.887 214.512 230.027 214.562 230.158Z" fill="white"/>
<path opacity="0.2" d="M236.736 244.812L222.858 243.265L235.25 242.271L236.736 244.812Z" fill="black"/>
<path d="M199.416 146.837C201.469 148.625 199.823 151.494 200.201 153.505C200.579 155.517 201.308 158.041 198.309 155.656C195.31 153.272 196.266 144.36 199.416 146.837Z" fill="#263238"/>
<path d="M202.386 164.849C202.501 165.907 202.292 166.975 201.786 167.916C201.281 168.857 200.502 169.628 199.548 170.13C196.549 171.722 191.725 171.061 187.827 168.584C183.693 165.929 184.422 164.672 182.568 158.143C182.11 156.623 182.055 155.013 182.406 153.466C182.758 151.919 183.505 150.486 184.576 149.302C185.647 148.119 187.008 147.224 188.529 146.703C190.05 146.182 191.681 146.052 193.267 146.325C199.889 147.414 201.875 156.97 202.311 163.359C202.348 163.918 202.367 164.374 202.386 164.849Z" fill="#EEC1BB"/>
<path d="M184.223 162.484C187.544 163.862 187.912 159.485 187.657 159.187C186.522 157.892 186.389 156.663 187.089 153.766C187.789 150.87 181.745 148.504 177.875 150.264C174.299 151.885 178.5 154.213 178.367 156.672C178.14 161.059 181.546 161.366 184.223 162.484Z" fill="#263238"/>
<path d="M180.458 163.239C181.341 164.549 182.694 165.478 184.242 165.835C186.21 166.229 186.825 164.279 185.983 162.367C185.217 160.642 183.278 158.364 181.442 158.842C179.607 159.32 179.304 161.57 180.458 163.239Z" fill="#EEC1BB"/>
<path d="M191.262 156C191.413 156.562 191.678 156.562 192.056 156.459C192.435 156.356 192.756 156.215 192.614 155.653C192.473 155.091 192.047 154.716 191.668 154.81C191.29 154.903 191.091 155.438 191.262 156Z" fill="#263238"/>
<path d="M197.96 155.142C198.101 155.714 198.376 155.705 198.754 155.611C199.133 155.517 199.454 155.358 199.303 154.795C199.152 154.233 198.745 153.858 198.357 153.952C197.969 154.045 197.818 154.608 197.96 155.142Z" fill="#263238"/>
<path d="M196.824 156.029C197.609 157.266 198.564 158.389 199.662 159.365C199.403 159.639 199.087 159.854 198.736 159.995C198.385 160.136 198.007 160.199 197.628 160.181L196.824 156.029Z" fill="#ED847E"/>
<path d="M189.2 154.805C189.144 154.817 189.085 154.817 189.029 154.805C188.951 154.758 188.895 154.683 188.872 154.595C188.849 154.507 188.861 154.414 188.906 154.336C189.173 153.859 189.549 153.452 190.004 153.147C190.46 152.843 190.981 152.649 191.527 152.583C191.572 152.579 191.618 152.584 191.661 152.598C191.705 152.612 191.745 152.635 191.779 152.664C191.814 152.694 191.842 152.73 191.862 152.771C191.882 152.812 191.893 152.856 191.896 152.901C191.898 152.947 191.892 152.992 191.876 153.036C191.861 153.079 191.837 153.118 191.807 153.152C191.776 153.186 191.739 153.214 191.697 153.233C191.656 153.253 191.611 153.265 191.565 153.267C191.133 153.326 190.721 153.485 190.363 153.731C190.005 153.977 189.71 154.303 189.502 154.683C189.465 154.725 189.418 154.759 189.366 154.78C189.313 154.801 189.256 154.809 189.2 154.805Z" fill="#263238"/>
<path d="M200.031 152.749C199.981 152.775 199.926 152.788 199.87 152.788C199.814 152.788 199.759 152.775 199.709 152.749C199.363 152.493 198.96 152.322 198.534 152.25C198.108 152.178 197.671 152.208 197.259 152.337C197.217 152.353 197.172 152.361 197.126 152.36C197.081 152.359 197.036 152.349 196.995 152.331C196.953 152.313 196.916 152.286 196.885 152.254C196.854 152.221 196.83 152.182 196.814 152.14C196.783 152.056 196.785 151.964 196.82 151.882C196.855 151.8 196.921 151.734 197.004 151.699C197.522 151.529 198.075 151.485 198.615 151.569C199.155 151.654 199.666 151.866 200.106 152.187C200.179 152.241 200.228 152.321 200.244 152.409C200.26 152.498 200.241 152.589 200.192 152.665C200.147 152.707 200.091 152.736 200.031 152.749Z" fill="#263238"/>
<path d="M192.141 149.072C192.141 149.072 197.59 150.571 199.208 145.849C200.825 141.127 194.364 139.33 194.364 139.33C194.659 139.779 194.852 140.285 194.93 140.813C195.008 141.342 194.97 141.881 194.818 142.394C194.818 142.394 193.314 139.358 189.142 140.988C184.97 142.617 178.386 144.909 177.308 147.367C177.024 147.948 176.895 148.59 176.931 149.233C176.968 149.876 177.169 150.5 177.516 151.046L184.753 151.707C185.06 151.055 185.495 150.468 186.033 149.982C186.572 149.496 187.202 149.119 187.889 148.874C188.576 148.629 189.305 148.521 190.035 148.554C190.765 148.588 191.481 148.764 192.141 149.072Z" fill="#263238"/>
<path d="M197.638 163.503C195.98 163.523 194.368 162.969 193.078 161.937C193.016 161.873 192.981 161.787 192.981 161.698C192.981 161.609 193.016 161.524 193.078 161.459C193.109 161.428 193.147 161.403 193.188 161.386C193.23 161.369 193.274 161.36 193.319 161.36C193.364 161.36 193.408 161.369 193.45 161.386C193.491 161.403 193.529 161.428 193.56 161.459C194.965 162.531 196.74 163.01 198.498 162.79C198.588 162.782 198.678 162.809 198.748 162.865C198.819 162.921 198.865 163.002 198.877 163.09C198.888 163.179 198.863 163.267 198.808 163.338C198.753 163.408 198.672 163.454 198.584 163.465C198.269 163.496 197.953 163.509 197.638 163.503Z" fill="#263238"/>
<path opacity="0.2" d="M299.985 314.859L285.691 317.588C285.691 317.588 270.092 273.815 265.967 272.483C261.842 271.152 199.908 272.297 195.206 265.442C190.505 258.588 187.638 231.98 187.638 231.98L226.093 226.68L229.234 232.026L230.993 235.016L236.736 244.795C236.736 244.795 277.414 250.383 281.671 255.617C284.272 258.83 299.985 314.859 299.985 314.859Z" fill="white"/>
<path d="M207.901 242.271C207.901 242.271 252.524 225.441 264.661 230.107C276.799 234.773 315.216 276.964 315.216 276.964L306.55 287.787C306.55 287.787 267.66 251.389 263.11 249.312C258.56 247.235 212.849 269.848 212.849 269.848L207.901 242.271Z" fill="#263238"/>
<path opacity="0.2" d="M207.901 242.271C207.901 242.271 252.524 225.441 264.661 230.107C276.799 234.773 315.216 276.964 315.216 276.964L306.55 287.787C306.55 287.787 267.66 251.389 263.11 249.312C258.56 247.235 212.849 269.848 212.849 269.848L207.901 242.271Z" fill="white"/>
<path d="M321.62 293.875L325.499 287.468L313.73 276.647L309.871 283.054L321.62 293.875Z" fill="#EEC1BB"/>
<path opacity="0.2" d="M309.871 283.055L313.74 276.656L320.466 282.841L316.341 289.025L309.871 283.055Z" fill="black"/>
<path d="M326.265 286.71C326.265 286.71 326.265 286.71 326.322 286.71C326.324 286.692 326.324 286.673 326.322 286.654C326.877 286.28 327.39 285.85 327.854 285.37C328.233 285.035 328.475 284.575 328.535 284.076C328.525 283.899 328.465 283.729 328.361 283.584C328.257 283.44 328.114 283.328 327.949 283.261C327.85 283.208 327.739 283.181 327.627 283.181C327.515 283.181 327.405 283.208 327.306 283.261C326.823 283.504 326.511 284.339 326.303 285.136C326.223 284.494 325.914 283.902 325.433 283.467C325.303 283.39 325.152 283.359 325.003 283.377C324.854 283.396 324.715 283.464 324.609 283.57C324.509 283.653 324.429 283.758 324.376 283.877C324.324 283.996 324.3 284.125 324.307 284.254C324.307 285.295 326.076 286.542 326.199 286.617L326.256 286.504L326.208 286.626C326.204 286.667 326.204 286.707 326.208 286.748C326.23 286.74 326.25 286.728 326.265 286.71ZM326.133 286.026C326.133 286.095 326.133 286.151 326.133 286.195C325.593 285.735 324.742 284.892 324.723 284.32C324.718 284.25 324.727 284.181 324.75 284.115C324.773 284.049 324.809 283.988 324.855 283.936L324.922 283.879C325.111 283.711 325.243 283.748 325.328 283.804C325.851 284.429 326.136 285.215 326.133 286.026ZM326.501 286.176C326.672 285.154 327.05 283.804 327.523 283.57C327.571 283.545 327.625 283.531 327.679 283.531C327.734 283.531 327.787 283.545 327.835 283.57C327.939 283.616 328.028 283.688 328.096 283.778C328.164 283.868 328.208 283.974 328.223 284.086C328.261 284.592 327.599 285.351 326.501 286.176Z" fill="#407BFF"/>
<path d="M325.14 286.473L319.464 292.677C319.413 292.726 319.373 292.785 319.345 292.849C319.318 292.914 319.304 292.984 319.304 293.054C319.304 293.124 319.318 293.193 319.345 293.258C319.373 293.323 319.413 293.382 319.464 293.431L324.194 298.181C324.322 298.3 324.474 298.392 324.64 298.452C324.805 298.512 324.981 298.539 325.157 298.531C325.334 298.524 325.507 298.481 325.666 298.407C325.825 298.332 325.968 298.227 326.085 298.098C328.044 295.899 328.867 294.754 331.345 292.006C333.675 289.675 335.834 287.185 337.806 284.555C339.538 281.928 336.86 280.317 335.914 281.276C333.616 283.539 329.084 285.384 326.407 285.84C325.923 285.9 325.474 286.123 325.14 286.473Z" fill="#263238"/>
<path d="M307.941 291.213L319.142 279.096L314.469 273.639L302.436 287.171L307.941 291.213Z" fill="#407BFF"/>
<path opacity="0.2" d="M307.941 291.213L319.142 279.096L314.469 273.639L302.436 287.171L307.941 291.213Z" fill="white"/>
<path d="M302.719 327.449C302.719 327.449 302.719 327.449 302.776 327.449H302.832C303.503 327.392 304.166 327.263 304.809 327.065C305.303 326.961 305.739 326.677 306.03 326.268C306.109 326.109 306.141 325.932 306.123 325.756C306.104 325.58 306.036 325.413 305.926 325.274C305.87 325.177 305.79 325.094 305.695 325.034C305.599 324.973 305.49 324.937 305.377 324.927C304.847 324.927 304.157 325.49 303.599 326.062C303.838 325.463 303.858 324.799 303.655 324.187C303.581 324.058 303.465 323.958 303.326 323.901C303.187 323.845 303.033 323.837 302.889 323.878C302.76 323.901 302.638 323.954 302.533 324.032C302.428 324.11 302.343 324.211 302.284 324.328C301.811 325.265 302.7 327.186 302.747 327.29L302.851 327.224L302.738 327.299C302.738 327.299 302.643 327.383 302.643 327.393L302.719 327.449ZM302.955 326.793C302.915 326.837 302.877 326.884 302.842 326.933C302.489 326.195 302.389 325.362 302.558 324.562C302.587 324.499 302.629 324.444 302.681 324.399C302.733 324.353 302.794 324.32 302.861 324.299H302.946C303.192 324.253 303.296 324.346 303.343 324.44C303.494 325.244 303.36 326.075 302.965 326.793H302.955ZM303.192 327.093C303.854 326.296 304.838 325.293 305.368 325.321C305.424 325.324 305.479 325.341 305.527 325.37C305.575 325.4 305.615 325.441 305.642 325.49C305.707 325.58 305.748 325.684 305.761 325.794C305.774 325.904 305.759 326.015 305.718 326.118C305.5 326.558 304.611 326.924 303.201 327.093H303.192Z" fill="#407BFF"/>
<path d="M295.113 331.466L301.679 327.741L296.447 312.067L289.901 315.802L295.113 331.466Z" fill="#EEC1BB"/>
<path opacity="0.2" d="M289.901 315.802L296.457 312.077L299.437 321.034L292.767 324.433L289.901 315.802Z" fill="black"/>
<path d="M301.858 326.699L293.808 329.381C293.74 329.4 293.676 329.431 293.62 329.474C293.565 329.517 293.518 329.57 293.484 329.631C293.45 329.692 293.428 329.758 293.42 329.828C293.412 329.897 293.419 329.967 293.439 330.033L295.208 336.44C295.32 336.767 295.559 337.037 295.872 337.193C296.186 337.348 296.549 337.375 296.882 337.269C299.673 336.291 300.96 335.686 304.498 334.475C306.664 333.749 311.035 332.51 313.844 331.058C316.654 329.605 315.112 326.904 313.797 327.277C310.656 328.152 305.784 327.575 303.23 326.69C302.784 326.544 302.302 326.547 301.858 326.699Z" fill="#263238"/>
<path d="M286.268 322.572L302.057 317.375L300.685 310.362L283.468 316.388L286.268 322.572Z" fill="#407BFF"/>
<path opacity="0.2" d="M286.268 322.572L302.057 317.375L300.685 310.362L283.468 316.388L286.268 322.572Z" fill="white"/>
<path opacity="0.2" d="M217.229 267.715C217.229 267.715 256.961 248.027 264.189 245.363C271.416 242.699 286.95 251.165 289.589 272.093L286.41 268.656C286.41 268.656 282.702 257.228 281.68 255.617C280.659 254.006 261.587 251.221 261.587 251.221C261.587 251.221 232.129 265.76 217.229 267.715Z" fill="black"/>
<path opacity="0.2" d="M230.993 235.022L212.849 240.491C212.849 240.491 223.416 234.63 229.205 232.026L230.993 235.022Z" fill="black"/>
<path d="M179.399 192.947C176.267 194.084 171.944 195.686 168.917 196.915C165.521 198.331 161.652 199.811 158.804 201.851C158.634 201.963 158.539 202.084 158.691 201.851C158.906 201.419 159.029 200.948 159.052 200.468C159.075 199.987 158.997 199.507 158.823 199.057C158.612 198.404 158.16 197.852 157.556 197.511C158.738 198.275 160.885 199.513 162.182 200.249C165.417 202.112 168.803 203.9 172.096 205.837L170.383 210.82C165.38 210.131 160.473 208.881 155.758 207.094C151.974 205.865 148.427 203.527 149.306 198.927C150.716 191.476 169.172 185.292 175.917 182.945L179.399 192.994V192.947Z" fill="#EBC0BB"/>
<path d="M190.145 241.451L183.031 245.381C183.031 245.381 180.193 221.707 177.857 203.313C177.535 200.77 177.223 198.321 176.911 196.057C175.965 188.709 175.161 183.233 174.858 182.236L185.15 178.762C185.15 178.762 192.302 202.4 190.145 241.451Z" fill="#407BFF"/>
<path d="M187.307 175.094C185.936 177.888 187.307 182.852 187.307 182.852L182.208 186.27C182.208 186.27 181.035 184.864 181.404 181.613C181.773 178.363 187.307 175.094 187.307 175.094Z" fill="#407BFF"/>
<path opacity="0.5" d="M187.307 175.094C185.936 177.888 187.307 182.852 187.307 182.852L182.208 186.27C182.208 186.27 181.035 184.864 181.404 181.613C181.773 178.363 187.307 175.094 187.307 175.094Z" fill="white"/>
<path d="M172.01 205.558L177.98 209.549L170.137 214.157C170.137 214.157 165.842 209.643 168.037 207.134L172.01 205.558Z" fill="#EEC1BB"/>
<path d="M179.796 215.09L173.127 218.594L170.137 214.148L177.98 209.544L179.796 215.09Z" fill="#EEC1BB"/>
<path d="M204.941 174.628C204.941 174.628 211.563 180.663 218.185 198.107C223.643 212.44 221.969 228.347 229.48 232.51L226.888 224.752C226.888 224.752 225.308 186.996 213.001 174.004L204.941 174.628Z" fill="#407BFF"/>
<path d="M198.981 173.147C198.981 173.147 203.229 173.354 207.41 178.209L212.14 178.8C208.678 175.269 203.948 173.237 198.981 173.147Z" fill="#407BFF"/>
<path opacity="0.5" d="M198.981 173.147C198.981 173.147 203.229 173.354 207.41 178.209L212.14 178.8C208.678 175.269 203.948 173.237 198.981 173.147Z" fill="white"/>
<path opacity="0.2" d="M177.847 203.313C177.526 200.771 177.214 198.322 176.901 196.058C177.98 193.721 178.879 191.942 178.879 191.942C178.879 191.942 180.014 198.601 177.847 203.313Z" fill="black"/>
<path d="M174.858 182.237C174.858 182.237 165.738 185.962 158.35 189.781L165.918 200.649L177.431 199.802C178.736 196.935 179.187 193.762 178.731 190.652C178.276 187.543 176.932 184.624 174.858 182.237Z" fill="#407BFF"/>
<path opacity="0.1" d="M202.386 164.858C202.501 165.924 202.292 166.998 201.787 167.945C201.281 168.892 200.502 169.668 199.548 170.173C199.064 168.233 198.376 166.348 197.496 164.549L202.311 163.386C202.349 163.921 202.368 164.38 202.386 164.858Z" fill="black"/>
<path d="M212.045 163.869L204.941 162.427L206.88 170.15C206.88 170.15 213.294 171.086 213.625 167.763L212.045 163.869Z" fill="#EEC1BB"/>
<path d="M198.186 164.828L202.131 170.889L206.88 170.132L204.94 162.427L198.186 164.828Z" fill="#EEC1BB"/>
</svg>
