<svg width="50" height="50" viewBox="0 0 50 50" fill="none" xmlns="http://www.w3.org/2000/svg">
<path fill-rule="evenodd" clip-rule="evenodd" d="M5 28.5C5 28.0265 5.16462 27.5724 5.45765 27.2375C5.75067 26.9027 6.1481 26.7146 6.5625 26.7146H24.6656L17.9562 19.0517C17.6629 18.7165 17.498 18.2618 17.498 17.7876C17.498 17.3135 17.6629 16.8588 17.9562 16.5236C18.2496 16.1883 18.6476 16 19.0625 16C19.4774 16 19.8754 16.1883 20.1688 16.5236L29.5438 27.2359C29.6893 27.4018 29.8047 27.5988 29.8835 27.8157C29.9622 28.0326 30.0028 28.2652 30.0028 28.5C30.0028 28.7348 29.9622 28.9674 29.8835 29.1843C29.8047 29.4012 29.6893 29.5982 29.5438 29.7641L20.1688 40.4764C19.8754 40.8117 19.4774 41 19.0625 41C18.6476 41 18.2496 40.8117 17.9562 40.4764C17.6629 40.1412 17.498 39.6865 17.498 39.2124C17.498 38.7382 17.6629 38.2835 17.9562 37.9483L24.6656 30.2854H6.5625C6.1481 30.2854 5.75067 30.0973 5.45765 29.7625C5.16462 29.4276 5 28.9735 5 28.5Z" fill="white"/>
</svg>
