<svg width="43" height="35" viewBox="0 0 43 35" fill="none" xmlns="http://www.w3.org/2000/svg">
<path d="M36.7085 9.84473V10.8864C36.7085 21.376 28.7502 33.3968 14.1877 33.3968C9.88864 33.4061 5.68092 32.1568 2.0835 29.8031C2.70826 29.8879 3.33847 29.9262 3.96891 29.9176C7.53246 29.9274 10.9958 28.7388 13.8022 26.5427C12.1467 26.5183 10.541 25.9727 9.21324 24.9834C7.88553 23.9942 6.90339 22.6116 6.40641 21.0322C6.89955 21.1368 7.40232 21.1891 7.90641 21.1885C8.61033 21.1886 9.31107 21.094 9.98975 20.9072C8.1966 20.5498 6.58341 19.5803 5.4262 18.1646C4.26899 16.749 3.6397 14.9752 3.646 13.1468V13.0426C4.74308 13.6555 5.97305 13.9916 7.22933 14.0218C5.55703 12.9214 4.36806 11.2239 3.90534 9.2762C3.44262 7.32852 3.74108 5.27765 4.73975 3.54265C6.7296 5.99004 9.21223 7.99126 12.0263 9.41621C14.8403 10.8412 17.9227 11.658 21.0731 11.8135C20.9171 11.2223 20.8435 10.6123 20.8543 10.001C20.7957 8.38526 21.2364 6.79072 22.1165 5.43448C22.9966 4.07824 24.2734 3.02621 25.7729 2.42163C27.2724 1.81705 28.9217 1.6893 30.4964 2.05579C32.0711 2.42228 33.4946 3.26518 34.5731 4.46973C36.3458 4.11199 38.0462 3.46067 39.6043 2.54265C39.0135 4.40865 37.7565 5.99192 36.0731 6.99057C37.6456 6.77389 39.1787 6.33185 40.6252 5.67807C39.5769 7.28811 38.2507 8.69895 36.7085 9.84473V9.84473Z" stroke="#000059" stroke-width="3" stroke-linecap="round" stroke-linejoin="round"/>
</svg>
