<svg width="1726" height="364" viewBox="0 0 1726 364" fill="none" xmlns="http://www.w3.org/2000/svg">
<path fill-rule="evenodd" clip-rule="evenodd" d="M-2.5 259.5L69.5 224.5C141.5 190.5 328.5 109 472.5 101C616.5 92 717.5 155.5 861.5 198.5C1005.5 241.5 1223 259.5 1367 224.5C1511 190.5 1581.5 103.5 1653.5 51.5L1725.5 0.5V414.5H1653.5C1581.5 414.5 1437.5 414.5 1293.5 414.5C1149.5 414.5 1005.5 414.5 861.5 414.5C717.5 414.5 573.5 414.5 429.5 414.5C285.5 414.5 141.5 414.5 69.5 414.5H-2.5V259.5Z" fill="#0099FF"/>
</svg>
