<svg width="28" height="43" viewBox="0 0 28 43" fill="none" xmlns="http://www.w3.org/2000/svg">
<path d="M16.6667 42.4624H8.33333C7.7808 42.4624 7.2509 42.2429 6.86019 41.8522C6.46949 41.4615 6.25 40.9316 6.25 40.3791V27.4624H2.08333C1.5308 27.4624 1.0009 27.2429 0.610195 26.8522C0.219494 26.4615 0 25.9316 0 25.3791V17.8791C0 17.3265 0.219494 16.7966 0.610195 16.4059C1.0009 16.0152 1.5308 15.7957 2.08333 15.7957H6.25V12.2541C6.39603 9.07979 7.79296 6.09248 10.1354 3.94528C12.4778 1.79808 15.575 0.665701 18.75 0.795722H25C25.5525 0.795722 26.0824 1.01522 26.4731 1.40592C26.8638 1.79662 27.0833 2.32652 27.0833 2.87906V10.3791C27.0833 10.9316 26.8638 11.4615 26.4731 11.8522C26.0824 12.2429 25.5525 12.4624 25 12.4624H18.75V15.7957H25C25.3217 15.7933 25.6395 15.8654 25.9287 16.0063C26.2179 16.1473 26.4704 16.3533 26.6667 16.6082C26.8607 16.867 26.9919 17.1673 27.0497 17.4855C27.1076 17.8038 27.0906 18.1311 27 18.4416L24.9167 25.9416C24.7906 26.3922 24.5166 26.7873 24.1387 27.0632C23.7607 27.339 23.3009 27.4797 22.8333 27.4624H18.75V40.3791C18.75 40.9316 18.5305 41.4615 18.1398 41.8522C17.7491 42.2429 17.2192 42.4624 16.6667 42.4624ZM10.4167 38.2957H14.5833V25.3791C14.5833 24.8265 14.8028 24.2966 15.1935 23.9059C15.5842 23.5152 16.1141 23.2957 16.6667 23.2957H21.3333L22.25 19.9624H16.6667C16.1141 19.9624 15.5842 19.7429 15.1935 19.3522C14.8028 18.9615 14.5833 18.4316 14.5833 17.8791V12.2541C14.6368 11.1855 15.0993 10.1785 15.875 9.44156C16.6507 8.70466 17.6801 8.29438 18.75 8.29572H22.9167V4.96239H18.75C16.6809 4.83633 14.6455 5.53121 13.0854 6.89627C11.5253 8.26134 10.5664 10.1865 10.4167 12.2541V17.8791C10.4167 18.4316 10.1972 18.9615 9.80647 19.3522C9.41577 19.7429 8.88587 19.9624 8.33333 19.9624H4.16667V23.2957H8.33333C8.88587 23.2957 9.41577 23.5152 9.80647 23.9059C10.1972 24.2966 10.4167 24.8265 10.4167 25.3791V38.2957Z" fill="#000059"/>
</svg>
