<svg width="45" height="33" viewBox="0 0 45 33" fill="none" xmlns="http://www.w3.org/2000/svg">
<path d="M44.375 16.4873C44.375 16.3799 44.375 16.2578 44.3701 16.1162C44.3652 15.7207 44.3555 15.2764 44.3457 14.8027C44.3066 13.4404 44.2383 12.083 44.1309 10.8037C43.9844 9.04101 43.7695 7.57129 43.4766 6.46777C43.1674 5.31616 42.5614 4.26586 41.7191 3.42186C40.8768 2.57785 39.8277 1.96971 38.6768 1.6582C37.2949 1.28711 34.5898 1.05762 30.7812 0.916015C28.9697 0.847656 27.0312 0.803711 25.0928 0.779297C24.4141 0.769531 23.7842 0.764648 23.2178 0.759766H21.7822C21.2158 0.764648 20.5859 0.769531 19.9072 0.779297C17.9688 0.803711 16.0303 0.847656 14.2188 0.916015C10.4102 1.0625 7.7002 1.29199 6.32324 1.6582C5.17188 1.96894 4.12241 2.57683 3.28 3.42096C2.43759 4.26508 1.83184 5.31578 1.52344 6.46777C1.22559 7.57129 1.01562 9.04101 0.869141 10.8037C0.761719 12.083 0.693359 13.4404 0.654297 14.8027C0.639648 15.2764 0.634766 15.7207 0.629883 16.1162C0.629883 16.2578 0.625 16.3799 0.625 16.4873V16.7607C0.625 16.8682 0.625 16.9902 0.629883 17.1318C0.634766 17.5273 0.644531 17.9717 0.654297 18.4453C0.693359 19.8076 0.761719 21.165 0.869141 22.4443C1.01562 24.207 1.23047 25.6768 1.52344 26.7803C2.14844 29.1191 3.98437 30.9648 6.32324 31.5898C7.7002 31.9609 10.4102 32.1904 14.2188 32.332C16.0303 32.4004 17.9688 32.4443 19.9072 32.4688C20.5859 32.4785 21.2158 32.4834 21.7822 32.4883H23.2178C23.7842 32.4834 24.4141 32.4785 25.0928 32.4688C27.0312 32.4443 28.9697 32.4004 30.7812 32.332C34.5898 32.1855 37.2998 31.9561 38.6768 31.5898C41.0156 30.9648 42.8516 29.124 43.4766 26.7803C43.7744 25.6768 43.9844 24.207 44.1309 22.4443C44.2383 21.165 44.3066 19.8076 44.3457 18.4453C44.3604 17.9717 44.3652 17.5273 44.3701 17.1318C44.3701 16.9902 44.375 16.8682 44.375 16.7607V16.4873ZM40.8594 16.7412C40.8594 16.8438 40.8594 16.9561 40.8545 17.0879C40.8496 17.4688 40.8398 17.8887 40.8301 18.3428C40.7959 19.6416 40.7275 20.9404 40.625 22.1465C40.4932 23.7187 40.3076 25.0078 40.0781 25.8721C39.7754 27 38.8867 27.8936 37.7637 28.1914C36.7383 28.4648 34.1553 28.6846 30.6445 28.8164C28.8672 28.8848 26.9531 28.9287 25.0439 28.9531C24.375 28.9629 23.7549 28.9678 23.1982 28.9678H21.8018L19.9561 28.9531C18.0469 28.9287 16.1377 28.8848 14.3555 28.8164C10.8447 28.6797 8.25684 28.4648 7.23633 28.1914C6.11328 27.8887 5.22461 27 4.92188 25.8721C4.69238 25.0078 4.50684 23.7187 4.375 22.1465C4.27246 20.9404 4.20898 19.6416 4.16992 18.3428C4.15527 17.8887 4.15039 17.4639 4.14551 17.0879C4.14551 16.9561 4.14062 16.8389 4.14062 16.7412V16.5068C4.14062 16.4043 4.14063 16.292 4.14551 16.1602C4.15039 15.7793 4.16016 15.3594 4.16992 14.9053C4.2041 13.6064 4.27246 12.3076 4.375 11.1016C4.50684 9.5293 4.69238 8.24023 4.92188 7.37598C5.22461 6.24805 6.11328 5.35449 7.23633 5.05664C8.26172 4.7832 10.8447 4.56348 14.3555 4.43164C16.1328 4.36328 18.0469 4.31934 19.9561 4.29492C20.625 4.28516 21.2451 4.28027 21.8018 4.28027H23.1982L25.0439 4.29492C26.9531 4.31934 28.8623 4.36328 30.6445 4.43164C34.1553 4.56836 36.7432 4.7832 37.7637 5.05664C38.8867 5.35938 39.7754 6.24805 40.0781 7.37598C40.3076 8.24023 40.4932 9.5293 40.625 11.1016C40.7275 12.3076 40.791 13.6064 40.8301 14.9053C40.8447 15.3594 40.8496 15.7842 40.8545 16.1602C40.8545 16.292 40.8594 16.4092 40.8594 16.5068V16.7412ZM18.1543 23.167L29.4824 16.5752L18.1543 10.0811V23.167Z" fill="#000059"/>
</svg>
